<svg width="150" height="150" viewBox="-0.57 -0.42000000000000004 1.14 0.78" xmlns="http://www.w3.org/2000/svg"><path d="M0.06000000000000001,0.13 L0.05999999999999998,-0.18" fill="none" stroke="black" stroke-width="0.02" stroke-linecap="round" stroke-linejoin="round" />
    <path d="M-0.019999999999999987,0.07 L-0.02000000000000001,-0.12" fill="none" stroke="black" stroke-width="0.02" stroke-linecap="round" stroke-linejoin="round" />
    <path d="M0.06,-0.030000000000000006 L0.45,-0.030000000000000054" fill="none" stroke="black" stroke-width="0.02" stroke-linecap="round" stroke-linejoin="round" />
    <path d="M-0.45,-0.029999999999999943 L-0.03,-0.029999999999999995" fill="none" stroke="black" stroke-width="0.02" stroke-linecap="round" stroke-linejoin="round" />
    <text x="-3.061616997868383e-17" y="-0.28" dx="0" dy="0" text-anchor="middle" style="font: 0.1px monospace; fill: black">{REF}</text><rect x="-0.012500000000000032" y="-0.29250000000000004" width="0.025" height="0.025" fill="blue" />
    <text x="3.0616169978683836e-17" y="0.22000000000000003" dx="0" dy="0.07500000000000001" text-anchor="middle" style="font: 0.1px monospace; fill: black">{VAL}</text><rect x="-0.01249999999999997" y="0.20750000000000002" width="0.025" height="0.025" fill="blue" />

    
    <line x1="0.425" y1="-0.055000000000000056" x2="0.47500000000000003" y2="-0.005000000000000053" stroke="red" stroke-width="0.004" />
    <line x1="0.425" y1="-0.005000000000000053" x2="0.47500000000000003" y2="-0.055000000000000056" stroke="red" stroke-width="0.004" />
  
    <text x="0.41000000000000003" y="0.05999999999999995"
      text-anchor="middle" style="font: 0.08px monospace; fill: #833;">1</text>
  
    
    
    <line x1="-0.47500000000000003" y1="-0.054999999999999945" x2="-0.425" y2="-0.004999999999999942" stroke="red" stroke-width="0.004" />
    <line x1="-0.47500000000000003" y1="-0.004999999999999942" x2="-0.425" y2="-0.054999999999999945" stroke="red" stroke-width="0.004" />
  
    <text x="-0.49" y="0.06000000000000006"
      text-anchor="middle" style="font: 0.08px monospace; fill: #833;">2</text>
  
<path d="M 0 -0.055 L 0.025 -0.03 L 0 -0.0049999999999999975 L -0.025 -0.03 Z" fill="green" />
<text x="-0.475" y="-0.29500000000000004" style="font: 0.05px monospace; fill: #833;">0.95 x 0.65</text>
<text x="-0.475" y="-0.29500000000000004" style="font: 0.05px monospace; fill: #833;">0.95 x 0.65</text></svg>