<svg width="150" height="150" viewBox="-0.36 -0.39 0.72 0.78" xmlns="http://www.w3.org/2000/svg"><path d="M-0.3,0 L-0.19998,0" fill="none" stroke="black" stroke-width="0.02" stroke-linecap="round" stroke-linejoin="round" />
    <path d="M0.19998,0 L0.3,0" fill="none" stroke="black" stroke-width="0.02" stroke-linecap="round" stroke-linejoin="round" />
    <path d="M-0.19998,-0.07998 L0.19998,-0.07998 L0.19998,0.07998 L-0.19998,0.07998 L-0.19998,-0.07998" fill="none" stroke="black" stroke-width="0.02" stroke-linecap="round" stroke-linejoin="round" />
    <text x="0" y="-0.16" dx="0" dy="0" text-anchor="middle" style="font: 0.1px monospace; fill: black">{REF}</text><rect x="-0.0125" y="-0.17250000000000001" width="0.025" height="0.025" fill="blue" />
    <text x="0" y="0.16" dx="0" dy="0.07500000000000001" text-anchor="middle" style="font: 0.1px monospace; fill: black">{VAL}</text><rect x="-0.0125" y="0.1475" width="0.025" height="0.025" fill="blue" />

    
    <line x1="-0.325" y1="-0.025" x2="-0.27499999999999997" y2="0.025" stroke="red" stroke-width="0.004" />
    <line x1="-0.325" y1="0.025" x2="-0.27499999999999997" y2="-0.025" stroke="red" stroke-width="0.004" />
  
    <text x="-0.33999999999999997" y="0.09"
      text-anchor="middle" style="font: 0.08px monospace; fill: #833;">1</text>
  
    
    
    <line x1="0.27499999999999997" y1="-0.025" x2="0.325" y2="0.025" stroke="red" stroke-width="0.004" />
    <line x1="0.27499999999999997" y1="0.025" x2="0.325" y2="-0.025" stroke="red" stroke-width="0.004" />
  
    <text x="0.26" y="0.09"
      text-anchor="middle" style="font: 0.08px monospace; fill: #833;">2</text>
  
<path d="M 0 -0.025 L 0.025 0 L 0 0.025 L -0.025 0 Z" fill="green" />
<text x="-0.3" y="-0.325" style="font: 0.05px monospace; fill: #833;">0.60 x 0.65</text>
<text x="-0.3" y="-0.325" style="font: 0.05px monospace; fill: #833;">0.60 x 0.65</text></svg>