<svg width="150" height="150" viewBox="-0.6 -0.2813464199999994 1.2 0.5626928399999988" xmlns="http://www.w3.org/2000/svg"><path d="M0.5,-6.123233995736766e-17 L0.3333,-4.081747781558128e-17" fill="none" stroke="black" stroke-width="0.02" stroke-linecap="round" stroke-linejoin="round" />
    <path d="M-0.3333,4.081747781558128e-17 L-0.5,6.123233995736766e-17" fill="none" stroke="black" stroke-width="0.02" stroke-linecap="round" stroke-linejoin="round" />
    <path d="M0.3333,0.13329999999999997 L-0.3333,0.13330000000000003 L-0.3333,-0.13329999999999997 L0.3333,-0.13330000000000003 L0.3333,0.13329999999999997" fill="none" stroke="black" stroke-width="0.02" stroke-linecap="round" stroke-linejoin="round" />
    <text x="-2.4426235595031442e-17" y="-0.1994553499999995" dx="0" dy="0" text-anchor="middle" style="font: 0.1px monospace; fill: black">{REF}</text><rect x="-0.012500000000000025" y="-0.21195534999999951" width="0.025" height="0.025" fill="blue" />
    <text x="3.2998763189062914e-17" y="0.2694553499999995" dx="0" dy="0.07500000000000001" text-anchor="middle" style="font: 0.1px monospace; fill: black">{VAL}</text><rect x="-0.012499999999999968" y="0.25695534999999947" width="0.025" height="0.025" fill="blue" />

    
    <line x1="0.475" y1="-0.025000000000000064" x2="0.525" y2="0.02499999999999994" stroke="red" stroke-width="0.004" />
    <line x1="0.475" y1="0.02499999999999994" x2="0.525" y2="-0.025000000000000064" stroke="red" stroke-width="0.004" />
  
    <text x="0.46" y="0.08999999999999994"
      text-anchor="middle" style="font: 0.08px monospace; fill: #833;">1</text>
  
    
    
    <line x1="-0.525" y1="-0.02499999999999994" x2="-0.475" y2="0.025000000000000064" stroke="red" stroke-width="0.004" />
    <line x1="-0.525" y1="0.025000000000000064" x2="-0.475" y2="-0.02499999999999994" stroke="red" stroke-width="0.004" />
  
    <text x="-0.54" y="0.09000000000000007"
      text-anchor="middle" style="font: 0.08px monospace; fill: #833;">2</text>
  
<path d="M 0 -0.025 L 0.025 0 L 0 0.025 L -0.025 0 Z" fill="green" />
<text x="-0.5" y="-0.2344553499999995" style="font: 0.05px monospace; fill: #833;">1.00 x 0.47</text>
<text x="-0.5" y="-0.2344553499999995" style="font: 0.05px monospace; fill: #833;">1.00 x 0.47</text></svg>