<svg width="150" height="150" viewBox="-0.3741206400000009 -0.6515287300000018 0.7482412800000018 1.26999996" xmlns="http://www.w3.org/2000/svg"><path d="M-0.0007543000000013976,-0.5453897000000025 L-0.0007543000000014254,-0.09559810000000235" fill="none" stroke="black" stroke-width="0.02" stroke-linecap="round" stroke-linejoin="round" />
    <path d="M-0.0007543000000014323,0.0631518999999976 L-0.00075430000000146,0.5129435999999976" fill="none" stroke="black" stroke-width="0.02" stroke-linecap="round" stroke-linejoin="round" />
    <path d="M-0.26650690000000044,0.1146012999999981 L-0.26650690000000044,0.1146012999999981 L-0.24886801032592631,0.10545683891110917 L-0.23122912127407433,0.09699998728888695 L-0.2135902328000002,0.08922464259999802 L-0.1959513448592594,0.0821247023111091 L-0.17831245740740748,0.07569406388888685 L-0.16067357040000008,0.06992662479999792 L-0.14303468379259257,0.06481628251110902 L-0.1253957975407407,0.06035693448888678 L-0.10775691159999982,0.05654247819999783 L-0.0901180259259258,0.05336681111110897 L-0.07247914047407389,0.0508238306888867 L-0.05484025519999984,0.048907434399997826 L-0.03720137005925906,0.047611519711108885 L-0.019562485007407267,0.046929984088886684 L-0.001923599999999824,0.04685672499999777 L0.015715285007407587,0.04738563991110886 L0.03335417005925941,0.04851062628888664 L0.05099305520000013,0.05022558159999774 L0.06863194047407417,0.05252440331110883 L0.08627082592592601,0.055400988888886615 L0.10390971160000002,0.05884923579999771 L0.12154859754074071,0.06286304151110882 L0.13918748379259252,0.06743630348888661 L0.15682637039999986,0.07256291919999772 L0.17446525740740723,0.0782367861111088 L0.192104144859259,0.08445180168888658 L0.20974303279999965,0.0912018633999977 L0.22738192127407367,0.0984808687111088 L0.24502081032592543,0.10628271508888655 L0.26265969999999944,0.11460129999999769 L0.2626596999999995,0.11460129999999771" fill="none" stroke="black" stroke-width="0.02" stroke-linecap="round" stroke-linejoin="round" />
    <path d="M-0.2658168999999999,-0.0854221000000024 L0.2633497000000018,-0.08542210000000237" fill="none" stroke="black" stroke-width="0.02" stroke-linecap="round" stroke-linejoin="round" />
    <path d="M-0.24468099999999904,-0.2920625000000019 L-0.2453410000000007,-0.16812760000000185" fill="none" stroke="black" stroke-width="0.02" stroke-linecap="round" stroke-linejoin="round" />
    <path d="M-0.18306060000000013,-0.22992580000000196 L-0.30699699999999996,-0.23013580000000203" fill="none" stroke="black" stroke-width="0.02" stroke-linecap="round" stroke-linejoin="round" />
    <text x="0.2965200999999984" y="-0.30958740000000223" dx="0" dy="0.037500000000000006" text-anchor="start" style="font: 0.1px monospace; fill: black">{REF}</text><rect x="0.2840200999999984" y="-0.32208740000000224" width="0.025" height="0.025" fill="blue" />
    <text x="0.3165374000000015" y="0.2813985999999981" dx="0" dy="0.037500000000000006" text-anchor="start" style="font: 0.1px monospace; fill: black">{VAL}</text><rect x="0.3040374000000015" y="0.2688985999999981" width="0.025" height="0.025" fill="blue" />

    
    <line x1="-0.024851500000001036" y1="0.48825459999999843" x2="0.025148499999998967" y2="0.5382545999999985" stroke="red" stroke-width="0.004" />
    <line x1="-0.024851500000001036" y1="0.5382545999999985" x2="0.025148499999998967" y2="0.48825459999999843" stroke="red" stroke-width="0.004" />
  
    <text x="-0.03985150000000104" y="0.6032545999999985"
      text-anchor="middle" style="font: 0.08px monospace; fill: #833;">2</text>
  
    
    
    <line x1="-0.025148499999998967" y1="-0.571312100000002" x2="0.024851500000001036" y2="-0.5213121000000019" stroke="red" stroke-width="0.004" />
    <line x1="-0.025148499999998967" y1="-0.5213121000000019" x2="0.024851500000001036" y2="-0.571312100000002" stroke="red" stroke-width="0.004" />
  
    <text x="-0.04014849999999896" y="-0.456312100000002"
      text-anchor="middle" style="font: 0.08px monospace; fill: #833;">1</text>
  
<path d="M 0 -0.04152875000000176 L 0.025 -0.016528750000001757 L 0 0.008471249999998244 L -0.025 -0.016528750000001757 Z" fill="green" />
<text x="-0.31176720000000074" y="-0.5126378999999983" style="font: 0.05px monospace; fill: #833;">0.62 x 1.06</text>
<text x="-0.31176720000000074" y="-0.5626378999999984" dy="-0.15" style="font: 0.05px monospace; fill: #833;">2 [neg]</text>
<text x="-0.31176720000000074" y="-0.6126378999999983" dy="-0.15" style="font: 0.05px monospace; fill: #833;">1 [pos]</text>
<text x="-0.31176720000000074" y="-0.5126378999999983" style="font: 0.05px monospace; fill: #833;">0.62 x 1.06</text>
<text x="-0.31176720000000074" y="-0.5626378999999984" dy="-0.15" style="font: 0.05px monospace; fill: #833;">2 [neg]</text>
<text x="-0.31176720000000074" y="-0.6126378999999983" dy="-0.15" style="font: 0.05px monospace; fill: #833;">1 [pos]</text></svg>