<svg width="150" height="150" viewBox="-0.27 -0.8003513407716537 0.54 1.56" xmlns="http://www.w3.org/2000/svg"><path d="M0.0005939203801829828,0.628125579229283 L0.0005939203801829582,-0.01892374569896485" fill="none" stroke="black" stroke-width="0.02" stroke-linecap="round" stroke-linejoin="round" />
    <path d="M0.0005939203801829555,-0.1044623563594266 L0.0005939203801829337,-0.6718744207707171" fill="none" stroke="black" stroke-width="0.02" stroke-linecap="round" stroke-linejoin="round" />
    <path d="M0.20984207791208015,-0.18180773238951387 L0.20984207791208015,-0.18180773238951387 L0.19595357723435047,-0.17054843911004097 L0.18206507704654573,-0.1601357781877608 L0.16817657731367147,-0.15056223576134442 L0.15428807800073294,-0.14182029796946322 L0.1403995790727355,-0.13390245095078843 L0.1265110804946846,-0.12680118084399136 L0.11262258223158542,-0.12050897378774332 L0.09873408424844347,-0.11501831592071556 L0.08484558651026394,-0.1103216933815793 L0.07095708898205244,-0.10641159230900596 L0.05706859162881408,-0.1032804988416667 L0.04318009441555437,-0.10092089911823295 L0.02929159730727854,-0.09932527927737579 L0.015403100268992083,-0.09848612545776671 L0.0015146032657002064,-0.09839592379807682 L-0.012373893737591651,-0.09904716043697752 L-0.02626239077587813,-0.10043232151314005 L-0.040150887884153906,-0.10254389316523568 L-0.05403938509741362,-0.1053743615319357 L-0.0679278824506519,-0.10891621275191143 L-0.0818163799788634,-0.1131619329638341 L-0.09570487771704277,-0.11810400830637503 L-0.10959337570018467,-0.12373492491820548 L-0.12348187396328372,-0.13004716893799675 L-0.1373703725413346,-0.13703322650442007 L-0.15125887146933192,-0.14468558375614682 L-0.16514737078227032,-0.15299672683184823 L-0.17903587051514452,-0.16195914187019558 L-0.19292437070294907,-0.17156531500986014 L-0.2068128713806787,-0.18180773238951323 L-0.20681287138067872,-0.18180773238951325" fill="none" stroke="black" stroke-width="0.02" stroke-linecap="round" stroke-linejoin="round" />
    <path d="M0.20837810315021768,-0.021188788517299276 L-0.20827684614253983,-0.021188788517298694" fill="none" stroke="black" stroke-width="0.02" stroke-linecap="round" stroke-linejoin="round" />
    <path d="M0.19265681100791537,0.31890487886631347 L0.19317648149833164,0.1663076538250635" fill="none" stroke="black" stroke-width="0.02" stroke-linecap="round" stroke-linejoin="round" />
    <path d="M0.14413816936008825,0.2423978740337714 L0.2417231538574602,0.24265644056554464" fill="none" stroke="black" stroke-width="0.02" stroke-linecap="round" stroke-linejoin="round" />
    <text x="0.22320627069058596" y="-0.39827877090162495" dx="0" dy="0.037500000000000006" text-anchor="start" style="font: 0.1px monospace; fill: black">{REF}</text><rect x="0.21070627069058595" y="-0.41077877090162496" width="0.025" height="0.025" fill="blue" />
    <text x="0.2231926490246984" y="0.3515814090095356" dx="0" dy="0.037500000000000006" text-anchor="start" style="font: 0.1px monospace; fill: black">{VAL}</text><rect x="0.2106926490246984" y="0.3390814090095356" width="0.025" height="0.025" fill="blue" />

    
    <line x1="-0.025116925860342604" y1="-0.6976572617273916" x2="0.0248830741396574" y2="-0.6476572617273916" stroke="red" stroke-width="0.004" />
    <line x1="-0.025116925860342604" y1="-0.6476572617273916" x2="0.0248830741396574" y2="-0.6976572617273916" stroke="red" stroke-width="0.004" />
  
    <text x="-0.0401169258603426" y="-0.5826572617273915"
      text-anchor="middle" style="font: 0.08px monospace; fill: #833;">2</text>
  
    
    
    <line x1="-0.0248830741396574" y1="0.6069545801840841" x2="0.025116925860342604" y2="0.6569545801840841" stroke="red" stroke-width="0.004" />
    <line x1="-0.0248830741396574" y1="0.6569545801840841" x2="0.025116925860342604" y2="0.6069545801840841" stroke="red" stroke-width="0.004" />
  
    <text x="-0.0398830741396574" y="0.7219545801840842"
      text-anchor="middle" style="font: 0.08px monospace; fill: #833;">1</text>
  
<path d="M 0 -0.045351340771653724 L 0.025 -0.020351340771653723 L 0 0.004648659228346279 L -0.025 -0.020351340771653723 Z" fill="green" />
<text x="-0.225" y="-0.6296486592283463" style="font: 0.05px monospace; fill: #833;">0.45 x 1.30</text>
<text x="-0.225" y="-0.6796486592283464" dy="-0.15" style="font: 0.05px monospace; fill: #833;">2 [neg]</text>
<text x="-0.225" y="-0.7296486592283463" dy="-0.15" style="font: 0.05px monospace; fill: #833;">1 [pos]</text>
<text x="-0.225" y="-0.6296486592283463" style="font: 0.05px monospace; fill: #833;">0.45 x 1.30</text>
<text x="-0.225" y="-0.6796486592283464" dy="-0.15" style="font: 0.05px monospace; fill: #833;">2 [neg]</text>
<text x="-0.225" y="-0.7296486592283463" dy="-0.15" style="font: 0.05px monospace; fill: #833;">1 [pos]</text></svg>