<svg width="150" height="150" viewBox="-0.38009559600000004 -0.2691110219999999 0.7601911920000001 0.5183875439999978" xmlns="http://www.w3.org/2000/svg"><path d="M-0.3160041300000005,-0.009464670000000158 L-0.0006956700000004366,-0.009464670000000197" fill="none" stroke="black" stroke-width="0.02" stroke-linecap="round" stroke-linejoin="round" />
    <path d="M0.04098746999999978,-0.009464670000000201 L0.3174885299999996,-0.009464670000000236" fill="none" stroke="black" stroke-width="0.02" stroke-linecap="round" stroke-linejoin="round" />
    <path d="M0.07867802999999994,0.1499868899999992 L0.07867802999999994,0.1499868899999992 L0.07319135334666658,0.13940355619555472 L0.06811724237333325,0.12882022276444352 L0.06345203555999988,0.11823688967999905 L0.05919207138666654,0.10765355691555459 L0.055333688333333186,0.09707022444444342 L0.05187322487999983,0.08648689223999899 L0.04880701950666648,0.07590356027555449 L0.04613141069333314,0.06532022852444337 L0.04384273691999977,0.05473689695999883 L0.04193733666666644,0.044153565555554414 L0.04041154841333308,0.03357023428444327 L0.03926171063999976,0.02298690311999884 L0.038484161826666384,0.012403572035554374 L0.03807524045333306,0.0018202410044432973 L0.038031284999999714,-0.008763090000001165 L0.03834863394666637,-0.019346421004445613 L0.039023625773333036,-0.029929752035556704 L0.04005259895999969,-0.04051308312000113 L0.04143189198666635,-0.05109641428444557 L0.043157843333333015,-0.061679745555556664 L0.04522679147999967,-0.07226307696000107 L0.04763507490666633,-0.08284640852444548 L0.050379032093333005,-0.09342974027555657 L0.05345500151999966,-0.10401307224000096 L0.05685932166666632,-0.11459640444444538 L0.060588331013332976,-0.12517973691555645 L0.06463836803999964,-0.13576306968000085 L0.0690057712266663,-0.14634640276444527 L0.07368687905333296,-0.15692973619555634 L0.07867802999999964,-0.16751307000000074 L0.07867802999999965,-0.16751307000000074" fill="none" stroke="black" stroke-width="0.02" stroke-linecap="round" stroke-linejoin="round" />
    <path d="M0.0004080900000000137,0.1488713099999984 L0.00040808999999970835,-0.1686286500000005" fill="none" stroke="black" stroke-width="0.02" stroke-linecap="round" stroke-linejoin="round" />
    <path d="M-0.16532025000000003,0.13689134999999839 L-0.09095931000000002,0.13728734999999936" fill="none" stroke="black" stroke-width="0.02" stroke-linecap="round" stroke-linejoin="round" />
    <path d="M-0.1280382300000001,0.09991910999999903 L-0.12816423000000013,0.1742809499999989" fill="none" stroke="black" stroke-width="0.02" stroke-linecap="round" stroke-linejoin="round" />
    <text x="0.004164809999999738" y="-0.23582931000000013" dx="0" dy="0" text-anchor="middle" style="font: 0.1px monospace; fill: black">{REF}</text><rect x="-0.008335190000000263" y="-0.24832931000000014" width="0.025" height="0.025" fill="blue" />
    <text x="-0.0012435900000001044" y="0.19616030999999803" dx="0" dy="0.07500000000000001" text-anchor="middle" style="font: 0.1px monospace; fill: black">{VAL}</text><rect x="-0.013743590000000106" y="0.18366030999999802" width="0.025" height="0.025" fill="blue" />

    
    <line x1="0.29287001000000007" y1="-0.03500635000000049" x2="0.3428700100000001" y2="0.01499364999999951" stroke="red" stroke-width="0.004" />
    <line x1="0.29287001000000007" y1="0.01499364999999951" x2="0.3428700100000001" y2="-0.03500635000000049" stroke="red" stroke-width="0.004" />
  
    <text x="0.2778700100000001" y="0.07999364999999951"
      text-anchor="middle" style="font: 0.08px monospace; fill: #833;">2</text>
  
    
    
    <line x1="-0.3428700100000001" y1="-0.03482815000000162" x2="-0.29287001000000007" y2="0.015171849999998386" stroke="red" stroke-width="0.004" />
    <line x1="-0.3428700100000001" y1="0.015171849999998386" x2="-0.29287001000000007" y2="-0.03482815000000162" stroke="red" stroke-width="0.004" />
  
    <text x="-0.35787001000000007" y="0.08017184999999838"
      text-anchor="middle" style="font: 0.08px monospace; fill: #833;">1</text>
  
<path d="M 0 -0.03491725000000105 L 0.025 -0.009917250000001054 L 0 0.015082749999998948 L -0.025 -0.009917250000001054 Z" fill="green" />
<text x="-0.31674633" y="-0.20607755999999805" style="font: 0.05px monospace; fill: #833;">0.63 x 0.43</text>
<text x="-0.31674633" y="-0.25607755999999804" dy="-0.15" style="font: 0.05px monospace; fill: #833;">2 [neg]</text>
<text x="-0.31674633" y="-0.3060775599999981" dy="-0.15" style="font: 0.05px monospace; fill: #833;">1 [pos]</text>
<text x="-0.31674633" y="-0.20607755999999805" style="font: 0.05px monospace; fill: #833;">0.63 x 0.43</text>
<text x="-0.31674633" y="-0.25607755999999804" dy="-0.15" style="font: 0.05px monospace; fill: #833;">2 [neg]</text>
<text x="-0.31674633" y="-0.3060775599999981" dy="-0.15" style="font: 0.05px monospace; fill: #833;">1 [pos]</text></svg>