<svg width="150" height="150" viewBox="-0.32004 -0.6 0.64008 1.2" xmlns="http://www.w3.org/2000/svg"><path d="M3.061616997868383e-17,0.5 L6.123233995736766e-18,0.1" fill="none" stroke="black" stroke-width="0.02" stroke-linecap="round" stroke-linejoin="round" />
    <path d="M-6.123233995736766e-18,-0.1 L-3.061616997868383e-17,-0.5" fill="none" stroke="black" stroke-width="0.02" stroke-linecap="round" stroke-linejoin="round" />
    <path d="M0.2667,0.09999999999999999 L-0.2667,0.10000000000000002" fill="none" stroke="black" stroke-width="0.02" stroke-linecap="round" stroke-linejoin="round" />
    <path d="M0.2667,-0.10000000000000002 L-0.2667,-0.09999999999999999" fill="none" stroke="black" stroke-width="0.02" stroke-linecap="round" stroke-linejoin="round" />
    <text x="0.11499999999999999" y="-0.2" dx="0" dy="0" text-anchor="start" style="font: 0.1px monospace; fill: black">{REF}</text><rect x="0.1025" y="-0.21250000000000002" width="0.025" height="0.025" fill="blue" />
    <text x="0.11500000000000002" y="0.2" dx="0" dy="0.1" text-anchor="start" style="font: 0.1px monospace; fill: black">{VAL}</text><rect x="0.10250000000000002" y="0.1875" width="0.025" height="0.025" fill="blue" />

    
    <line x1="-0.025000000000000033" y1="-0.525" x2="0.02499999999999997" y2="-0.475" stroke="red" stroke-width="0.004" />
    <line x1="-0.025000000000000033" y1="-0.475" x2="0.02499999999999997" y2="-0.525" stroke="red" stroke-width="0.004" />
  
    <text x="-0.04000000000000003" y="-0.41000000000000003"
      text-anchor="middle" style="font: 0.08px monospace; fill: #833;">1</text>
  
    
    
    <line x1="-0.02499999999999997" y1="0.475" x2="0.025000000000000033" y2="0.525" stroke="red" stroke-width="0.004" />
    <line x1="-0.02499999999999997" y1="0.525" x2="0.025000000000000033" y2="0.475" stroke="red" stroke-width="0.004" />
  
    <text x="-0.03999999999999997" y="0.5900000000000001"
      text-anchor="middle" style="font: 0.08px monospace; fill: #833;">2</text>
  
<path d="M 0 -0.025 L 0.025 0 L 0 0.025 L -0.025 0 Z" fill="green" />
<text x="-0.2667" y="-0.5" style="font: 0.05px monospace; fill: #833;">0.53 x 1.00</text>
<text x="-0.2667" y="-0.5" style="font: 0.05px monospace; fill: #833;">0.53 x 1.00</text></svg>