<svg width="150" height="150" viewBox="-0.37017587999999957 -0.6515287300000018 0.7403517599999991 1.26999996" xmlns="http://www.w3.org/2000/svg"><path d="M-0.0007543000000013976,-0.5453897000000025 L-0.0007543000000014254,-0.09559810000000235" fill="none" stroke="black" stroke-width="0.02" stroke-linecap="round" stroke-linejoin="round" />
    <path d="M-0.0007543000000014323,0.0631518999999976 L-0.00075430000000146,0.5129435999999976" fill="none" stroke="black" stroke-width="0.02" stroke-linecap="round" stroke-linejoin="round" />
    <path d="M-0.2587229999999989,-0.1501684000000019 L-0.2587229999999989,-0.1501684000000019 L-0.24294242549259143,-0.1423222102666686 L-0.22704189594073962,-0.13498249546666866 L-0.21102053229999884,-0.12815296720000205 L-0.19487745552592478,-0.12183733706666876 L-0.17861178657407295,-0.11603931666666881 L-0.16222264639999892,-0.11076261760000218 L-0.1457091559592582,-0.10601095146666885 L-0.1290704362074064,-0.10178802986666889 L-0.11230560809999895,-0.0980975644000022 L-0.09541379259259171,-0.0949432666666689 L-0.07839411064073988,-0.09232884826666889 L-0.06124568319999926,-0.09025802080000225 L-0.04396763122592522,-0.0887344958666689 L-0.026559075674073514,-0.08776198506666893 L-0.009019137499999514,-0.08734420000000225 L0.008653062340741145,-0.08748485226666892 L0.026458402892592887,-0.08818765346666893 L0.0443977632000002,-0.08945631520000226 L0.0624720223074075,-0.09129454906666892 L0.08068205925925925,-0.09370606666666892 L0.09902875309999988,-0.09669457960000225 L0.11751298287407384,-0.10026379946666891 L0.13613562762592563,-0.1044174378666689 L0.1548975663999996,-0.10915920640000225 L0.17379967824074022,-0.1144928166666689 L0.192842842192592,-0.12042198026666891 L0.21202793729999933,-0.12695040880000225 L0.2313558426074067,-0.1340818138666689 L0.2508274371592585,-0.14181990706666892 L0.2704435999999991,-0.15016840000000226 L0.27044359999999923,-0.15016840000000228" fill="none" stroke="black" stroke-width="0.02" stroke-linecap="round" stroke-linejoin="round" />
    <path d="M-0.2653375999999996,0.06315189999999758 L0.2638290000000003,0.06315189999999761" fill="none" stroke="black" stroke-width="0.02" stroke-linecap="round" stroke-linejoin="round" />
    <path d="M-0.23810640000000038,0.192392599999998 L-0.2387663999999985,0.31632749999999765" fill="none" stroke="black" stroke-width="0.02" stroke-linecap="round" stroke-linejoin="round" />
    <path d="M-0.17648599999999795,0.25452929999999796 L-0.30042239999999776,0.2543192999999979" fill="none" stroke="black" stroke-width="0.02" stroke-linecap="round" stroke-linejoin="round" />
    <text x="0.2965200999999984" y="-0.30958740000000223" dx="0" dy="0.037500000000000006" text-anchor="start" style="font: 0.1px monospace; fill: black">{REF}</text><rect x="0.2840200999999984" y="-0.32208740000000224" width="0.025" height="0.025" fill="blue" />
    <text x="0.3165374000000015" y="0.2813985999999981" dx="0" dy="0.037500000000000006" text-anchor="start" style="font: 0.1px monospace; fill: black">{VAL}</text><rect x="0.3040374000000015" y="0.2688985999999981" width="0.025" height="0.025" fill="blue" />

    
    <line x1="-0.024851500000001036" y1="0.48825459999999843" x2="0.025148499999998967" y2="0.5382545999999985" stroke="red" stroke-width="0.004" />
    <line x1="-0.024851500000001036" y1="0.5382545999999985" x2="0.025148499999998967" y2="0.48825459999999843" stroke="red" stroke-width="0.004" />
  
    <text x="-0.03985150000000104" y="0.6032545999999985"
      text-anchor="middle" style="font: 0.08px monospace; fill: #833;">2</text>
  
    
    
    <line x1="-0.025148499999998967" y1="-0.571312100000002" x2="0.024851500000001036" y2="-0.5213121000000019" stroke="red" stroke-width="0.004" />
    <line x1="-0.025148499999998967" y1="-0.5213121000000019" x2="0.024851500000001036" y2="-0.571312100000002" stroke="red" stroke-width="0.004" />
  
    <text x="-0.04014849999999896" y="-0.456312100000002"
      text-anchor="middle" style="font: 0.08px monospace; fill: #833;">1</text>
  
<path d="M 0 -0.04152875000000176 L 0.025 -0.016528750000001757 L 0 0.008471249999998244 L -0.025 -0.016528750000001757 Z" fill="green" />
<text x="-0.30847989999999964" y="-0.5126378999999983" style="font: 0.05px monospace; fill: #833;">0.62 x 1.06</text>
<text x="-0.30847989999999964" y="-0.5626378999999984" dy="-0.15" style="font: 0.05px monospace; fill: #833;">2 [neg]</text>
<text x="-0.30847989999999964" y="-0.6126378999999983" dy="-0.15" style="font: 0.05px monospace; fill: #833;">1 [pos]</text>
<text x="-0.30847989999999964" y="-0.5126378999999983" style="font: 0.05px monospace; fill: #833;">0.62 x 1.06</text>
<text x="-0.30847989999999964" y="-0.5626378999999984" dy="-0.15" style="font: 0.05px monospace; fill: #833;">2 [neg]</text>
<text x="-0.30847989999999964" y="-0.6126378999999983" dy="-0.15" style="font: 0.05px monospace; fill: #833;">1 [pos]</text></svg>