<svg width="150" height="150" viewBox="-0.27343745449453166 -0.6721032954121098 0.5468749089890633 1.392" xmlns="http://www.w3.org/2000/svg"><path d="M-0.00006985000000027386,0.2239317545878896 L-0.004903310773876141,0.22642129458788962 L-0.00972232048133498,0.2289108345878896 L-0.014512517151589686,0.23140037458788967 L-0.019259716455808852,0.23388991458788966 L-0.023949999158220717,0.23637945458788967 L-0.02856979693283037,0.23886899458788968 L-0.03310597601666143,0.24135853458788967 L-0.03754591818377217,0.24384807458788973 L-0.041877598540814506,0.24633761458788972 L-0.0460896596645001,0.24882715458788973 L-0.050171481623891706,0.25131669458788974 L-0.05411324745580885,0.25380623458788976 L-0.057906003689670346,0.25629577458788977 L-0.061541715548617745,0.2587853145878898 L-0.06501331648658647,0.2612748545878898 L-0.06831475175591221,0.2637643945878898 L-0.07144101573686368,0.2662539345878898 L-0.07438818279895276,0.26874347458788983 L-0.07715343150375191,0.27123301458788984 L-0.07973506200000027,0.27372255458788985 L-0.08213250650375192,0.27621209458788987 L-0.08434633279895276,0.2787016345878899 L-0.08637824073686368,0.2811911745878899 L-0.08823105175591221,0.2836807145878899 L-0.08990869148658646,0.2861702545878899 L-0.09141616554861776,0.28865979458788993 L-0.09275952868967034,0.29114933458788994 L-0.09394584745580885,0.29363887458788995 L-0.09498315662389169,0.29612841458788997 L-0.0958804096645001,0.29861795458789 L-0.09664742354081451,0.30110749458789 L-0.09729481818377217,0.30359703458789 L-0.09783395101666142,0.30608657458789 L-0.09827684693283037,0.30857611458789 L-0.09863612415822072,0.31106565458789004 L-0.09892491645580885,0.31355519458789005 L-0.0991567921515897,0.31604473458789006 L-0.09934567048133496,0.3185342745878901 L-0.09950573577387613,0.3210238145878901 L-0.09965135000000026,0.3235133545878901 L-0.09950573577387613,0.3260028920878901 L-0.09934567048133496,0.3284924295878901 L-0.09915679215158969,0.33098196708789007 L-0.09892491645580885,0.3334715045878901 L-0.0986361241582207,0.33596104208789 L-0.09827684693283037,0.33845057958789 L-0.09783395101666142,0.34094011708789 L-0.09729481818377217,0.34342965458789004 L-0.0966474235408145,0.34591919208789 L-0.0958804096645001,0.34840872958789 L-0.09498315662389169,0.35089826708788996 L-0.09394584745580885,0.35338780458788993 L-0.09275952868967034,0.35587734208789 L-0.09141616554861774,0.35836687958788993 L-0.08990869148658646,0.36085641708788996 L-0.08823105175591221,0.36334595458788993 L-0.08637824073686368,0.3658354920878899 L-0.08434633279895278,0.36832502958788993 L-0.08213250650375192,0.37081456708788985 L-0.07973506200000027,0.3733041045878899 L-0.07715343150375192,0.3757936420878899 L-0.07438818279895276,0.3782831795878898 L-0.07144101573686369,0.38077271708788984 L-0.06831475175591223,0.3832622545878898 L-0.06501331648658648,0.3857517920878898 L-0.06154171554861775,0.3882413295878898 L-0.05790600368967035,0.39073086708788984 L-0.054113247455808866,0.39322040458788976 L-0.05017148162389172,0.3957099420878898 L-0.04608965966450011,0.39819947958788976 L-0.04187759854081452,0.40068901708788973 L-0.037545918183772176,0.40317855458788976 L-0.033105976016661445,0.4056680920878897 L-0.028569796932830387,0.4081576295878897 L-0.02394999915822073,0.41064716708788973 L-0.019259716455808866,0.4131367045878897 L-0.014512517151589698,0.41562624208788973 L-0.009722320481335,0.41811577958788965 L-0.004903310773876155,0.4206053170878897 L-0.00006985000000028427,0.42309485458788965" fill="none" stroke="black" stroke-width="0.02" stroke-linecap="round" stroke-linejoin="round" />
    <path d="M-0.00007054999999978051,0.02476875458788963 L-0.004904013273875643,0.027258292087889616 L-0.009723025481334475,0.029747829587889598 L-0.014513224651589187,0.03223736708788958 L-0.019260426455808347,0.03472690458788956 L-0.023950711658220204,0.037216442087889545 L-0.028570511932829855,0.03970597958788953 L-0.0331066935166609,0.04219551708788951 L-0.03754663818377165,0.044685054587889496 L-0.04187832104081397,0.047174592087889475 L-0.046090384664499565,0.04966412958788946 L-0.05017220912389117,0.052153667087889446 L-0.054113977455808315,0.05464320458788942 L-0.05790673618966981,0.05713274208788941 L-0.06154245054861719,0.05962227958788939 L-0.06501405398658591,0.062111817087889376 L-0.06831549175591166,0.06460135458788936 L-0.07144175823686312,0.06709089208788935 L-0.0743889277989522,0.06958042958788932 L-0.07715417900375135,0.0720699670878893 L-0.0797358119999997,0.07455950458788929 L-0.08213325900375135,0.07704904208788926 L-0.08434708779895218,0.07953857958788925 L-0.0863789982368631,0.08202811708788924 L-0.08823181175591162,0.08451765458788921 L-0.08990945398658587,0.0870071920878892 L-0.09141693054861715,0.08949672958788919 L-0.09276029618966974,0.09198626708788918 L-0.09394661745580823,0.09447580458788915 L-0.09498392912389109,0.09696534208788914 L-0.09588118466449948,0.09945487958788912 L-0.09664820104081388,0.10194441708788911 L-0.09729559818377155,0.1044339545878891 L-0.09783473351666079,0.10692349208788907 L-0.09827763193282973,0.10941302958788905 L-0.09863691165822008,0.11190256708788904 L-0.09892570645580821,0.11439210458788902 L-0.09915758465158905,0.11688164208788901 L-0.09934646548133431,0.11937117958788898 L-0.09950653327387547,0.12186071708788897 L-0.0996521499999996,0.12435025458788895 L-0.09950653327387547,0.12683979458788897 L-0.09934646548133431,0.12932933458788898 L-0.09915758465158904,0.131818874587889 L-0.09892570645580821,0.134308414587889 L-0.09863691165822007,0.13679795458788901 L-0.09827763193282975,0.13928749458788903 L-0.0978347335166608,0.14177703458788904 L-0.09729559818377156,0.14426657458788905 L-0.0966482010408139,0.14675611458788906 L-0.09588118466449949,0.14924565458788908 L-0.0949839291238911,0.1517351945878891 L-0.09394661745580825,0.1542247345878891 L-0.09276029618966976,0.1567142745878891 L-0.09141693054861716,0.15920381458788913 L-0.08990945398658588,0.16169335458788914 L-0.08823181175591163,0.16418289458788915 L-0.0863789982368631,0.16667243458788916 L-0.0843470877989522,0.16916197458788917 L-0.08213325900375135,0.1716515145878892 L-0.07973581199999971,0.1741410545878892 L-0.07715417900375135,0.1766305945878892 L-0.0743889277989522,0.17912013458788922 L-0.07144175823686313,0.18160967458788924 L-0.06831549175591167,0.18409921458788925 L-0.06501405398658591,0.18658875458788926 L-0.0615424505486172,0.18907829458788927 L-0.057906736189669815,0.1915678345878893 L-0.05411397745580832,0.19405737458788927 L-0.050172209123891184,0.1965469145878893 L-0.04609038466449958,0.19903645458788932 L-0.04187832104081399,0.20152599458788933 L-0.03754663818377166,0.20401553458788937 L-0.03310669351666092,0.20650507458788933 L-0.02857051193282987,0.20899461458788937 L-0.023950711658220217,0.21148415458788938 L-0.019260426455808357,0.2139736945878894 L-0.0145132246515892,0.21646323458788944 L-0.009723025481334495,0.2189527745878894 L-0.0049040132738756605,0.22144231458788943 L-0.00007054999999979439,0.22393185458788945" fill="none" stroke="black" stroke-width="0.02" stroke-linecap="round" stroke-linejoin="round" />
    <path d="M-0.0000705499999997701,-0.17439434541211019 L-0.004904013273875633,-0.17190480541211017 L-0.009723025481334463,-0.16941526541211013 L-0.014513224651589175,-0.16692572541211018 L-0.019260426455808333,-0.16443618541211014 L-0.023950711658220193,-0.16194664541211012 L-0.02857051193282984,-0.1594571054121101 L-0.033106693516660894,-0.15696756541211007 L-0.03754663818377164,-0.15447802541211011 L-0.041878321040813966,-0.15198848541211007 L-0.04609038466449955,-0.14949894541211006 L-0.05017220912389116,-0.14700940541211005 L-0.0541139774558083,-0.14451986541211 L-0.0579067361896698,-0.14203032541211005 L-0.061542450548617185,-0.13954078541211 L-0.06501405398658591,-0.13705124541211 L-0.06831549175591164,-0.13456170541211 L-0.0714417582368631,-0.13207216541210998 L-0.0743889277989522,-0.12958262541210996 L-0.07715417900375134,-0.12709308541210995 L-0.07973581199999968,-0.12460354541210994 L-0.08213325900375133,-0.12211400541210993 L-0.08434708779895217,-0.11962446541210991 L-0.08637899823686308,-0.1171349254121099 L-0.0882318117559116,-0.11464538541210989 L-0.08990945398658585,-0.11215584541210988 L-0.09141693054861713,-0.10966630541210987 L-0.09276029618966973,-0.10717676541210985 L-0.09394661745580822,-0.10468722541210984 L-0.09498392912389107,-0.10219768541210983 L-0.09588118466449946,-0.09970814541210982 L-0.09664820104081387,-0.0972186054121098 L-0.09729559818377154,-0.09472906541210979 L-0.09783473351666078,-0.09223952541210978 L-0.09827763193282972,-0.08974998541210977 L-0.09863691165822008,-0.08726044541210976 L-0.09892570645580821,-0.08477090541210974 L-0.09915758465158905,-0.08228136541210973 L-0.09934646548133431,-0.07979182541210972 L-0.09950653327387547,-0.0773022854121097 L-0.0996521499999996,-0.0748127454121097 L-0.09950653327387547,-0.07232320791210971 L-0.09934646548133431,-0.06983367041210972 L-0.09915758465158904,-0.06734413291210975 L-0.09892570645580821,-0.06485459541210976 L-0.09863691165822007,-0.06236505791210978 L-0.09827763193282973,-0.05987552041210979 L-0.09783473351666079,-0.057385982912109806 L-0.09729559818377155,-0.054896445412109834 L-0.09664820104081388,-0.05240690791210985 L-0.09588118466449948,-0.04991737041210986 L-0.09498392912389109,-0.04742783291210988 L-0.09394661745580823,-0.04493829541210989 L-0.09276029618966974,-0.04244875791210992 L-0.09141693054861715,-0.03995922041210993 L-0.08990945398658587,-0.037469682912109954 L-0.08823181175591162,-0.03498014541210997 L-0.08637899823686308,-0.03249060791210998 L-0.0843470877989522,-0.03000107041211001 L-0.08213325900375135,-0.027511532912110025 L-0.0797358119999997,-0.025021995412110032 L-0.07715417900375135,-0.022532457912110046 L-0.07438892779895219,-0.02004292041211006 L-0.07144175823686313,-0.017553382912110088 L-0.06831549175591166,-0.015063845412110102 L-0.06501405398658591,-0.012574307912110116 L-0.06154245054861719,-0.01008477041211013 L-0.05790673618966981,-0.007595232912110145 L-0.05411397745580831,-0.005105695412110173 L-0.05017220912389117,-0.002616157912110187 L-0.046090384664499565,-0.00012662041211020103 L-0.04187832104081397,0.002362917087889785 L-0.037546638183771644,0.004852454587889767 L-0.03310669351666091,0.007341992087889746 L-0.02857051193282986,0.00983152958788973 L-0.023950711658220207,0.012321067087889714 L-0.019260426455808343,0.014810604587889699 L-0.014513224651589187,0.017300142087889686 L-0.009723025481334482,0.019789679587889658 L-0.00490401327387565,0.022279217087889644 L-0.00007054999999978051,0.02476875458788963" fill="none" stroke="black" stroke-width="0.02" stroke-linecap="round" stroke-linejoin="round" />
    <path d="M-0.00007054999999975622,-0.37355734541211016 L-0.004904013273875619,-0.37106780791211014 L-0.009723025481334451,-0.36857827041211016 L-0.014513224651589163,-0.36608873291211025 L-0.019260426455808322,-0.3635991954121103 L-0.02395071165822018,-0.36110965791211025 L-0.02857051193282983,-0.3586201204121102 L-0.03310669351666088,-0.35613058291211025 L-0.03754663818377162,-0.35364104541211033 L-0.04187832104081395,-0.35115150791211036 L-0.04609038466449954,-0.34866197041211033 L-0.05017220912389114,-0.3461724329121103 L-0.05411397745580829,-0.34368289541211033 L-0.05790673618966979,-0.3411933579121104 L-0.06154245054861717,-0.33870382041211045 L-0.06501405398658588,-0.3362142829121104 L-0.06831549175591164,-0.3337247454121104 L-0.0714417582368631,-0.3312352079121104 L-0.07438892779895218,-0.3287456704121105 L-0.07715417900375132,-0.32625613291211053 L-0.07973581199999968,-0.3237665954121105 L-0.08213325900375132,-0.3212770579121105 L-0.08434708779895217,-0.31878752041211056 L-0.08637899823686307,-0.31629798291211053 L-0.0882318117559116,-0.3138084454121106 L-0.08990945398658585,-0.3113189079121106 L-0.09141693054861713,-0.30882937041211056 L-0.09276029618966973,-0.30633983291211064 L-0.09394661745580822,-0.3038502954121106 L-0.09498392912389107,-0.30136075791211064 L-0.09588118466449946,-0.29887122041211067 L-0.09664820104081387,-0.2963816829121107 L-0.09729559818377154,-0.29389214541211073 L-0.09783473351666078,-0.2914026079121107 L-0.09827763193282972,-0.28891307041211073 L-0.09863691165822007,-0.28642353291211076 L-0.0989257064558082,-0.2839339954121108 L-0.09915758465158904,-0.2814444579121108 L-0.0993464654813343,-0.2789549204121108 L-0.09950653327387546,-0.2764653829121108 L-0.09965214999999959,-0.27397584541211084 L-0.09950653327387546,-0.2714863054121108 L-0.0993464654813343,-0.2689967654121108 L-0.09915758465158903,-0.2665072254121108 L-0.0989257064558082,-0.26401768541211085 L-0.09863691165822006,-0.2615281454121108 L-0.09827763193282972,-0.2590386054121107 L-0.09783473351666078,-0.25654906541211075 L-0.09729559818377154,-0.25405952541211074 L-0.09664820104081387,-0.25156998541211073 L-0.09588118466449946,-0.24908044541211072 L-0.09498392912389107,-0.2465909054121107 L-0.09394661745580822,-0.2441013654121107 L-0.09276029618966973,-0.24161182541211068 L-0.09141693054861713,-0.23912228541211067 L-0.08990945398658585,-0.23663274541211066 L-0.0882318117559116,-0.23414320541211064 L-0.08637899823686307,-0.23165366541211063 L-0.08434708779895217,-0.22916412541211062 L-0.08213325900375132,-0.2266745854121106 L-0.07973581199999968,-0.2241850454121106 L-0.07715417900375132,-0.22169550541211058 L-0.07438892779895218,-0.21920596541211057 L-0.0714417582368631,-0.21671642541211056 L-0.06831549175591164,-0.21422688541211055 L-0.0650140539865859,-0.21173734541211053 L-0.06154245054861718,-0.20924780541211052 L-0.057906736189669794,-0.2067582654121105 L-0.0541139774558083,-0.2042687254121105 L-0.05017220912389116,-0.20177918541211048 L-0.04609038466449955,-0.19928964541211047 L-0.04187832104081396,-0.19680010541211046 L-0.03754663818377163,-0.19431056541211045 L-0.0331066935166609,-0.19182102541211044 L-0.028570511932829844,-0.18933148541211042 L-0.023950711658220193,-0.1868419454121104 L-0.019260426455808333,-0.1843524054121104 L-0.014513224651589175,-0.18186286541211039 L-0.00972302548133447,-0.17937332541211037 L-0.004904013273875636,-0.17688378541211036 L-0.0000705499999997701,-0.17439424541211035" fill="none" stroke="black" stroke-width="0.02" stroke-linecap="round" stroke-linejoin="round" />
    <path d="M-0.00006985000000028427,0.42309485458788965 L-0.00006985000000029468,0.6038967045878901" fill="none" stroke="black" stroke-width="0.02" stroke-linecap="round" stroke-linejoin="round" />
    <path d="M-0.00007054999999974582,-0.5561032954121098 L-0.00007054999999975622,-0.37355734541211016" fill="none" stroke="black" stroke-width="0.02" stroke-linecap="round" stroke-linejoin="round" />
    <text x="0.34612964999999984" y="-0.2220211454121106" dx="0" dy="0.037500000000000006" text-anchor="start" style="font: 0.1px monospace; fill: black">{REF}</text><rect x="0.33362964999999983" y="-0.2345211454121106" width="0.025" height="0.025" fill="blue" />
    <text x="0.3560769408242198" y="0.2281494598827301" dx="0" dy="0.037500000000000006" text-anchor="start" style="font: 0.1px monospace; fill: black">{VAL}</text><rect x="0.3435769408242198" y="0.2156494598827301" width="0.025" height="0.025" fill="blue" />

    
    <line x1="-0.027624549999999762" y1="0.5788967045878901" x2="0.02237545000000024" y2="0.6288967045878902" stroke="red" stroke-width="0.004" />
    <line x1="-0.027624549999999762" y1="0.6288967045878902" x2="0.02237545000000024" y2="0.5788967045878901" stroke="red" stroke-width="0.004" />
  
    <text x="-0.04262454999999976" y="0.6938967045878902"
      text-anchor="middle" style="font: 0.08px monospace; fill: #833;">2</text>
  
    
    
    <line x1="-0.02237545000000024" y1="-0.5811032954121098" x2="0.027624549999999762" y2="-0.5311032954121098" stroke="red" stroke-width="0.004" />
    <line x1="-0.02237545000000024" y1="-0.5311032954121098" x2="0.027624549999999762" y2="-0.5811032954121098" stroke="red" stroke-width="0.004" />
  
    <text x="-0.03737545000000024" y="-0.46610329541210976"
      text-anchor="middle" style="font: 0.08px monospace; fill: #833;">1</text>
  
<path d="M 0 -0.0011032954121098296 L 0.025 0.023896704587890172 L 0 0.04889670458789017 L -0.025 0.023896704587890172 Z" fill="green" />
<text x="-0.2278645454121097" y="-0.6038967045878901" style="font: 0.05px monospace; fill: #833;">0.46 x 1.16</text>
<text x="-0.2278645454121097" y="-0.6038967045878901" style="font: 0.05px monospace; fill: #833;">0.46 x 1.16</text></svg>