<svg width="150" height="150" viewBox="-0.5853304200000001 -0.3463742000000009 1.1706608400000003 0.8787084000000015" xmlns="http://www.w3.org/2000/svg"><path d="M0.005962250000000502,-0.06921149999999976 L0.005962250000000502,0.005086499999999106" fill="none" stroke="black" stroke-width="0.02" stroke-linecap="round" stroke-linejoin="round" />
    <path d="M-0.48740705000000073,0.09299450000000142 L-0.17310075000000058,0.09299450000000142" fill="none" stroke="black" stroke-width="0.02" stroke-linecap="round" stroke-linejoin="round" />
    <path d="M-0.16008695000000017,0.010660500000000184 L0.1719709499999995,0.010660500000000184" fill="none" stroke="black" stroke-width="0.02" stroke-linecap="round" stroke-linejoin="round" />
    <path d="M0.1954987499999996,0.09260549999999945 L0.4881436499999996,0.09260549999999945" fill="none" stroke="black" stroke-width="0.02" stroke-linecap="round" stroke-linejoin="round" />
    <path d="M-0.09950044999999985,-0.05839450000000035 L-0.09950044999999985,-0.05839450000000035 L-0.09949990606666652,-0.058752334296296595 L-0.09949815453333317,-0.05910984103703728 L-0.09949519579999984,-0.05946702600000021 L-0.09949103026666649,-0.059823894962963114 L-0.09948565833333314,-0.060180453703703805 L-0.09947908039999981,-0.06053670800000006 L-0.09947129686666646,-0.06089266362962963 L-0.09946230813333314,-0.06124832637037033 L-0.09945211459999972,-0.0616037019999999 L-0.09944071666666643,-0.061958796296296165 L-0.09942811473333305,-0.06231361503703685 L-0.09941430919999975,-0.06266816399999979 L-0.09939930046666635,-0.06302244896296268 L-0.09938308893333307,-0.06337647570370342 L-0.09936567499999968,-0.06373024999999964 L-0.09934705906666637,-0.06408377762962925 L-0.09932724153333305,-0.06443706437036995 L-0.09930622279999972,-0.06479011599999955 L-0.09928400326666637,-0.0651429382962958 L-0.09926058333333304,-0.0654955370370365 L-0.09923596339999971,-0.06584791799999944 L-0.09921014386666638,-0.06620008696296237 L-0.09918312513333306,-0.06655204970370308 L-0.09915490759999973,-0.06690381199999935 L-0.09912549166666641,-0.06725537962962895 L-0.0990948777333331,-0.06760675837036965 L-0.0990630661999998,-0.06795795399999927 L-0.09903005746666647,-0.06830897229629554 L-0.09899585193333316,-0.06865981903703625 L-0.09896044999999987,-0.0690104999999992 L-0.09896044999999987,-0.0690104999999992 L-0.09896044999999987,-0.0690104999999992 L-0.09892385048148139,-0.0693592999629621 L-0.09888605385185179,-0.06970769970370277 L-0.09884706299999997,-0.07005569899999903 L-0.0988068808148148,-0.0704032976296286 L-0.0987655101851852,-0.07075049537036929 L-0.09872295400000003,-0.07109729199999888 L-0.0986792151481482,-0.07144368729629512 L-0.0986342965185186,-0.07178968103703584 L-0.09858820100000006,-0.07213527299999874 L-0.09854093148148158,-0.07248046296296168 L-0.09849249085185192,-0.07282525070370238 L-0.09844288200000012,-0.07316963599999869 L-0.0983921078148149,-0.07351361862962827 L-0.09834017118518532,-0.07385719837036904 L-0.09828707500000008,-0.07420037499999865 L-0.09823282214814825,-0.07454314829629495 L-0.09817741551851863,-0.0748855180370357 L-0.09812085800000013,-0.07522748399999869 L-0.09806315248148159,-0.07556904596296166 L-0.09800430185185197,-0.07591020370370244 L-0.09794430900000009,-0.07625095699999876 L-0.0978831768148149,-0.07659130562962843 L-0.09782090818518527,-0.07693124937036923 L-0.09775750600000008,-0.07727078799999892 L-0.09769297314814819,-0.07760992129629526 L-0.09762731251851854,-0.07794864903703608 L-0.09756052700000001,-0.07828697099999912 L-0.09749261948148148,-0.07862488696296217 L-0.09742359285185183,-0.07896239670370302 L-0.09735344999999995,-0.07929949999999941 L-0.09735344999999995,-0.07929949999999941 L-0.09735344999999995,-0.07929949999999941 L-0.09728100511111111,-0.07963543074074021 L-0.0972076642222223,-0.07997121259259213 L-0.09713341800000012,-0.08030682999999961 L-0.09705825711111128,-0.08064226740740704 L-0.09698217222222243,-0.08097750925925896 L-0.09690515400000026,-0.08131253999999974 L-0.09682719311111138,-0.08164734407407384 L-0.09674828022222255,-0.08198190592592572 L-0.0966684060000003,-0.08231620999999976 L-0.09658756111111147,-0.08265024074074055 L-0.09650573622222255,-0.08298398259259239 L-0.0964229220000004,-0.08331741999999982 L-0.09633910911111147,-0.08365053740740719 L-0.09625428822222262,-0.08398331925925909 L-0.09616845000000038,-0.0843157499999998 L-0.09608158511111152,-0.08464781407407386 L-0.09599368422222265,-0.08497949592592569 L-0.09590473800000043,-0.08531077999999975 L-0.09581473711111155,-0.08564165074074047 L-0.09572367222222267,-0.0859720925925923 L-0.09563153400000043,-0.08630208999999966 L-0.09553831311111156,-0.08663162740740704 L-0.09544400022222269,-0.08696068925925887 L-0.09534858600000046,-0.08728925999999958 L-0.09525206111111159,-0.0876173240740736 L-0.0951544162222227,-0.08794486592592542 L-0.0950556420000005,-0.08827186999999945 L-0.09495572911111162,-0.08859832074074014 L-0.09485466822222273,-0.08892420259259196 L-0.09475245000000054,-0.08924949999999932 L-0.09475245000000054,-0.08924949999999932 L-0.09475245000000054,-0.08924949999999932 L-0.09465550062963017,-0.08957987296296219 L-0.09455668170370425,-0.08990901703703619 L-0.09445603700000052,-0.09023696999999911 L-0.09435361029629681,-0.09056376962962867 L-0.09424944537037086,-0.0908894537037027 L-0.09414358600000049,-0.09121405999999897 L-0.09403607596296346,-0.09153762629629524 L-0.09392695903703752,-0.09186019037036931 L-0.0938162790000004,-0.0921817899999989 L-0.09370407962963005,-0.0925024629629619 L-0.09359040470370408,-0.09282224703703597 L-0.0934752980000004,-0.09314117999999899 L-0.09335880329629663,-0.09345929962962862 L-0.09324096437037073,-0.0937766437037028 L-0.09312182500000031,-0.0940932499999991 L-0.09300142896296328,-0.09440915629629548 L-0.0928798200370373,-0.09472440037036964 L-0.09275704200000026,-0.09503901999999938 L-0.09263313862962987,-0.09535305296296241 L-0.09250815370370391,-0.09566653703703658 L-0.09238213100000017,-0.09597950999999964 L-0.09225511429629643,-0.09629200962962939 L-0.09212714737037049,-0.0966040737037036 L-0.09199827400000009,-0.09691574000000001 L-0.09186853796296301,-0.09722704629629644 L-0.09173798303703706,-0.09753803037037065 L-0.09160665299999998,-0.09784873000000043 L-0.09147459162962959,-0.09815918296296355 L-0.09134184270370362,-0.09846942703703776 L-0.09120844999999989,-0.09877950000000091 L-0.09120844999999989,-0.09877950000000091 L-0.09120844999999989,-0.09877950000000091 L-0.09107381862962949,-0.09908839555555647 L-0.09093831903703689,-0.09939706444444538 L-0.09080194299999986,-0.09970548000000094 L-0.09066468229629616,-0.10001361555555646 L-0.09052652870370356,-0.10032144444444531 L-0.09038747399999986,-0.10062894000000082 L-0.09024750996296282,-0.10093607555555631 L-0.09010662837037026,-0.10124282444444514 L-0.08996482099999985,-0.10154916000000058 L-0.08982207962962953,-0.10185505555555609 L-0.08967839603703692,-0.10216048444444485 L-0.08953376199999995,-0.10246542000000036 L-0.08938816929629623,-0.10276983555555579 L-0.08924160970370369,-0.10307370444444461 L-0.08909407499999998,-0.10337700000000002 L-0.088945556962963,-0.10367969555555549 L-0.08879604737037042,-0.1039817644444443 L-0.0886455380000001,-0.10428317999999975 L-0.08849402062962974,-0.1045839155555552 L-0.08834148703703718,-0.10488394444444399 L-0.08818792900000016,-0.10518323999999946 L-0.0880333382962965,-0.10548177555555491 L-0.08787770670370396,-0.10577952444444373 L-0.08772102600000029,-0.10607645999999922 L-0.08756328796296328,-0.1063725555555547 L-0.08740448437037071,-0.10666778444444354 L-0.08724460700000039,-0.10696211999999905 L-0.08708364762963006,-0.10725553555555457 L-0.08692159803703749,-0.10754800444444343 L-0.08675845000000049,-0.10783949999999898 L-0.08675845000000049,-0.10783949999999898 L-0.08675845000000049,-0.10783949999999898 L-0.08658876522222271,-0.10812565999999915 L-0.08641889177777828,-0.10841211333333266 L-0.0862488010000005,-0.1086988199999995 L-0.08607846422222272,-0.10898573999999964 L-0.08590785277777827,-0.1092728333333331 L-0.08573693800000047,-0.10956005999999988 L-0.08556569122222268,-0.10984738 L-0.08539408377777823,-0.11013475333333342 L-0.08522208700000039,-0.1104221400000001 L-0.08504967222222261,-0.11070950000000021 L-0.08487681077777814,-0.11099679333333355 L-0.08470347400000036,-0.1112839800000003 L-0.08452963322222252,-0.11157102000000027 L-0.0843552597777781,-0.11185787333333366 L-0.08418032500000026,-0.11214450000000029 L-0.08400480022222248,-0.1124308600000003 L-0.08382865677777801,-0.11271691333333358 L-0.08365186600000021,-0.11300262000000022 L-0.08347439922222243,-0.11328794000000017 L-0.08329622777777795,-0.11357283333333343 L-0.08311732300000016,-0.11385725999999999 L-0.08293765622222236,-0.1141411799999999 L-0.0827571987777779,-0.11442455333333312 L-0.08257592200000013,-0.11470733999999967 L-0.08239379722222234,-0.11498949999999952 L-0.0822107957777779,-0.11527099333333268 L-0.08202688900000012,-0.11555177999999917 L-0.08184204822222235,-0.115831819999999 L-0.08165624477777793,-0.11611107333333213 L-0.08146945000000017,-0.11638949999999859 L-0.08146945000000017,-0.11638949999999859 L-0.08146945000000017,-0.11638949999999859 L-0.08128019933333351,-0.1166670377777765 L-0.08108987133333352,-0.11694366888888771 L-0.0808985020000002,-0.11721941999999895 L-0.08070612733333356,-0.11749431777777683 L-0.08051278333333356,-0.11776838888888802 L-0.08031850600000026,-0.11804165999999923 L-0.0801233313333336,-0.11831415777777707 L-0.07992729533333363,-0.11858590888888824 L-0.0797304340000003,-0.11885693999999934 L-0.07953278333333368,-0.11912727777777721 L-0.07933437933333366,-0.11939694888888833 L-0.07913525800000037,-0.11966597999999949 L-0.07893545533333371,-0.11993439777777727 L-0.07873500733333375,-0.12020222888888846 L-0.07853395000000041,-0.12046949999999954 L-0.07833231933333376,-0.12073623777777735 L-0.07813015133333376,-0.12100246888888848 L-0.07792748200000042,-0.12126821999999962 L-0.07772434733333376,-0.12153351777777739 L-0.07752078333333375,-0.1217983888888885 L-0.0773168260000004,-0.1220628599999996 L-0.07711251133333372,-0.12232695777777741 L-0.07690787533333368,-0.12259070888888852 L-0.07670295400000032,-0.12285413999999964 L-0.0764977833333336,-0.12311727777777742 L-0.07629239933333357,-0.12338014888888856 L-0.07608683800000017,-0.12364277999999967 L-0.07588113533333343,-0.12390519777777748 L-0.07567532733333336,-0.1241674288888886 L-0.07546944999999994,-0.12442949999999975 L-0.07546944999999994,-0.12442949999999975 L-0.07546944999999994,-0.12442949999999975 L-0.0752484181481481,-0.12468049518518501 L-0.07502730185185183,-0.12493146148148139 L-0.07480607,-0.12518236999999996 L-0.07458469148148149,-0.1254331918518518 L-0.0743631351851852,-0.12568389814814812 L-0.07414137000000003,-0.12593445999999994 L-0.07391936481481486,-0.12618484851851844 L-0.07369708851851857,-0.12643503481481472 L-0.07347451000000002,-0.1266849899999998 L-0.0732515981481482,-0.12693468518518497 L-0.07302832185185187,-0.12718409148148116 L-0.07280465000000005,-0.12743317999999967 L-0.0725805514814815,-0.12768192185185143 L-0.07235599518518523,-0.12793028814814772 L-0.07213095000000003,-0.12817824999999947 L-0.07190538481481484,-0.12842577851851797 L-0.07167926851851852,-0.12867284481481422 L-0.07145257,-0.12891941999999937 L-0.07122525814814815,-0.12916547518518454 L-0.07099730185185182,-0.1294109814814808 L-0.07076866999999995,-0.12965590999999932 L-0.07053933148148142,-0.12990023185185118 L-0.0703092551851851,-0.13014391814814752 L-0.07007840999999991,-0.13038693999999945 L-0.0698467648148147,-0.13062926851851803 L-0.06961428851851838,-0.1308708748148144 L-0.06938094999999983,-0.1311117299999997 L-0.06914671814814796,-0.13135180518518505 L-0.06891156185185163,-0.13159107148148153 L-0.06867544999999975,-0.13182950000000027 L-0.06867544999999975,-0.13182950000000027 L-0.06867544999999975,-0.13182950000000027 L-0.06843639462962942,-0.13206319666666697 L-0.06819662037037016,-0.1322962733333336 L-0.06795611499999983,-0.1325287100000003 L-0.06771486629629615,-0.13276048666666693 L-0.0674728620370369,-0.13299158333333358 L-0.06723008999999988,-0.13322198000000027 L-0.06698653796296285,-0.13345165666666683 L-0.06674219370370361,-0.1336805933333335 L-0.06649704499999987,-0.13390877000000007 L-0.06625107962962953,-0.13413616666666672 L-0.06600428537037024,-0.1343627633333333 L-0.0657566499999999,-0.13458853999999998 L-0.06550816129629618,-0.13481347666666654 L-0.06525880703703696,-0.1350375533333332 L-0.06500857499999989,-0.1352607499999998 L-0.06475745296296287,-0.13548304666666644 L-0.0645054287037036,-0.13570442333333307 L-0.06425248999999991,-0.13592485999999976 L-0.06399862462962953,-0.1361443366666664 L-0.06374382037037028,-0.13636283333333302 L-0.0634880649999999,-0.1365803299999997 L-0.0632313462962962,-0.13679680666666638 L-0.06297365203703696,-0.1370122433333331 L-0.06271496999999993,-0.1372266199999998 L-0.0624552879629629,-0.1374399166666665 L-0.06219459370370366,-0.13765211333333324 L-0.06193287499999997,-0.13786319 L-0.06167011962962962,-0.13807312666666677 L-0.061406315370370376,-0.13828190333333357 L-0.06114145000000004,-0.13848950000000038 L-0.06114145000000004,-0.13848950000000038 L-0.06114145000000004,-0.13848950000000038 L-0.060876078111111176,-0.13869739481481513 L-0.06061074155555565,-0.1389050585185188 L-0.06034540900000012,-0.13911246000000024 L-0.060080049111111256,-0.1393195681481484 L-0.05981463055555572,-0.13952635185185205 L-0.05954912200000019,-0.13973278000000017 L-0.05928349211111131,-0.13993882148148162 L-0.059017709555555777,-0.14014444518518532 L-0.0587517430000002,-0.14034962000000006 L-0.05848556111111134,-0.14055431481481492 L-0.05821913255555579,-0.1407584985185186 L-0.05795242600000026,-0.14096214000000012 L-0.057685410111111356,-0.14116520814814823 L-0.05741805355555583,-0.141367671851852 L-0.057150325000000265,-0.1415695000000001 L-0.056882193111111395,-0.1417706614814816 L-0.05661362655555585,-0.14197112518518532 L-0.05634459400000031,-0.14217086000000018 L-0.05607506411111143,-0.142369834814815 L-0.05580500555555588,-0.1425680185185187 L-0.05553438700000034,-0.1427653800000002 L-0.05526317711111145,-0.14296188814814836 L-0.05499134455555592,-0.14315751185185208 L-0.05471885800000038,-0.14335222000000022 L-0.054445686111111495,-0.1435459814814817 L-0.054171797555555956,-0.1437387651851854 L-0.053897161000000415,-0.14393054000000022 L-0.053621745111111556,-0.14412127481481507 L-0.05334551855555601,-0.14431093851851873 L-0.05306845000000049,-0.14449950000000022 L-0.05306845000000049,-0.14449950000000022 L-0.05306845000000049,-0.14449950000000022 L-0.05279051744444495,-0.14468890148148178 L-0.05251172288888942,-0.14487711185185229 L-0.05223207100000054,-0.14506414000000048 L-0.05195156644444498,-0.14524999481481538 L-0.05167021388888941,-0.14543468518518585 L-0.05138801800000052,-0.14561822000000074 L-0.051104983444444946,-0.14580060814814894 L-0.05082111488888937,-0.1459818585185194 L-0.05053641700000044,-0.14616198000000086 L-0.05025089444444487,-0.14634098148148242 L-0.049964551888889264,-0.14651887185185275 L-0.04967739400000036,-0.14669566000000098 L-0.04938942544444476,-0.14687135481481575 L-0.04910065088888919,-0.14704596518518617 L-0.048811075000000245,-0.14721950000000095 L-0.048520702444444674,-0.1473919681481491 L-0.04822953788888908,-0.1475633785185194 L-0.04793758600000018,-0.14773374000000083 L-0.047644851444444594,-0.14790306148148222 L-0.04735133888888902,-0.14807135185185252 L-0.04705705300000012,-0.14823862000000054 L-0.04676199844444455,-0.14840487481481524 L-0.046466179888888993,-0.14857012518518548 L-0.04616960200000011,-0.14873438000000014 L-0.04587226944444456,-0.1488976481481481 L-0.04557418688888902,-0.1490599385185183 L-0.045275359000000154,-0.14922125999999955 L-0.044975790444444635,-0.1493816214814808 L-0.04467548588888912,-0.1495410318518509 L-0.04437445000000029,-0.14969949999999876 L-0.04437445000000029,-0.14969949999999876 L-0.04437445000000029,-0.14969949999999876 L-0.04407173203703729,-0.14986090222222107 L-0.04376895962962986,-0.1500211177777767 L-0.043466105000000206,-0.15018015999999898 L-0.04316314037037055,-0.15033804222222125 L-0.04286003796296312,-0.15049477777777684 L-0.04255677000000013,-0.15065037999999908 L-0.04225330870370382,-0.1508048622222213 L-0.0419496262962964,-0.1509582377777769 L-0.04164569500000007,-0.15111051999999905 L-0.041341487037037106,-0.15126172222222134 L-0.04103697462962968,-0.15141185777777683 L-0.04073213000000007,-0.15156093999999912 L-0.040426925370370424,-0.1517089822222213 L-0.04012133296296303,-0.1518559977777769 L-0.03981532500000007,-0.15200199999999908 L-0.039508873703703776,-0.1521470022222213 L-0.03920195129629638,-0.15229101777777687 L-0.03889453000000011,-0.15243405999999912 L-0.03858658203703716,-0.15257614222222132 L-0.03827807962962977,-0.1527172777777769 L-0.03796899500000017,-0.15285747999999916 L-0.03765930037037057,-0.15299676222222142 L-0.03734896796296319,-0.15313513777777701 L-0.03703797000000027,-0.1532726199999993 L-0.03672627870370401,-0.1534092222222216 L-0.03641386629629664,-0.1535449577777772 L-0.03610070500000039,-0.15367983999999954 L-0.03578676703703748,-0.1538138822222219 L-0.03547202462963013,-0.15394709777777754 L-0.03515645000000056,-0.15407949999999992 L-0.03515645000000056,-0.15407949999999992 L-0.03515645000000056,-0.15407949999999992 L-0.03484471496296346,-0.1542081640740741 L-0.03453192970370415,-0.154336145925926 L-0.034218124000000405,-0.15446343000000015 L-0.03390332762963,-0.15459000074074097 L-0.033587570370370703,-0.15471584259259288 L-0.03327088200000031,-0.15484094000000032 L-0.032953292296296594,-0.1549652774074078 L-0.03263483103703732,-0.15508883925925962 L-0.032315528000000274,-0.1552116100000003 L-0.031995412962963245,-0.15533357407407444 L-0.03167451570370398,-0.15545471592592622 L-0.03135286600000029,-0.15557502000000037 L-0.031030493629629927,-0.15569447074074097 L-0.030707428370370705,-0.15581305259259287 L-0.030383700000000343,-0.1559307500000002 L-0.030059338296296673,-0.1560475474074076 L-0.029734373037037437,-0.15616342925925938 L-0.029408834000000435,-0.15627838000000008 L-0.02908275096296343,-0.15639238407407408 L-0.028756153703704206,-0.15650542592592584 L-0.028429072000000534,-0.15661748999999986 L-0.028101535629630203,-0.15672856074074049 L-0.027773574370370983,-0.15683862259259226 L-0.027445218000000653,-0.15694765999999957 L-0.027116496296296984,-0.15705565740740685 L-0.026787439037037765,-0.15716259925925863 L-0.026458076000000764,-0.15726846999999924 L-0.026128436962963762,-0.15737325407407318 L-0.025798551703704535,-0.15747693592592493 L-0.025468450000000867,-0.15757949999999887 L-0.025468450000000864,-0.15757949999999887 L-0.025468450000000864,-0.15757949999999887 L-0.02513529428888973,-0.15768460666666576 L-0.024802017644445267,-0.15778795333333262 L-0.024468605800000796,-0.15788957999999947 L-0.024135044488889656,-0.15798952666666627 L-0.02380131944444518,-0.15808783333333307 L-0.023467416400000704,-0.15818453999999976 L-0.02313332108888956,-0.15827968666666647 L-0.022799019244445082,-0.1583733133333332 L-0.02246449660000059,-0.15846545999999978 L-0.02212973888888945,-0.1585561666666665 L-0.02179473184444496,-0.15864547333333306 L-0.021459461200000484,-0.1587334199999997 L-0.02112391268888933,-0.15882004666666624 L-0.020788072044444855,-0.15890539333333292 L-0.020451925000000367,-0.15898949999999942 L-0.020115457288889225,-0.15907240666666603 L-0.019778654644444744,-0.15915415333333258 L-0.019441502800000267,-0.15923477999999916 L-0.019103987488889123,-0.1593143266666657 L-0.018766094444444645,-0.15939283333333223 L-0.018427809400000175,-0.1594703399999988 L-0.018089118088889036,-0.15954688666666536 L-0.017750006244444567,-0.15962251333333194 L-0.0174104596000001,-0.1596972599999985 L-0.017070463888888974,-0.15977116666666508 L-0.016730004844444514,-0.1598442733333317 L-0.016389068200000058,-0.1599166199999983 L-0.01604763968888894,-0.15998824666666495 L-0.015705705044444494,-0.16005919333333157 L-0.015363250000000052,-0.16012949999999826 L-0.01536325000000005,-0.16012949999999826 L-0.01536325000000005,-0.16012949999999826 L-0.01502443857037039,-0.1601991277777762 L-0.01468462522962963,-0.16026798888888752 L-0.014343841399999984,-0.1603360499999988 L-0.014002118503703679,-0.1604032777777767 L-0.01365948796296294,-0.1604696388888879 L-0.013315981199999983,-0.16053509999999913 L-0.012971629637037033,-0.16059962777777695 L-0.01262646469629631,-0.16066318888888817 L-0.012280517800000028,-0.16072574999999928 L-0.011933820370370423,-0.16078727777777715 L-0.011586403829629704,-0.16084773888888823 L-0.011238299600000107,-0.16090709999999941 L-0.010889539103703832,-0.16096532777777717 L-0.010540153762963128,-0.16102238888888834 L-0.010190175000000188,-0.1610782499999994 L-0.009839634237037254,-0.16113287777777718 L-0.00948856289629654,-0.1611862388888883 L-0.009136992400000269,-0.1612382999999994 L-0.008784954170370658,-0.16128902777777715 L-0.008432479629629935,-0.16133838888888824 L-0.008079600200000316,-0.1613863499999993 L-0.007726347303704026,-0.16143287777777704 L-0.007372752362963288,-0.16147793888888815 L-0.00701884680000032,-0.16152149999999924 L-0.006664662037037344,-0.16156352777777697 L-0.006310229496296582,-0.16160398888888805 L-0.005955580600000256,-0.16164284999999914 L-0.005600746770370587,-0.1616800777777769 L-0.005245759429629797,-0.16171563888888799 L-0.004890650000000108,-0.1617494999999991 L-0.004890650000000107,-0.1617494999999991 L-0.004890650000000107,-0.1617494999999991 L-0.004535506462963096,-0.16177883703703588 L-0.004180075037037193,-0.1618068629629616 L-0.0038243545000001735,-0.1618335999999985 L-0.003468343629629817,-0.16185907037036873 L-0.0031120412037039013,-0.16188329629629447 L-0.002755446000000206,-0.1619062999999981 L-0.0023985567962965075,-0.16192810370370167 L-0.0020413723703705845,-0.16194872962962756 L-0.0016838915000002143,-0.1619681999999978 L-0.0013261129629631777,-0.1619865370370348 L-0.0009680355370372491,-0.16200376296296065 L-0.0006096580000002099,-0.16201989999999775 L-0.0002509791296298353,-0.16203497037036804 L0.00010800229629609362,-0.16204899629629405 L0.0004672874999998018,-0.16206199999999768 L0.0008268777037035096,-0.16207400370370145 L0.0011867741296294383,-0.16208502962962737 L0.001546977999999811,-0.1620950999999978 L0.0019074905370368486,-0.16210423703703486 L0.002268312962962774,-0.16211246296296083 L0.0026294464999998077,-0.1621197999999979 L0.002990892370370173,-0.1621262703703683 L0.003352651796296092,-0.16213189629629426 L0.0037147259999997847,-0.16213669999999802 L0.004077116203703475,-0.16214070370370176 L0.004439823629629384,-0.16214392962962773 L0.004802849499999733,-0.16214639999999814 L0.005166195037036745,-0.16214813703703518 L0.005529861462962641,-0.1621491629629611 L0.005893849999999644,-0.16214949999999817 L0.005893849999999645,-0.16214949999999817 L0.005893849999999645,-0.16214949999999817 L0.0062578193814810425,-0.16214916296296109 L0.006621525051851341,-0.16214813703703523 L0.006984963299999428,-0.16214639999999814 L0.00734813041481419,-0.16214392962962776 L0.007711022685184516,-0.1621407037037018 L0.008073636399999296,-0.16213669999999805 L0.008435967848147414,-0.16213189629629432 L0.008798013318517766,-0.16212627037036836 L0.00915976909999923,-0.1621197999999979 L0.009521231481480706,-0.16211246296296083 L0.009882396751851071,-0.16210423703703483 L0.010243261199999226,-0.1620950999999978 L0.010603821114814045,-0.16208502962962734 L0.010964072785184431,-0.16207400370370145 L0.011324012499999255,-0.16206199999999768 L0.011683636548147424,-0.162048996296294 L0.012042941218517815,-0.16203497037036807 L0.01240192279999932,-0.16201989999999772 L0.012760577581480824,-0.1620037629629607 L0.01311890185185122,-0.1619865370370348 L0.01347689189999939,-0.1619681999999978 L0.01383454401481423,-0.1619487296296275 L0.014191854485184625,-0.16192810370370167 L0.01454881959999946,-0.16190629999999806 L0.014905435648147627,-0.16188329629629447 L0.015261698918518016,-0.16185907037036867 L0.015617605699999513,-0.16183359999999847 L0.015973152281481006,-0.16180686296296162 L0.016328334951851382,-0.16177883703703588 L0.016683149999999532,-0.1617494999999991 L0.016683149999999536,-0.1617494999999991 L0.016683149999999536,-0.1617494999999991 L0.01703777605925874,-0.16171915111111027 L0.01739205180740684,-0.16168804222222144 L0.017745973599999392,-0.16165607999999929 L0.018099537792591946,-0.16162317111111044 L0.018452740740740055,-0.16158922222222158 L0.018805578799999285,-0.1615541399999994 L0.01915804832592518,-0.16151783111111048 L0.019510145674073307,-0.16148020222222165 L0.019861867199999206,-0.1614411599999993 L0.020213209259258454,-0.16140061111111048 L0.020564168207406582,-0.16135846222222153 L0.02091474039999917,-0.16131461999999933 L0.021264922192591747,-0.16126899111111034 L0.021614709940739902,-0.1612214822222215 L0.02196409999999915,-0.16117199999999918 L0.02231308872592508,-0.16112045111111026 L0.022661672474073226,-0.1610667422222213 L0.023009847599999165,-0.16101077999999908 L0.023357610459258427,-0.16095247111111013 L0.023704957407406583,-0.16089172222222117 L0.024051884799999187,-0.16082843999999885 L0.024398388992591794,-0.16076253111110994 L0.024744466340739957,-0.16069390222222096 L0.02509011319999923,-0.1606224599999987 L0.02543532592592517,-0.16054811111110973 L0.025780100874073335,-0.16047076222222076 L0.026124434399999282,-0.16039031999999848 L0.02646832285925856,-0.1603066911111095 L0.02681176260740672,-0.16021978222222055 L0.027154749999999336,-0.16012949999999826 L0.02715474999999934,-0.16012949999999826 L0.02715474999999934,-0.16012949999999826 L0.027496992377777106,-0.16006866703703543 L0.02783891568888821,-0.1600061696296282 L0.02818051419999932,-0.15994200999999866 L0.028521782177777098,-0.15987619037036913 L0.02886271388888821,-0.15980871296296184 L0.029203303599999328,-0.159739579999999 L0.029543545577777115,-0.15966879370370274 L0.02988343408888824,-0.15959635629629548 L0.03022296339999935,-0.15952226999999922 L0.030562127777777153,-0.15944653703703637 L0.030900921488888275,-0.15936915962962897 L0.031239338799999423,-0.15929013999999947 L0.03157737397777721,-0.15920948037036986 L0.031915021288888366,-0.15912718296296258 L0.03225227499999949,-0.1590432499999996 L0.03258912937777731,-0.1589576837037034 L0.03292557868888845,-0.15887048629629605 L0.0332616171999996,-0.1587816599999998 L0.03359723917777742,-0.15869120703703687 L0.03393243888888856,-0.1585991296296295 L0.034267210599999716,-0.15850542999999992 L0.03460154857777753,-0.15841011037037034 L0.034935447088888696,-0.158313172962963 L0.03526890039999985,-0.15821462000000006 L0.03560190277777767,-0.15811445370370378 L0.03593444848888883,-0.1580126762962964 L0.036266531799999994,-0.15790929000000015 L0.03659814697777783,-0.15780429703703722 L0.03692928828888899,-0.15769769962962984 L0.03725995000000015,-0.15758950000000027 L0.03725995000000015,-0.15758950000000027 L0.03725995000000015,-0.15758950000000027 L0.03759049655555567,-0.1574833274074076 L0.03792053577777786,-0.15737678592592608 L0.03825006700000005,-0.1572698400000001 L0.03857908955555558,-0.15716245407407406 L0.03890760277777776,-0.15705459259259255 L0.03923560599999996,-0.1569462199999999 L0.039563098555555475,-0.1568373007407406 L0.03989007977777767,-0.15672779925925906 L0.040216548999999845,-0.1566176799999997 L0.040542505555555386,-0.1565069074074071 L0.040867948777777566,-0.15639544592592555 L0.04119287799999977,-0.15628325999999965 L0.041517292555555294,-0.1561703140740736 L0.041841191777777516,-0.1560565725925922 L0.042164574999999704,-0.15594199999999958 L0.04248744155555524,-0.15582656074074033 L0.04280979077777745,-0.15571021925925882 L0.043131621999999654,-0.15559293999999962 L0.0434529345555552,-0.15547468740740708 L0.0437737277777774,-0.15535542592592563 L0.04409400099999962,-0.15523511999999978 L0.044413753555555165,-0.15511373407407392 L0.04473298477777739,-0.1549912325925925 L0.04505169399999961,-0.15486758000000003 L0.04536988055555516,-0.15474274074074088 L0.04568754377777739,-0.15461667925925954 L0.046004682999999616,-0.1544893600000004 L0.04632129755555518,-0.154360747407408 L0.046637386777777415,-0.15423080592592667 L0.04695294999999966,-0.15409950000000094 L0.04695294999999966,-0.15409950000000094 L0.04695294999999966,-0.15409950000000094 L0.04726765166666629,-0.15396983740740824 L0.0475819499999996,-0.1538388659259267 L0.04789583499999957,-0.15370661000000072 L0.04820929666666621,-0.1535730940740747 L0.04852232499999952,-0.15343834259259312 L0.048834909999999516,-0.1533023800000005 L0.04914704166666616,-0.15316523074074118 L0.04945870999999948,-0.15302691925925963 L0.04976990499999946,-0.15288747000000025 L0.05008061666666613,-0.15274690740740765 L0.05039083499999944,-0.1526052559259261 L0.050700549999999456,-0.1524625400000002 L0.0510097516666661,-0.15231878407407415 L0.05131842999999946,-0.15217401259259272 L0.05162657499999944,-0.1520282500000001 L0.051934176666666124,-0.1518815207407408 L0.052241224999999454,-0.1517338492592593 L0.05254770999999947,-0.15158526000000008 L0.05285362166666613,-0.1514357774074075 L0.05315894999999947,-0.15128542592592603 L0.053463684999999476,-0.15113423000000015 L0.053767816666666135,-0.15098221407407425 L0.054071334999999485,-0.1508294025925928 L0.05437422999999948,-0.1506758200000003 L0.054676491666666154,-0.15052149074074106 L0.05497810999999948,-0.15036643925925966 L0.055279074999999483,-0.15021069000000048 L0.05557937666666615,-0.150054267407408 L0.055879004999999475,-0.1498971959259266 L0.05617794999999948,-0.1497395000000008 L0.05617794999999948,-0.1497395000000008 L0.05617794999999948,-0.1497395000000008 L0.05647655314814765,-0.14957716592592682 L0.05677456185185139,-0.14941416074074174 L0.05707197499999957,-0.14925048000000105 L0.05736879148148106,-0.1490861192592604 L0.05766501018518477,-0.14892107407407523 L0.05796062999999962,-0.14875534000000123 L0.058255649814814424,-0.14858891259259385 L0.05855006851851814,-0.14842178740740872 L0.05884388499999959,-0.14825396000000127 L0.05913709814814776,-0.14808542592592724 L0.059429706851851435,-0.14791618074074206 L0.0597217099999996,-0.14774622000000137 L0.06001310648148105,-0.1475755392592606 L0.06030389518518479,-0.1474041340740755 L0.06059407499999957,-0.14723200000000136 L0.0608836448148144,-0.14705913259259396 L0.06117260351851809,-0.14688552740740876 L0.06146094999999958,-0.14671118000000138 L0.061748683148147715,-0.1465360859259273 L0.062035801851851424,-0.1463602407407421 L0.06232230499999957,-0.14618364000000136 L0.06260819148148106,-0.14600627925926063 L0.06289346018518478,-0.14582815407407546 L0.06317810999999962,-0.1456492600000014 L0.06346213981481444,-0.14546959259259395 L0.06374554851851817,-0.1452891474074088 L0.06402833499999969,-0.14510792000000142 L0.06431049814814788,-0.14492590592592736 L0.06459203685185161,-0.1447431007407422 L0.0648729499999998,-0.1445595000000015 L0.06487294999999982,-0.1445595000000015 L0.06487294999999982,-0.1445595000000015 L0.06515246270370355,-0.1443730340740757 L0.06543139829629617,-0.14418563925926098 L0.06570975299999991,-0.14399732000000182 L0.06598752303703695,-0.1438080807407426 L0.06626470462962958,-0.14361792592592787 L0.06654129399999997,-0.14342686000000202 L0.06681728737037032,-0.14323488740740947 L0.06709268096296293,-0.14304201259259472 L0.06736747099999994,-0.1428482400000021 L0.06764165370370367,-0.14265357407407625 L0.06791522529629625,-0.14245801925926138 L0.06818818199999997,-0.1422615800000022 L0.06846052003703698,-0.1420642607407429 L0.0687322356296296,-0.14186606592592815 L0.06900332499999993,-0.14166700000000218 L0.06927378437037031,-0.1414670674074096 L0.06954360996296288,-0.14126627259259478 L0.06981279799999991,-0.14106462000000222 L0.0700813447037036,-0.14086211407407628 L0.07034924629629616,-0.14065875925926147 L0.07061649899999985,-0.1404545600000022 L0.07088309903703686,-0.14024952074074293 L0.07114904262962943,-0.14004364592592813 L0.07141432599999978,-0.13983694000000219 L0.07167894537037012,-0.1396294074074096 L0.07194289696296267,-0.1394210525925948 L0.07220617699999968,-0.13921188000000223 L0.07246878170370336,-0.13900189407407632 L0.07273070729629591,-0.13879109925926153 L0.07299194999999958,-0.1385795000000023 L0.07299194999999958,-0.1385795000000023 L0.07299194999999958,-0.1385795000000023 L0.07325246044444408,-0.13836706851852085 L0.07351219355555523,-0.13815378148148386 L0.07377115199999972,-0.1379396500000024 L0.0740293384444442,-0.13772468518518763 L0.07428675555555532,-0.13750889814815057 L0.07454340599999977,-0.13729230000000248 L0.07479929244444423,-0.13707490185185434 L0.07505441755555536,-0.13685671481481732 L0.07530878399999978,-0.13663775000000244 L0.07556239444444425,-0.136418018518521 L0.07581525155555532,-0.13619753148148392 L0.0760673579999998,-0.13597630000000252 L0.0763187164444442,-0.13575433518518762 L0.07656932955555534,-0.13553164814815064 L0.07681919999999975,-0.13530825000000243 L0.0770683304444442,-0.1350841518518543 L0.07731672355555529,-0.13485936481481725 L0.07756438199999974,-0.13463390000000242 L0.07781130844444417,-0.1344077685185209 L0.07805750555555528,-0.13418098148148383 L0.07830297599999972,-0.13395355000000234 L0.07854772244444416,-0.13372548518518748 L0.07879174755555529,-0.1334967981481504 L0.07903505399999974,-0.13326750000000223 L0.07927764444444421,-0.13303760185185404 L0.07951952155555535,-0.13280711481481694 L0.07976068799999983,-0.13257605000000208 L0.08000114644444432,-0.13234441851852055 L0.08024089955555545,-0.13211223148148346 L0.08047994999999997,-0.13187950000000193 L0.08047994999999997,-0.13187950000000193 L0.08047994999999997,-0.13187950000000193 L0.08071943944444436,-0.1316450685185204 L0.08095810555555547,-0.13140978148148336 L0.0811959449999999,-0.13117365000000186 L0.08143295444444432,-0.130936685185187 L0.08166913055555544,-0.13069889814814994 L0.08190446999999988,-0.13046030000000178 L0.08213896944444433,-0.1302209018518536 L0.08237262555555545,-0.12998071481481654 L0.08260543499999988,-0.12973975000000162 L0.08283739444444435,-0.12949801851852014 L0.08306850055555547,-0.12925553148148303 L0.08329874999999995,-0.12901230000000158 L0.08352813944444437,-0.12876833518518668 L0.08375666555555554,-0.12852364814814968 L0.08398432499999997,-0.12827825000000145 L0.08421111444444443,-0.12803215185185332 L0.08443703055555554,-0.12778536481481625 L0.08466206999999999,-0.12753790000000145 L0.0848862294444444,-0.12728976851851992 L0.08510950555555552,-0.1270409814814829 L0.08533189499999994,-0.12679155000000142 L0.08555339444444435,-0.1265414851851866 L0.08577400055555542,-0.12629079814814959 L0.08599370999999982,-0.12603950000000144 L0.08621251944444419,-0.1257876018518533 L0.08643042555555523,-0.1255351148148163 L0.0866474249999996,-0.12528205000000153 L0.08686351444444394,-0.1250284185185201 L0.08707869055555494,-0.12477423148148309 L0.08729294999999926,-0.12451950000000167 L0.08729294999999926,-0.12451950000000167 L0.08729294999999926,-0.12451950000000167 L0.08750781385185111,-0.12426039518518688 L0.08772180748148073,-0.12400106148148322 L0.08793493399999924,-0.12374147000000178 L0.08814719651851775,-0.12348159185185364 L0.08835859814814738,-0.12322139814814996 L0.08856914199999923,-0.12296086000000184 L0.08877883118518443,-0.12269994851852034 L0.08898766881481407,-0.12243863481481665 L0.0891956579999992,-0.12217689000000177 L0.08940280185185108,-0.121914685185187 L0.0896091034814807,-0.12165199148148323 L0.08981456599999926,-0.12138878000000178 L0.09001919251851777,-0.12112502185185355 L0.09022298614814747,-0.12086068814814988 L0.0904259499999993,-0.12059575000000164 L0.09062808718518452,-0.12033017851852013 L0.09082940081481417,-0.12006394481481639 L0.0910298939999994,-0.11979702000000153 L0.0912295698518513,-0.11952937518518665 L0.09142843148148094,-0.11926098148148287 L0.09162648199999951,-0.11899181000000132 L0.09182372451851806,-0.11872183185185309 L0.09202016214814775,-0.11845101814814932 L0.09221579799999965,-0.11817934000000108 L0.09241063518518489,-0.1179067685185195 L0.09260467681481456,-0.11763327481481568 L0.09279792599999981,-0.11735883000000076 L0.09299038585185174,-0.11708340518518583 L0.09318205948148141,-0.116806971481482 L0.09337295000000001,-0.1165295000000004 L0.09337295000000001,-0.1165295000000004 L0.09337295000000001,-0.1165295000000004 L0.0937505943703703,-0.11597721907407438 L0.09412471829629616,-0.11542238592592617 L0.0944953079999998,-0.11486501500000022 L0.09486234970370347,-0.11430512074074094 L0.09522582962962933,-0.11374271759259277 L0.09558573399999964,-0.11317782000000022 L0.09594204903703664,-0.11261044240740764 L0.09629476096296255,-0.11204059925925956 L0.09664385599999951,-0.1114683050000003 L0.09698932037036988,-0.11089357407407449 L0.09733114029629576,-0.11031642092592638 L0.09766930199999947,-0.10973686000000057 L0.09800379170370312,-0.10915490574074137 L0.09833459562962907,-0.10857057259259335 L0.09866169999999938,-0.10798387500000081 L0.09898509103703644,-0.10739482740740836 L0.09930475496296236,-0.10680344425926029 L0.0996206779999994,-0.10620974000000113 L0.09993284637036975,-0.10561372907407528 L0.10024124629629566,-0.10501542592592719 L0.10054586399999935,-0.10441484500000134 L0.10084668570370306,-0.10381200074074215 L0.10114369762962898,-0.10320690759259406 L0.10143688599999934,-0.1025995800000015 L0.10172623703703637,-0.10199003240740892 L0.10201173696296228,-0.10137827925926077 L0.1022933719999993,-0.1007643350000015 L0.10257112837036966,-0.10014821407407554 L0.10284499229629557,-0.09952993092592732 L0.10311494999999926,-0.09890950000000133 L0.10311494999999926,-0.09890950000000132 L0.10311494999999926,-0.09890950000000132 L0.10324712851851783,-0.0986001674074087 L0.10337845814814753,-0.09829017259259387 L0.10350892999999944,-0.09797952000000126 L0.10363853518518465,-0.09766821407407529 L0.10376726481481433,-0.09735625925926049 L0.10389510999999955,-0.09704366000000121 L0.10402206185185144,-0.09673042074074194 L0.10414811148148112,-0.09641654592592712 L0.1042732499999996,-0.09610204000000114 L0.10439746851851818,-0.0957869074074086 L0.10452075814814778,-0.09547115259259376 L0.10464310999999969,-0.09515478000000119 L0.10476451518518484,-0.09483779407407525 L0.10488496481481452,-0.09452019925926049 L0.10500444999999967,-0.09420200000000122 L0.10512296185185155,-0.09388320074074198 L0.10524049148148115,-0.09356380592592721 L0.1053570299999997,-0.09324382000000132 L0.1054725685185182,-0.09292324740740877 L0.10558709814814782,-0.092602092592594 L0.10570060999999965,-0.09228036000000146 L0.10581309518518484,-0.09195805407407559 L0.10592454481481445,-0.09163517925926085 L0.10603494999999963,-0.09131174000000167 L0.10614430185185145,-0.09098774074074248 L0.10625259148148106,-0.09066318592592776 L0.10635980999999955,-0.09033808000000192 L0.10646594851851805,-0.09001242740740943 L0.10657099814814766,-0.08968623259259471 L0.10667494999999949,-0.08935950000000226 L0.10667494999999949,-0.08935950000000226 L0.10667494999999949,-0.08935950000000226 L0.10677693307407359,-0.0890343000000023 L0.10687788125925882,-0.08870870000000237 L0.10697779299999957,-0.08838270000000242 L0.10707666674074033,-0.08805630000000249 L0.10717450092592554,-0.08772950000000253 L0.10727129399999964,-0.0874023000000026 L0.10736704440740706,-0.08707470000000266 L0.10746175059259226,-0.08674670000000272 L0.10755541099999964,-0.08641830000000275 L0.10764802407407376,-0.08608950000000283 L0.10773958825925893,-0.08576030000000287 L0.10783010199999972,-0.08543070000000297 L0.10791956374074042,-0.08510070000000299 L0.10800797192592568,-0.08477030000000307 L0.10809532499999971,-0.0844395000000031 L0.10818162140740717,-0.08410830000000316 L0.10826685959259234,-0.0837767000000032 L0.10835103799999979,-0.08344470000000326 L0.10843415507407388,-0.0831123000000033 L0.10851620925925906,-0.08277950000000332 L0.10859719899999984,-0.08244630000000336 L0.10867712274074058,-0.08211270000000338 L0.1087559789259258,-0.08177870000000341 L0.10883376599999989,-0.08144430000000343 L0.10891048240740733,-0.08110950000000343 L0.10898612659259253,-0.08077430000000344 L0.10906069699999996,-0.08043870000000343 L0.10913419207407407,-0.08010270000000341 L0.10920661025925928,-0.0797663000000034 L0.10927795000000007,-0.07942950000000337 L0.10927795000000007,-0.07942950000000337 L0.10927795000000007,-0.07942950000000337 L0.1093492914814815,-0.07909230000000317 L0.10941932185185183,-0.07875470000000298 L0.10948804999999992,-0.07841670000000281 L0.1095554848148147,-0.07807830000000265 L0.10962163518518503,-0.07773950000000251 L0.1096865099999998,-0.07740030000000239 L0.1097501181481479,-0.07706070000000227 L0.10981246851851827,-0.07672070000000217 L0.10987356999999968,-0.07638030000000204 L0.10993343148148117,-0.07603950000000197 L0.10999206185185151,-0.07569830000000187 L0.11004946999999966,-0.07535670000000186 L0.11010566481481443,-0.07501470000000177 L0.11016065518518484,-0.07467230000000176 L0.1102144499999996,-0.07432950000000171 L0.11026705814814777,-0.07398630000000168 L0.11031848851851814,-0.07364270000000167 L0.11036874999999965,-0.07329870000000169 L0.11041785148148112,-0.07295430000000167 L0.11046580185185151,-0.07260950000000169 L0.11051260999999966,-0.0722643000000017 L0.11055828481481449,-0.07191870000000172 L0.11060283518518488,-0.07157270000000177 L0.11064626999999971,-0.0712263000000018 L0.11068859814814787,-0.07087950000000184 L0.11072982851851826,-0.0705323000000019 L0.11076996999999976,-0.07018470000000195 L0.11080903148148127,-0.06983670000000201 L0.11084702185185166,-0.06948830000000206 L0.11088394999999984,-0.06913950000000213 L0.11088394999999984,-0.06913950000000213 L0.11088394999999984,-0.06913950000000213 L0.11091934999999982,-0.06879030200000219 L0.11095354999999979,-0.06844071600000226 L0.11098654999999977,-0.06809075400000231 L0.11101834999999977,-0.06774042800000234 L0.11104894999999973,-0.06738975000000237 L0.11107834999999974,-0.0670387320000024 L0.11110654999999975,-0.06668738600000242 L0.11113354999999972,-0.06633572400000243 L0.11115934999999967,-0.06598375800000239 L0.11118394999999971,-0.0656315000000024 L0.11120734999999968,-0.06527896200000236 L0.11122954999999972,-0.06492615600000236 L0.11125054999999967,-0.0645730940000023 L0.11127034999999974,-0.0642197880000023 L0.11128894999999969,-0.06386625000000222 L0.11130634999999972,-0.06351249200000218 L0.11132254999999973,-0.06315852600000212 L0.11133754999999976,-0.06280436400000206 L0.11135134999999975,-0.06245001800000198 L0.11136394999999977,-0.0620955000000019 L0.11137534999999976,-0.06174082200000181 L0.11138554999999978,-0.06138599600000172 L0.11139454999999979,-0.06103103400000162 L0.1114023499999998,-0.06067594800000152 L0.1114089499999998,-0.060320750000001394 L0.1114143499999998,-0.05996545200000128 L0.11141854999999981,-0.059610066000001155 L0.11142154999999983,-0.05925460400000102 L0.11142334999999982,-0.05889907800000088 L0.11142394999999983,-0.05854350000000075 L0.11142394999999983,-0.05854350000000075 L0.10483595000000001,-0.05853049999999982 L0.0982479500000002,-0.058516500000001415 L0.09164495000000006,-0.058518500000001694 L0.08505695000000024,-0.05850850000000207 L0.078453950000001,-0.058509500000001324 L0.07186595000000029,-0.058496500000000395 L0.06526295000000104,-0.05849750000000142 L0.058674950000001225,-0.058485499999999746 L0.05208695000000052,-0.058473499999999845 L0.04548395000000127,-0.058475500000000125 L0.038895950000001456,-0.05846150000000172 L0.03230795000000075,-0.058448499999999015 L0.025704950000001503,-0.058453499999998826 L0.019101950000001366,-0.05845449999999808 L0.01251395000000155,-0.05844149999999715 L0.005925950000001734,-0.058427499999998744 L-0.0006560499999990199,-0.05842149999999968 L-0.007240049999999165,-0.05841449999999959 L-0.01382404999999931,-0.05840850000000053 L-0.020406049999999176,-0.05840250000000147 L-0.02699004999999932,-0.058394500000002125 L-0.03357404999999947,-0.05838950000000409 L-0.04015604999999933,-0.05838350000000503 L-0.04674004999999948,-0.05837450000000466 L-0.05332205000000023,-0.058368500000005596 L-0.05990605000000038,-0.058360500000006255 L-0.06649005000000052,-0.058355500000006444 L-0.07307205000000039,-0.05834950000000738 L-0.07965605000000053,-0.05834150000000804 L-0.08624005000000068,-0.05833550000000898 L-0.09282205000000143,-0.05833050000001094" fill="black" stroke="black" stroke-width="0.02" stroke-linecap="round" stroke-linejoin="round" />
    <text x="0.01254745000000046" y="-0.26612850000000243" dx="0" dy="0" text-anchor="middle" style="font: 0.1px monospace; fill: black">{REF}</text><rect x="0.00004745000000045893" y="-0.27862850000000244" width="0.025" height="0.025" fill="blue" />
    <text x="0.008690350000000263" y="0.4661284999999989" dx="0" dy="0.07500000000000001" text-anchor="middle" style="font: 0.1px monospace; fill: black">{VAL}</text><rect x="-0.0038096499999997376" y="0.4536284999999989" width="0.025" height="0.025" fill="blue" />

    
    <line x1="-0.49679854999999995" y1="0.06796750000000032" x2="-0.4467985499999999" y2="0.11796750000000031" stroke="red" stroke-width="0.004" />
    <line x1="-0.49679854999999995" y1="0.11796750000000031" x2="-0.4467985499999999" y2="0.06796750000000032" stroke="red" stroke-width="0.004" />
  
    <text x="-0.51179855" y="0.1829675000000003"
      text-anchor="middle" style="font: 0.08px monospace; fill: #833;">1</text>
  
    
    
    <line x1="0.4467985499999999" y1="0.06799249999999937" x2="0.49679854999999995" y2="0.11799249999999936" stroke="red" stroke-width="0.004" />
    <line x1="0.4467985499999999" y1="0.11799249999999936" x2="0.49679854999999995" y2="0.06799249999999937" stroke="red" stroke-width="0.004" />
  
    <text x="0.43179854999999995" y="0.18299249999999936"
      text-anchor="middle" style="font: 0.08px monospace; fill: #833;">2</text>
  
<path d="M 0 0.06797999999999985 L 0.025 0.09297999999999984 L 0 0.11797999999999984 L -0.025 0.09297999999999984 Z" fill="green" />
<text x="-0.48777535000000016" y="-0.4591085000000005" style="font: 0.05px monospace; fill: #833;">0.98 x 0.73</text>
<text x="-0.48777535000000016" y="-0.4591085000000005" style="font: 0.05px monospace; fill: #833;">0.98 x 0.73</text></svg>