<svg width="150" height="150" viewBox="-0.6699999999999999 -0.422 1.2 0.744" xmlns="http://www.w3.org/2000/svg"><path d="M0.14,-0.060000000000000005 L-0.32,-0.31" fill="none" stroke="black" stroke-width="0.02" stroke-linecap="round" stroke-linejoin="round" />
    <path d="M-0.32,0.21 L0.14,-0.060000000000000005" fill="none" stroke="black" stroke-width="0.02" stroke-linecap="round" stroke-linejoin="round" />
    <path d="M-0.32,-0.31 L-0.32,0.21" fill="none" stroke="black" stroke-width="0.02" stroke-linecap="round" stroke-linejoin="round" />
    <path d="M-0.32,0.07999999999999999 L-0.57,0.07999999999999999" fill="none" stroke="black" stroke-width="0.02" stroke-linecap="round" stroke-linejoin="round" />
    <path d="M-0.32,-0.19 L-0.57,-0.19" fill="none" stroke="black" stroke-width="0.02" stroke-linecap="round" stroke-linejoin="round" />
    <path d="M0.43,-0.060000000000000005 L0.15,-0.060000000000000005" fill="none" stroke="black" stroke-width="0.02" stroke-linecap="round" stroke-linejoin="round" />
    <path d="M-0.19,-0.19 L-0.27,-0.19" fill="black" stroke="black" stroke-width="0.02" stroke-linecap="round" stroke-linejoin="round" />
    <path d="M-0.19,0.07999999999999999 L-0.27,0.07999999999999999" fill="black" stroke="black" stroke-width="0.02" stroke-linecap="round" stroke-linejoin="round" />
    <path d="M-0.23,0.04000000000000001 L-0.23,0.12" fill="black" stroke="black" stroke-width="0.02" stroke-linecap="round" stroke-linejoin="round" />
    <text x="-0.01" y="-0.32000000000000006" dx="0" dy="0" text-anchor="middle" style="font: 0.1px monospace; fill: black">{REF}</text><rect x="-0.0225" y="-0.3325000000000001" width="0.025" height="0.025" fill="blue" />
    <text x="0" y="0.29999999999999993" dx="0" dy="0.07500000000000001" text-anchor="middle" style="font: 0.1px monospace; fill: black">{VAL}</text><rect x="-0.0125" y="0.2874999999999999" width="0.025" height="0.025" fill="blue" />

    
    <line x1="-0.595" y1="0.054999999999999986" x2="-0.5449999999999999" y2="0.10499999999999998" stroke="red" stroke-width="0.004" />
    <line x1="-0.595" y1="0.10499999999999998" x2="-0.5449999999999999" y2="0.054999999999999986" stroke="red" stroke-width="0.004" />
  
    <text x="-0.61" y="0.17"
      text-anchor="middle" style="font: 0.08px monospace; fill: #833;">1</text>
  
    
    
    <line x1="-0.595" y1="-0.215" x2="-0.5449999999999999" y2="-0.165" stroke="red" stroke-width="0.004" />
    <line x1="-0.595" y1="-0.165" x2="-0.5449999999999999" y2="-0.215" stroke="red" stroke-width="0.004" />
  
    <text x="-0.61" y="-0.1"
      text-anchor="middle" style="font: 0.08px monospace; fill: #833;">2</text>
  
    
    
    <line x1="0.40499999999999997" y1="-0.085" x2="0.455" y2="-0.035" stroke="red" stroke-width="0.004" />
    <line x1="0.40499999999999997" y1="-0.035" x2="0.455" y2="-0.085" stroke="red" stroke-width="0.004" />
  
    <text x="0.39" y="0.03"
      text-anchor="middle" style="font: 0.08px monospace; fill: #833;">3</text>
  
<path d="M -0.07 -0.07500000000000001 L -0.045000000000000005 -0.05 L -0.07 -0.025 L -0.095 -0.05 Z" fill="green" />
<text x="-0.5700000000000001" y="-0.26" style="font: 0.05px monospace; fill: #833;">1.00 x 0.62</text>
<text x="-0.5700000000000001" y="-0.31" dy="-0.15" style="font: 0.05px monospace; fill: #833;">1 [inp1]</text>
<text x="-0.5700000000000001" y="-0.36" dy="-0.15" style="font: 0.05px monospace; fill: #833;">2 [inp2]</text>
<text x="-0.5700000000000001" y="-0.41000000000000003" dy="-0.15" style="font: 0.05px monospace; fill: #833;">3 [out]</text>
<text x="-0.5700000000000001" y="-0.26" style="font: 0.05px monospace; fill: #833;">1.00 x 0.62</text>
<text x="-0.5700000000000001" y="-0.31" dy="-0.15" style="font: 0.05px monospace; fill: #833;">1 [inp1]</text>
<text x="-0.5700000000000001" y="-0.36" dy="-0.15" style="font: 0.05px monospace; fill: #833;">2 [inp2]</text>
<text x="-0.5700000000000001" y="-0.41000000000000003" dy="-0.15" style="font: 0.05px monospace; fill: #833;">3 [out]</text></svg>