<?xml version="1.0" encoding="UTF-8" standalone="no"?>
<!-- Created with Inkscape (http://www.inkscape.org/) -->

<svg width="150" height="150" viewBox="-0.6434511599999997 -0.48 1.28690232 0.96" xmlns="http://www.w3.org/2000/svg"><path d="M0.13585750000000063,0.003696399999999045 L-0.12872579999999934,0.13598810000000228" fill="none" stroke="black" stroke-width="0.02" stroke-linecap="round" stroke-linejoin="round" />
    <path d="M0.12763670000000094,0.003920199999999596 L0.3,0.003920199999999596" fill="none" stroke="black" stroke-width="0.02" stroke-linecap="round" stroke-linejoin="round" />
    <path d="M-0.12872579999999934,-0.12859530000000063 L0.13585750000000063,0.003696399999999045" fill="none" stroke="black" stroke-width="0.02" stroke-linecap="round" stroke-linejoin="round" />
    <path d="M-0.12872579999999934,0.13598810000000228 L-0.12872579999999934,-0.12859530000000063" fill="none" stroke="black" stroke-width="0.02" stroke-linecap="round" stroke-linejoin="round" />
    <path d="M0.13585750000000063,-0.12859530000000063 L0.13585750000000063,0.13598810000000228" fill="none" stroke="black" stroke-width="0.02" stroke-linecap="round" stroke-linejoin="round" />
    <path d="M-0.13076959999999938,0.003696399999999045 L-0.3,0.003696399999999045" fill="none" stroke="black" stroke-width="0.02" stroke-linecap="round" stroke-linejoin="round" />
    <path d="M-0.1557438999999996,-0.28545279999999806 L-0.2530861999999994,-0.3023319999999998 L-0.21878339999999952,-0.20956920000000068" fill="black" stroke="black" stroke-width="0.02" stroke-linecap="round" stroke-linejoin="round" />
    <path d="M-0.08000449999999937,-0.16590799999999817 L-0.09202799999999911,-0.1748410000000007 L-0.2137844999999996,-0.26529680000000155 L-0.2144144999999993,-0.2662468000000011" fill="none" stroke="black" stroke-width="0.02" stroke-linecap="round" stroke-linejoin="round" />
    <path d="M0.021722400000000697,-0.30658939999999646 L-0.07561989999999952,-0.3234685999999982 L-0.04131709999999922,-0.23070579999999907" fill="black" stroke="black" stroke-width="0.02" stroke-linecap="round" stroke-linejoin="round" />
    <path d="M0.09746180000000093,-0.18704459999999656 L0.08543830000000074,-0.19597759999999909 L-0.0363181999999993,-0.28643339999999995 L-0.03694819999999943,-0.2873833999999995" fill="none" stroke="black" stroke-width="0.02" stroke-linecap="round" stroke-linejoin="round" />
    <path d="M-0.3,0.4 L0.3,0.4 L0.3,-0.4 L-0.3,-0.4 L-0.3,0.4 L-0.3,-0.4" fill="none" stroke="black" stroke-width="0.02" stroke-linecap="round" stroke-linejoin="round" />
    <path d="M-0.3,-0.1333 L-0.5362092999999997,-0.1333" fill="none" stroke="black" stroke-width="0.02" stroke-linecap="round" stroke-linejoin="round" />
    <path d="M-0.3,0.1333 L-0.5362092999999997,0.1333" fill="none" stroke="black" stroke-width="0.02" stroke-linecap="round" stroke-linejoin="round" />
    <path d="M0.3,0.1333 L0.5362093000000003,0.1333" fill="none" stroke="black" stroke-width="0.02" stroke-linecap="round" stroke-linejoin="round" />
    <path d="M0.3,-0.1333 L0.5362093000000003,-0.1333" fill="none" stroke="black" stroke-width="0.02" stroke-linecap="round" stroke-linejoin="round" />
    <text x="0.4764070000000044" y="0.25" dx="0" dy="0.07500000000000001" text-anchor="middle" style="font: 0.1px monospace; fill: black">{VAL}</text><rect x="0.4639070000000044" y="0.2375" width="0.025" height="0.025" fill="blue" />
    <text x="0.4764070000000044" y="-0.25" dx="0" dy="0" text-anchor="middle" style="font: 0.1px monospace; fill: black">{REF}</text><rect x="0.4639070000000044" y="-0.2625" width="0.025" height="0.025" fill="blue" />

    <rect x="-0.5612092999999997" y="-0.1583" width="0.05" height="0.05" fill="red" />
    <text x="-0.5762092999999997" y="-0.0433" text-anchor="middle" style="font: 0.08px monospace; fill: #833;">1</text>
  
    
    <rect x="-0.5612092999999997" y="0.10830000000000001" width="0.05" height="0.05" fill="red" />
    <text x="-0.5762092999999997" y="0.22330000000000003" text-anchor="middle" style="font: 0.08px monospace; fill: #833;">2</text>
  
    
    <rect x="0.5112093000000003" y="0.10830000000000001" width="0.05" height="0.05" fill="red" />
    <text x="0.49620930000000035" y="0.22330000000000003" text-anchor="middle" style="font: 0.08px monospace; fill: #833;">3</text>
  
    
    <rect x="0.5112093000000003" y="-0.1583" width="0.05" height="0.05" fill="red" />
    <text x="0.49620930000000035" y="-0.0433" text-anchor="middle" style="font: 0.08px monospace; fill: #833;">4</text>
  
<path d="M 3.3306690738754696e-16 -0.025 L 0.025000000000000334 0 L 3.3306690738754696e-16 0.025 L -0.02499999999999967 0 Z" fill="green" />
<text x="-0.5362092999999997" y="-0.4" style="font: 0.05px monospace; fill: #833;">1.07 x 0.80</text>
<text x="-0.5362092999999997" y="-0.45" dy="-0.15" style="font: 0.05px monospace; fill: #833;">1 [power]</text>
<text x="-0.5362092999999997" y="-0.5" dy="-0.15" style="font: 0.05px monospace; fill: #833;">2 [dout]</text>
<text x="-0.5362092999999997" y="-0.55" dy="-0.15" style="font: 0.05px monospace; fill: #833;">3 [din]</text>
<text x="-0.5362092999999997" y="-0.6000000000000001" dy="-0.15" style="font: 0.05px monospace; fill: #833;">4 [gnd]</text>
<text x="-0.5362092999999997" y="-0.4" style="font: 0.05px monospace; fill: #833;">1.07 x 0.80</text>
<text x="-0.5362092999999997" y="-0.45" dy="-0.15" style="font: 0.05px monospace; fill: #833;">1 [power]</text>
<text x="-0.5362092999999997" y="-0.5" dy="-0.15" style="font: 0.05px monospace; fill: #833;">2 [dout]</text>
<text x="-0.5362092999999997" y="-0.55" dy="-0.15" style="font: 0.05px monospace; fill: #833;">3 [din]</text>
<text x="-0.5362092999999997" y="-0.6000000000000001" dy="-0.15" style="font: 0.05px monospace; fill: #833;">4 [gnd]</text></svg>