<?xml version="1.0" encoding="UTF-8" standalone="no"?>
<!-- Created with Inkscape (http://www.inkscape.org/) -->

<svg
   width="30mm"
   height="30mm"
   viewBox="0 0 30 30"
   version="1.1"
   id="svg1"
   inkscape:version="1.3.2 (091e20e, 2023-11-25)"
   sodipodi:docname="ohm_meter.svg"
   xmlns:inkscape="http://www.inkscape.org/namespaces/inkscape"
   xmlns:sodipodi="http://sodipodi.sourceforge.net/DTD/sodipodi-0.dtd"
   xmlns="http://www.w3.org/2000/svg"
   xmlns:svg="http://www.w3.org/2000/svg">
  <sodipodi:namedview
     id="namedview1"
     pagecolor="#ffffff"
     bordercolor="#000000"
     borderopacity="0.25"
     inkscape:showpageshadow="2"
     inkscape:pageopacity="0.0"
     inkscape:pagecheckerboard="false"
     inkscape:deskcolor="#d1d1d1"
     inkscape:document-units="mm"
     inkscape:zoom="11.239978"
     inkscape:cx="50.533907"
     inkscape:cy="55.204734"
     inkscape:window-width="1392"
     inkscape:window-height="786"
     inkscape:window-x="48"
     inkscape:window-y="25"
     inkscape:window-maximized="0"
     inkscape:current-layer="potentiometer"
     showgrid="true">
    <inkscape:grid
       id="grid207"
       units="mm"
       originx="0"
       originy="0"
       spacingx="10"
       spacingy="10"
       empcolor="#0099e5"
       empopacity="0.30196078"
       color="#0099e5"
       opacity="0.14901961"
       empspacing="5"
       dotted="false"
       gridanglex="30"
       gridanglez="30"
       visible="true" />
  </sodipodi:namedview>
  <defs
     id="defs1" />
  <g
     inkscape:label="root"
     inkscape:groupmode="layer"
     id="root">
    <g
       id="potentiometer"
       transform="rotate(90,-19.246732,-62.458284)"
       inkscape:label="ohm_meter">
      <path
         style="fill:none;stroke:#000000;stroke-width:0.244764px;stroke-linecap:round;stroke-linejoin:miter;stroke-opacity:1"
         d="m 58.208334,-91.262154 v -2.26429"
         id="path11"
         inkscape:connector-curvature="0" />
      <path
         style="fill:none;stroke:#000000;stroke-width:0.252778;stroke-linecap:round;stroke-linejoin:miter;stroke-dasharray:none;stroke-opacity:1"
         d="m 58.208334,-99.469105 v -2.407405"
         id="path12"
         inkscape:connector-curvature="0" />
      <text
         xml:space="preserve"
         style="font-size:1.05833px;fill:#000000;stroke-width:0.264583"
         x="94.804123"
         y="54.588577"
         id="text14"
         transform="rotate(-90)"><tspan
           sodipodi:role="line"
           id="tspan14"
           style="font-size:1.05833px;stroke-width:0.264583"
           x="94.804123"
           y="54.588577">{REF}</tspan></text>
      <text
         xml:space="preserve"
         style="font-size:1.05833px;text-align:center;text-anchor:middle;fill:#000000;stroke-width:0.264583"
         x="96.47084"
         y="62.53183"
         id="text14-3"
         transform="rotate(-90)"><tspan
           sodipodi:role="line"
           id="tspan14-1"
           style="font-size:1.05833px;text-align:center;text-anchor:middle;stroke-width:0.264583"
           x="96.47084"
           y="62.53183">{VAL}</tspan></text>
      <circle
         style="fill:#ff0000;stroke:none;stroke-width:0.264583;stroke-opacity:1"
         id="refblock-5"
         cx="91.123001"
         cy="58.216862"
         r="0.28158441"
         transform="rotate(-90)" />
      <circle
         style="fill:#ff0000;stroke:none;stroke-width:0.264583;stroke-opacity:1"
         id="refblock-5-7"
         cx="101.95097"
         cy="58.206898"
         r="0.28158441"
         transform="rotate(-90)" />
      <circle
         style="fill:none;fill-opacity:1;stroke:#000000;stroke-width:0.265;stroke-linecap:round;stroke-linejoin:round;stroke-dasharray:none;stroke-opacity:1"
         id="path1"
         cx="96.499359"
         cy="58.137051"
         r="2.8854213"
         transform="rotate(-90)" />
      <path
         d="M 97.703268,59.168671 H 96.71108 v -0.666627 q 0.103353,-0.06546 0.204983,-0.141249 0.103353,-0.07579 0.179146,-0.173977 0.07751,-0.101631 0.122301,-0.237712 0.04479,-0.137804 0.04479,-0.320394 0,-0.354845 -0.218764,-0.568441 -0.218764,-0.215319 -0.597724,-0.215319 -0.378961,0 -0.597725,0.215319 -0.218764,0.213596 -0.218764,0.568441 0,0.18259 0.04479,0.320394 0.04479,0.136081 0.122301,0.237712 0.07751,0.09819 0.179145,0.173977 0.10163,0.07579 0.204983,0.141249 v 0.666627 h -0.992188 v -0.299724 h 0.706245 v -0.213596 q -0.27044,-0.155029 -0.44614,-0.423747 -0.173978,-0.268718 -0.173978,-0.602892 0,-0.475424 0.322117,-0.77687 0.323839,-0.301446 0.849217,-0.301446 0.525377,0 0.847494,0.301446 0.323839,0.301446 0.323839,0.77687 0,0.334174 -0.1757,0.602892 -0.173978,0.268718 -0.444418,0.423747 v 0.213596 h 0.706245 z"
         id="text4"
         style="font-size:3.52778px;line-height:1.25;letter-spacing:0px;word-spacing:0px;stroke-width:0.264583"
         transform="rotate(-90)"
         aria-label="Ω" />
    </g>
  </g>
</svg>
