<?xml version="1.0" encoding="UTF-8" standalone="no"?>
<!-- Created with Inkscape (http://www.inkscape.org/) -->

<svg width="150" height="150" viewBox="-0.6 -0.518 1.2 0.9359999999999999" xmlns="http://www.w3.org/2000/svg"><path d="M0.14,-0.04 L-0.32,0.21" fill="none" stroke="black" stroke-width="0.02" stroke-linecap="round" stroke-linejoin="round" />
    <path d="M-0.32,-0.31 L0.14,-0.04" fill="none" stroke="black" stroke-width="0.02" stroke-linecap="round" stroke-linejoin="round" />
    <path d="M-0.32,0.21 L-0.32,-0.31" fill="none" stroke="black" stroke-width="0.02" stroke-linecap="round" stroke-linejoin="round" />
    <path d="M-0.32,-0.18 L-0.57,-0.18" fill="none" stroke="black" stroke-width="0.02" stroke-linecap="round" stroke-linejoin="round" />
    <path d="M-0.32,0.09 L-0.57,0.09" fill="none" stroke="black" stroke-width="0.02" stroke-linecap="round" stroke-linejoin="round" />
    <path d="M0.43,-0.04 L0.15,-0.04" fill="none" stroke="black" stroke-width="0.02" stroke-linecap="round" stroke-linejoin="round" />
    <path d="M-0.1,-0.44 L-0.1,-0.18" fill="none" stroke="black" stroke-width="0.02" stroke-linecap="round" stroke-linejoin="round" />
    <path d="M-0.09,0.34 L-0.09,0.09" fill="none" stroke="black" stroke-width="0.02" stroke-linecap="round" stroke-linejoin="round" />
    <path d="M-0.2,-0.18 L-0.27,-0.18" fill="black" stroke="black" stroke-width="0.02" stroke-linecap="round" stroke-linejoin="round" />
    <path d="M-0.2,0.09 L-0.27,0.09" fill="black" stroke="black" stroke-width="0.02" stroke-linecap="round" stroke-linejoin="round" />
    <path d="M-0.23,-0.14 L-0.23,-0.22" fill="black" stroke="black" stroke-width="0.02" stroke-linecap="round" stroke-linejoin="round" />
    <text x="0.25" y="-0.32" dx="0" dy="0" text-anchor="middle" style="font: 0.1px monospace; fill: black">{REF}</text><rect x="0.2375" y="-0.3325" width="0.025" height="0.025" fill="blue" />
    <text x="0.25" y="0.24" dx="0" dy="0.07500000000000001" text-anchor="middle" style="font: 0.1px monospace; fill: black">{VAL}</text><rect x="0.2375" y="0.22749999999999998" width="0.025" height="0.025" fill="blue" />

    
    <line x1="-0.595" y1="-0.205" x2="-0.5449999999999999" y2="-0.155" stroke="red" stroke-width="0.004" />
    <line x1="-0.595" y1="-0.155" x2="-0.5449999999999999" y2="-0.205" stroke="red" stroke-width="0.004" />
  
    <text x="-0.61" y="-0.09"
      text-anchor="middle" style="font: 0.08px monospace; fill: #833;">1</text>
  
    
    
    <line x1="-0.595" y1="0.065" x2="-0.5449999999999999" y2="0.11499999999999999" stroke="red" stroke-width="0.004" />
    <line x1="-0.595" y1="0.11499999999999999" x2="-0.5449999999999999" y2="0.065" stroke="red" stroke-width="0.004" />
  
    <text x="-0.61" y="0.18000000000000002"
      text-anchor="middle" style="font: 0.08px monospace; fill: #833;">2</text>
  
    
    
    <line x1="0.40499999999999997" y1="-0.065" x2="0.455" y2="-0.015" stroke="red" stroke-width="0.004" />
    <line x1="0.40499999999999997" y1="-0.015" x2="0.455" y2="-0.065" stroke="red" stroke-width="0.004" />
  
    <text x="0.39" y="0.05"
      text-anchor="middle" style="font: 0.08px monospace; fill: #833;">4</text>
  
    
    
    <line x1="-0.125" y1="-0.465" x2="-0.07500000000000001" y2="-0.415" stroke="red" stroke-width="0.004" />
    <line x1="-0.125" y1="-0.415" x2="-0.07500000000000001" y2="-0.465" stroke="red" stroke-width="0.004" />
  
    <text x="-0.14" y="-0.35000000000000003"
      text-anchor="middle" style="font: 0.08px monospace; fill: #833;">5</text>
  
    
    
    <line x1="-0.11499999999999999" y1="0.315" x2="-0.065" y2="0.36500000000000005" stroke="red" stroke-width="0.004" />
    <line x1="-0.11499999999999999" y1="0.36500000000000005" x2="-0.065" y2="0.315" stroke="red" stroke-width="0.004" />
  
    <text x="-0.13" y="0.43"
      text-anchor="middle" style="font: 0.08px monospace; fill: #833;">3</text>
  
<path d="M 0 -0.07500000000000001 L 0.025 -0.05 L 0 -0.025 L -0.025 -0.05 Z" fill="green" />
<text x="-0.5" y="-0.34" style="font: 0.05px monospace; fill: #833;">1.00 x 0.78</text>
<text x="-0.5" y="-0.39" dy="-0.15" style="font: 0.05px monospace; fill: #833;">1 [inp1]</text>
<text x="-0.5" y="-0.44000000000000006" dy="-0.15" style="font: 0.05px monospace; fill: #833;">2 [inp2]</text>
<text x="-0.5" y="-0.49000000000000005" dy="-0.15" style="font: 0.05px monospace; fill: #833;">4 [out]</text>
<text x="-0.5" y="-0.54" dy="-0.15" style="font: 0.05px monospace; fill: #833;">5 [V+]</text>
<text x="-0.5" y="-0.5900000000000001" dy="-0.15" style="font: 0.05px monospace; fill: #833;">3 [V-]</text>
<text x="-0.5" y="-0.34" style="font: 0.05px monospace; fill: #833;">1.00 x 0.78</text>
<text x="-0.5" y="-0.39" dy="-0.15" style="font: 0.05px monospace; fill: #833;">1 [inp1]</text>
<text x="-0.5" y="-0.44000000000000006" dy="-0.15" style="font: 0.05px monospace; fill: #833;">2 [inp2]</text>
<text x="-0.5" y="-0.49000000000000005" dy="-0.15" style="font: 0.05px monospace; fill: #833;">4 [out]</text>
<text x="-0.5" y="-0.54" dy="-0.15" style="font: 0.05px monospace; fill: #833;">5 [V+]</text>
<text x="-0.5" y="-0.5900000000000001" dy="-0.15" style="font: 0.05px monospace; fill: #833;">3 [V-]</text></svg>