<?xml version="1.0" encoding="UTF-8" standalone="no"?>
<!-- Created with Inkscape (http://www.inkscape.org/) -->
<svg width="150" height="150" viewBox="-0.504 -0.24 1.008 0.48" xmlns="http://www.w3.org/2000/svg"><path d="M-0.4,0 L-0.3,0" fill="none" stroke="black" stroke-width="0.02" stroke-linecap="round" stroke-linejoin="round" />
    <path d="M-0.3,0 L-0.25,-0.1 L-0.15,0.1 L-0.05,-0.1 L0.05,0.1 L0.15,-0.1 L0.25,0.1 L0.3,0" fill="none" stroke="black" stroke-width="0.02" stroke-linecap="round" stroke-linejoin="round" />
    <path d="M0.3,0 L0.4,0" fill="none" stroke="black" stroke-width="0.02" stroke-linecap="round" stroke-linejoin="round" />
    <path d="M0,0.17 L0,0.4" fill="none" stroke="black" stroke-width="0.02" stroke-linecap="round" stroke-linejoin="round" />
    <path d="M0,0.12 L0.05,0.2 L-0.05,0.2 L0,0.12" fill="black" stroke="black" stroke-width="0.02" stroke-linecap="round" stroke-linejoin="round" />
    <text x="0.3" y="0.25" dx="0" dy="0.07500000000000001" text-anchor="middle" style="font: 0.1px monospace; fill: black">{VAL}</text><rect x="0.2875" y="0.2375" width="0.025" height="0.025" fill="blue" />
    <text x="0.3" y="-0.25" dx="0" dy="0" text-anchor="middle" style="font: 0.1px monospace; fill: black">{REF}</text><rect x="0.2875" y="-0.2625" width="0.025" height="0.025" fill="blue" />

    <rect x="-0.445" y="-0.025" width="0.05" height="0.05" fill="red" />
    <text x="-0.45999999999999996" y="0.09" text-anchor="middle" style="font: 0.08px monospace; fill: #833;">1</text>
  
    
    <rect x="0.39499999999999996" y="-0.025" width="0.05" height="0.05" fill="red" />
    <text x="0.38" y="0.09" text-anchor="middle" style="font: 0.08px monospace; fill: #833;">3</text>
  
    
    <rect x="-0.025" y="0.375" width="0.05" height="0.05" fill="red" />
    <text x="-0.04" y="0.49" text-anchor="middle" style="font: 0.08px monospace; fill: #833;">2</text>
  
<path d="M 0 -0.025 L 0.025 0 L 0 0.025 L -0.025 0 Z" fill="green" />
<text x="-0.42" y="-0.2" style="font: 0.05px monospace; fill: #833;">0.84 x 0.40</text>
<text x="-0.42" y="-0.2" style="font: 0.05px monospace; fill: #833;">0.84 x 0.40</text></svg>