<?xml version="1.0" encoding="UTF-8" standalone="no"?>
<!-- Created with Inkscape (http://www.inkscape.org/) -->

<svg width="150" height="150" viewBox="-0.54 -0.1574019999999993 1.08 0.36497579999999946" xmlns="http://www.w3.org/2000/svg"><path d="M-0.195,0.025 L-0.45,0.025" fill="none" stroke="black" stroke-width="0.02" stroke-linecap="round" stroke-linejoin="round" />
    <path d="M0.45,0.025 L0.195,0.025" fill="none" stroke="black" stroke-width="0.02" stroke-linecap="round" stroke-linejoin="round" />
    <path d="M0.07,0.025 L-0.07,0.025" fill="none" stroke="black" stroke-width="0.02" stroke-linecap="round" stroke-linejoin="round" />
    <path d="M0.07,-0.1 L0.07,0.15" fill="black" stroke="black" stroke-width="0.02" stroke-linecap="round" stroke-linejoin="round" />
    <path d="M-0.07,-0.1 L-0.07,0.15" fill="black" stroke="black" stroke-width="0.02" stroke-linecap="round" stroke-linejoin="round" />
    <path d="M-0.07,-0.1 L-0.082252,-0.099398 L-0.094386,-0.097598 L-0.106286,-0.094618 L-0.117835,-0.090485 L-0.128925,-0.08524 L-0.139446,-0.078934 L-0.149299,-0.071626 L-0.158388,-0.063388 L-0.166626,-0.054299 L-0.173934,-0.044446 L-0.18024,-0.033925 L-0.185485,-0.022835 L-0.189618,-0.011286 L-0.192598,0.000614 L-0.194398,0.012748 L-0.195,0.025 L-0.194398,0.037252 L-0.192598,0.049386 L-0.189618,0.061286 L-0.185485,0.072835 L-0.18024,0.083925 L-0.173934,0.094446 L-0.166626,0.104299 L-0.158388,0.113388 L-0.149299,0.121626 L-0.139446,0.128934 L-0.128925,0.13524 L-0.117835,0.140485 L-0.106286,0.144618 L-0.094386,0.147598 L-0.082252,0.149398 L-0.07,0.15" fill="none" stroke="black" stroke-width="0.02" stroke-linecap="round" stroke-linejoin="round" />
    <path d="M0.07,-0.1 L0.082252,-0.099398 L0.094386,-0.097598 L0.106286,-0.094618 L0.117835,-0.090485 L0.128925,-0.08524 L0.139446,-0.078934 L0.149299,-0.071626 L0.158388,-0.063388 L0.166626,-0.054299 L0.173934,-0.044446 L0.18024,-0.033925 L0.185485,-0.022835 L0.189618,-0.011286 L0.192598,0.000614 L0.194398,0.012748 L0.195,0.025 L0.194398,0.037252 L0.192598,0.049386 L0.189618,0.061286 L0.185485,0.072835 L0.18024,0.083925 L0.173934,0.094446 L0.166626,0.104299 L0.158388,0.113388 L0.149299,0.121626 L0.139446,0.128934 L0.128925,0.13524 L0.117835,0.140485 L0.106286,0.144618 L0.094386,0.147598 L0.082252,0.149398 L0.07,0.15" fill="none" stroke="black" stroke-width="0.02" stroke-linecap="round" stroke-linejoin="round" />
    <text x="-0.020635199999998965" y="-0.15414649999999952" dx="0" dy="0" text-anchor="middle" style="font: 0.1px monospace; fill: black">{REF}</text><rect x="-0.03313519999999896" y="-0.16664649999999953" width="0.025" height="0.025" fill="blue" />

    
    <line x1="-0.4708008" y1="0.00002370000000042477" x2="-0.4208008" y2="0.05002370000000043" stroke="red" stroke-width="0.004" />
    <line x1="-0.4708008" y1="0.05002370000000043" x2="-0.4208008" y2="0.00002370000000042477" stroke="red" stroke-width="0.004" />
  
    <text x="-0.4858008" y="0.11502370000000042"
      text-anchor="middle" style="font: 0.08px monospace; fill: #833;">1</text>
  
    
    
    <line x1="0.4208008" y1="0.00014810000000044926" x2="0.4708008" y2="0.05014810000000045" stroke="red" stroke-width="0.004" />
    <line x1="0.4208008" y1="0.05014810000000045" x2="0.4708008" y2="0.00014810000000044926" stroke="red" stroke-width="0.004" />
  
    <text x="0.4058008" y="0.11514810000000045"
      text-anchor="middle" style="font: 0.08px monospace; fill: #833;">2</text>
  
<path d="M 0 0.00008590000000043702 L 0.025 0.02508590000000044 L 0 0.05008590000000044 L -0.025 0.02508590000000044 Z" fill="green" />
<text x="-0.45" y="-0.1771591500000002" style="font: 0.05px monospace; fill: #833;">0.90 x 0.30</text>
<text x="-0.45" y="-0.1771591500000002" style="font: 0.05px monospace; fill: #833;">0.90 x 0.30</text></svg>