<?xml version="1.0" encoding="UTF-8" standalone="no"?>
<!-- Created with Inkscape (http://www.inkscape.org/) -->

<svg
   width="30mm"
   height="30mm"
   viewBox="0 0 30 30"
   version="1.1"
   id="svg1"
   inkscape:version="1.4.3 (0d15f75, 2025-12-25)"
   sodipodi:docname="solderjumper2.svg"
   xmlns:inkscape="http://www.inkscape.org/namespaces/inkscape"
   xmlns:sodipodi="http://sodipodi.sourceforge.net/DTD/sodipodi-0.dtd"
   xmlns="http://www.w3.org/2000/svg"
   xmlns:svg="http://www.w3.org/2000/svg">
  <sodipodi:namedview
     id="namedview1"
     pagecolor="#ffffff"
     bordercolor="#000000"
     borderopacity="0.25"
     inkscape:showpageshadow="2"
     inkscape:pageopacity="0.0"
     inkscape:pagecheckerboard="false"
     inkscape:deskcolor="#d1d1d1"
     inkscape:document-units="mm"
     inkscape:zoom="16"
     inkscape:cx="54.28125"
     inkscape:cy="58.375"
     inkscape:window-width="1440"
     inkscape:window-height="847"
     inkscape:window-x="0"
     inkscape:window-y="25"
     inkscape:window-maximized="0"
     inkscape:current-layer="diode"
     showgrid="true"
     showguides="true">
    <inkscape:grid
       id="grid207"
       units="mm"
       originx="0"
       originy="0"
       spacingx="10"
       spacingy="10"
       empcolor="#0099e5"
       empopacity="0.30196078"
       color="#0099e5"
       opacity="0.14901961"
       empspacing="5"
       dotted="false"
       gridanglex="30"
       gridanglez="30"
       visible="true" />
    <sodipodi:guide
       position="13.931257,16.824703"
       orientation="0,-1"
       id="guide214"
       inkscape:locked="false" />
    <sodipodi:guide
       position="14.693603,14.841853"
       orientation="1,0"
       id="guide216"
       inkscape:locked="false" />
    <sodipodi:guide
       position="15.959963,13.950946"
       orientation="0,-1"
       id="guide218"
       inkscape:locked="false" />
    <sodipodi:guide
       position="13.805264,15.222788"
       orientation="0,-1"
       id="guide220"
       inkscape:locked="false" />
    <sodipodi:guide
       position="13.87726,15.042798"
       orientation="1,0"
       id="guide222"
       inkscape:locked="false" />
    <sodipodi:guide
       position="9.5327054,14.510945"
       orientation="1,0"
       id="guide369"
       inkscape:locked="false" />
    <sodipodi:guide
       position="20.490862,13.429129"
       orientation="1,0"
       id="guide371"
       inkscape:locked="false" />
    <sodipodi:guide
       position="12.65088,15.50367"
       orientation="0,-1"
       id="guide373"
       inkscape:locked="false" />
    <sodipodi:guide
       position="13.49928,18.219628"
       orientation="1,0"
       id="guide523"
       inkscape:locked="false" />
    <sodipodi:guide
       position="16.613114,12.864914"
       orientation="1,0"
       id="guide525"
       inkscape:locked="false" />
    <sodipodi:guide
       position="15.170874,16.47094"
       orientation="0,-1"
       id="guide2"
       inkscape:locked="false" />
    <sodipodi:guide
       position="14.408751,16.593928"
       orientation="0,-1"
       id="guide3"
       inkscape:locked="false" />
  </sodipodi:namedview>
  <defs
     id="defs1">
    <inkscape:perspective
       sodipodi:type="inkscape:persp3d"
       inkscape:vp_x="0 : 15 : 1"
       inkscape:vp_y="0 : 1000 : 0"
       inkscape:vp_z="30 : 15 : 1"
       inkscape:persp3d-origin="15 : 10 : 1"
       id="perspective358" />
    <inkscape:path-effect
       effect="fillet_chamfer"
       id="path-effect3"
       is_visible="true"
       lpeversion="1"
       nodesatellites_param="F,0,0,1,0,0,0,1 @ F,0,0,1,0,0,0,1 | F,0,0,1,0,0,0,1 @ F,0,0,1,0,0,0,1 @ F,0,0,1,0,0,0,1"
       radius="0"
       unit="px"
       method="auto"
       mode="F"
       chamfer_steps="1"
       flexible="false"
       use_knot_distance="true"
       apply_no_radius="true"
       apply_with_radius="true"
       only_selected="false"
       hide_knots="false" />
    <inkscape:path-effect
       effect="fillet_chamfer"
       id="path-effect2"
       is_visible="true"
       lpeversion="1"
       nodesatellites_param="F,0,0,1,0,0,0,1 @ F,0,0,1,0,0,0,1 | F,0,0,1,0,0,0,1 @ F,0,0,1,0,0,0,1 @ F,0,0,1,0,0,0,1"
       radius="0"
       unit="px"
       method="auto"
       mode="F"
       chamfer_steps="1"
       flexible="false"
       use_knot_distance="true"
       apply_no_radius="true"
       apply_with_radius="true"
       only_selected="false"
       hide_knots="false" />
    <inkscape:path-effect
       effect="fillet_chamfer"
       id="path-effect1"
       is_visible="true"
       lpeversion="1"
       nodesatellites_param="F,0,0,1,0,0,0,1 @ F,0,0,1,0,0,0,1 | F,0,0,1,0,0,0,1 @ F,0,0,1,0,0,0,1 @ F,0,0,1,0,0,0,1"
       radius="0"
       unit="px"
       method="auto"
       mode="F"
       chamfer_steps="1"
       flexible="false"
       use_knot_distance="true"
       apply_no_radius="true"
       apply_with_radius="true"
       only_selected="false"
       hide_knots="false" />
  </defs>
  <g
     inkscape:label="root"
     inkscape:groupmode="layer"
     id="root">
    <g
       id="diode"
       transform="rotate(90,0.7339933,94.975664)"
       inkscape:label="Schottky_diode">
      <title
         id="title40">Diode</title>
      <path
         style="fill:none;stroke:#000000;stroke-width:0.214609px;stroke-linecap:round;stroke-linejoin:miter;stroke-opacity:1"
         d="m -79.440895,82.22887 v 2.596591"
         id="path44"
         inkscape:connector-curvature="0"
         sodipodi:nodetypes="cc" />
      <path
         style="fill:none;stroke:#000000;stroke-width:0.219952px;stroke-linecap:round;stroke-linejoin:miter;stroke-opacity:1"
         d="m -79.458042,76.01349 v 2.582669"
         id="path44-0"
         inkscape:connector-curvature="0"
         sodipodi:nodetypes="cc" />
      <title
         id="title44">Diode</title>
      <circle
         style="fill:#ff0000;stroke:none;stroke-width:0.264583;stroke-opacity:1"
         id="refblock-5-7-3-81-7"
         cx="-75.959106"
         cy="-79.448494"
         r="0.28158441"
         transform="rotate(-90)" />
      <circle
         style="fill:#ff0000;stroke:none;stroke-width:0.264583;stroke-opacity:1"
         id="refblock-5-7-3-81-7-9"
         cx="-84.875122"
         cy="-79.449738"
         r="0.28158441"
         transform="rotate(-90)" />
      <text
         xml:space="preserve"
         style="font-size:1.05833px;text-align:center;text-anchor:middle;fill:#000000;stroke-width:0.264583"
         x="-80.623466"
         y="-81.24144"
         id="text14-3-0-5-0-5"
         transform="rotate(-90)"
         inkscape:transform-center-x="-0.34198176"
         inkscape:transform-center-y="-0.053997121"><tspan
           sodipodi:role="line"
           id="tspan14-1-4-0-4-8"
           style="font-size:1.05833px;text-align:center;text-anchor:middle;stroke-width:0.264583"
           x="-80.623466"
           y="-81.24144">{REF}</tspan></text>
      <path
         style="fill:#000000;fill-opacity:0;stroke:#000000;stroke-width:0.119062"
         d="m -80.712292,79.727918 h 2.519866"
         id="path2" />
      <path
         style="fill:#000000;fill-opacity:0;stroke:#000000;stroke-width:0.119062"
         d="m -80.713255,81.098026 h 2.519866"
         id="path2-8" />
      <path
         id="path8704-1"
         style="display:inline;fill:none;stroke:#000000;stroke-width:0.213434;stroke-linecap:round;stroke-linejoin:round;stroke-dasharray:none"
         inkscape:transform-center-x="0.57690639"
         inkscape:transform-center-y="-1.1627802"
         d="m -78.1598 81.1445 c -0.0199527 0.0396771 -0.0402037 0.0779353 -0.0607328 0.114808 c -0.0216312 0.0388523 -0.0435712 0.0761664 -0.0657961 0.111981 c -0.0234755 0.0378301 -0.0472691 0.0739875 -0.0713526 0.108518 c -0.0254983 0.0365592 -0.0513217 0.0712949 -0.077437 0.104262 c -0.0277012 0.034969 -0.0557309 0.0679478 -0.0840494 0.0990016 c -0.0300716 0.0329762 -0.060469 0.0637818 -0.0911446 0.0924947 c -0.0325728 0.0304887 -0.0654594 0.0586178 -0.098603 0.0844809 c -0.0351299 0.0274131 -0.0705486 0.0522803 -0.106188 0.0747131 c -0.0376113 0.0236737 -0.0754689 0.044636 -0.113493 0.0630178 c -0.0398532 0.0192659 -0.0798897 0.035697 -0.120018 0.049444 c -0.0416641 0.0142731 -0.0834272 0.0256527 -0.125187 0.0343072 c -0.0428786 0.00888647 -0.0857537 0.0148999 -0.128514 0.0182229 c -0.0434202 0.00337419 -0.0867225 0.0039742 -0.129791 0.00199105 c -0.043309 -0.00199424 -0.0863813 -0.0066006 -0.129099 -0.0136248 c -0.042645 -0.00701227 -0.0849365 -0.0164342 -0.126757 -0.0280725 c -0.0415627 -0.0115665 -0.0826604 -0.0253222 -0.123178 -0.0410772 c -0.040182 -0.0156246 -0.0797933 -0.0332158 -0.118721 -0.0525883 c -0.0386108 -0.0192146 -0.0765496 -0.0401817 -0.113707 -0.0627207 c -0.0369081 -0.022388 -0.0730449 -0.0463269 -0.108303 -0.0716399 c -0.0351185 -0.0252127 -0.0693653 -0.0517886 -0.102634 -0.0795529 c -0.0332537 -0.0277517 -0.0655304 -0.0566906 -0.0967239 -0.0866422 c -0.0313115 -0.0300649 -0.0615316 -0.06115 -0.0905531 -0.093079 c -0.029271 -0.0322034 -0.0573227 -0.0652652 -0.0840451 -0.0990041 c -0.0270951 -0.0342096 -0.0528235 -0.0691153 -0.0770704 -0.104528 c -0.0247297 -0.0361182 -0.0479184 -0.072764 -0.0694442 -0.109737 c -0.0221118 -0.0379796 -0.0424691 -0.0763045 -0.0609398 -0.114758"
         sodipodi:nodetypes="cc" />
      <path
         id="path8704-1-7"
         style="display:inline;fill:none;stroke:#000000;stroke-width:0.213434;stroke-linecap:round;stroke-linejoin:round;stroke-dasharray:none"
         inkscape:transform-center-x="-0.57690627"
         inkscape:transform-center-y="-1.1627802"
         d="m -78.1585 79.6822 c -0.0198204 -0.0394141 -0.0399352 -0.077428 -0.0603245 -0.114074 c -0.021478 -0.0386032 -0.0432606 -0.0756891 -0.0653246 -0.111296 c -0.0232963 -0.0375955 -0.0469063 -0.073542 -0.0708027 -0.107885 c -0.0252874 -0.0363418 -0.0508955 -0.0708875 -0.0767918 -0.10369 c -0.027458 -0.0347811 -0.05524 -0.0676029 -0.0833074 -0.098529 c -0.0297942 -0.0328287 -0.0599101 -0.0635213 -0.0903013 -0.0921539 c -0.0322589 -0.0303921 -0.0648281 -0.0584632 -0.0976523 -0.0843041 c -0.0347831 -0.0273831 -0.0698527 -0.0522621 -0.105143 -0.0747451 c -0.0372452 -0.0237285 -0.0747361 -0.0447883 -0.112395 -0.0633066 c -0.0394772 -0.0194121 -0.0791395 -0.0360315 -0.118898 -0.0500047 c -0.0412964 -0.0145137 -0.0826964 -0.0261725 -0.1241 -0.0351407 c -0.042539 -0.00921407 -0.0850821 -0.015588 -0.127521 -0.0192998 c -0.0431245 -0.00377183 -0.0861415 -0.00479492 -0.128937 -0.00325621 c -0.0430628 0.00154831 -0.0859017 0.00569047 -0.128401 0.0122361 c -0.0424515 0.00653822 -0.0845643 0.0154744 -0.126223 0.0266189 c -0.0414144 0.0110791 -0.08238 0.0243406 -0.122784 0.0395979 c -0.0400891 0.0151386 -0.0796249 0.0322422 -0.118497 0.0511286 c -0.0392543 0.0190721 -0.0778314 0.0399623 -0.115618 0.062483 c -0.0375257 0.0223655 -0.0742712 0.046339 -0.110125 0.0717369 c -0.0357009 0.0252897 -0.0705176 0.0519915 -0.10434 0.0799242 c -0.0337982 0.0279128 -0.0666034 0.0570547 -0.0983056 0.0872447 c -0.0318128 0.0302953 -0.062515 0.061646 -0.0919954 0.0938691 c -0.029728 0.0324938 -0.0582137 0.0658749 -0.085343 0.0999555 c -0.0275078 0.0345561 -0.053621 0.0698315 -0.0782211 0.105631 c -0.025093 0.0365165 -0.0486116 0.0735779 -0.0704296 0.110977 c -0.0224064 0.0384075 -0.0430193 0.0771709 -0.0617022 0.116065"
         sodipodi:nodetypes="csc" />
    </g>
  </g>
</svg>
