<svg width="150" height="150" viewBox="-0.54 -0.33345448229999974 1.08 0.6669089645999995" xmlns="http://www.w3.org/2000/svg"><path d="M-0.25,-0.1 L-0.45,-0.1" fill="none" stroke="black" stroke-width="0.02" stroke-linecap="round" stroke-linejoin="round" />
    <path d="M0.45,-0.1 L0.25,-0.1" fill="none" stroke="black" stroke-width="0.02" stroke-linecap="round" stroke-linejoin="round" />
    <path d="M0,0.025 L0,0.275" fill="none" stroke="black" stroke-width="0.02" stroke-linecap="round" stroke-linejoin="round" />
    <path d="M0.125,-0.225 L0.125,0.025" fill="black" stroke="black" stroke-width="0.02" stroke-linecap="round" stroke-linejoin="round" />
    <path d="M0.045,-0.225 L0.045,0.025" fill="black" stroke="black" stroke-width="0.02" stroke-linecap="round" stroke-linejoin="round" />
    <path d="M-0.045,-0.225 L-0.045,0.025" fill="black" stroke="black" stroke-width="0.02" stroke-linecap="round" stroke-linejoin="round" />
    <path d="M0.045,-0.225 L-0.045,-0.225" fill="black" stroke="black" stroke-width="0.02" stroke-linecap="round" stroke-linejoin="round" />
    <path d="M0.045,0.025 L-0.045,0.025" fill="black" stroke="black" stroke-width="0.02" stroke-linecap="round" stroke-linejoin="round" />
    <path d="M-0.125,-0.225 L-0.125,0.025" fill="black" stroke="black" stroke-width="0.02" stroke-linecap="round" stroke-linejoin="round" />
    <path d="M-0.125,-0.225 L-0.137252,-0.224398 L-0.149386,-0.222598 L-0.161286,-0.219618 L-0.172835,-0.215485 L-0.183925,-0.21024 L-0.194446,-0.203934 L-0.204299,-0.196626 L-0.213388,-0.188388 L-0.221626,-0.179299 L-0.228934,-0.169446 L-0.23524,-0.158925 L-0.240485,-0.147835 L-0.244618,-0.136286 L-0.247598,-0.124386 L-0.249398,-0.112252 L-0.25,-0.1 L-0.249398,-0.087748 L-0.247598,-0.075614 L-0.244618,-0.063714 L-0.240485,-0.052165 L-0.23524,-0.041075 L-0.228934,-0.030554 L-0.221626,-0.020701 L-0.213388,-0.011612 L-0.204299,-0.003374 L-0.194446,0.003934 L-0.183925,0.01024 L-0.172835,0.015485 L-0.161286,0.019618 L-0.149386,0.022598 L-0.137252,0.024398 L-0.125,0.025" fill="none" stroke="black" stroke-width="0.02" stroke-linecap="round" stroke-linejoin="round" />
    <path d="M0.125,-0.225 L0.137252,-0.224398 L0.149386,-0.222598 L0.161286,-0.219618 L0.172835,-0.215485 L0.183925,-0.21024 L0.194446,-0.203934 L0.204299,-0.196626 L0.213388,-0.188388 L0.221626,-0.179299 L0.228934,-0.169446 L0.23524,-0.158925 L0.240485,-0.147835 L0.244618,-0.136286 L0.247598,-0.124386 L0.249398,-0.112252 L0.25,-0.1 L0.249398,-0.087748 L0.247598,-0.075614 L0.244618,-0.063714 L0.240485,-0.052165 L0.23524,-0.041075 L0.228934,-0.030554 L0.221626,-0.020701 L0.213388,-0.011612 L0.204299,-0.003374 L0.194446,0.003934 L0.183925,0.01024 L0.172835,0.015485 L0.161286,0.019618 L0.149386,0.022598 L0.137252,0.024398 L0.125,0.025" fill="none" stroke="black" stroke-width="0.02" stroke-linecap="round" stroke-linejoin="round" />
    <text x="-0.020635199999998965" y="-0.28075747049999955" dx="0" dy="0" text-anchor="middle" style="font: 0.1px monospace; fill: black">{REF}</text><rect x="-0.03313519999999896" y="-0.29325747049999956" width="0.025" height="0.025" fill="blue" />

    
    <line x1="-0.47500000000000003" y1="-0.125" x2="-0.425" y2="-0.07500000000000001" stroke="red" stroke-width="0.004" />
    <line x1="-0.47500000000000003" y1="-0.07500000000000001" x2="-0.425" y2="-0.125" stroke="red" stroke-width="0.004" />
  
    <text x="-0.49" y="-0.010000000000000002"
      text-anchor="middle" style="font: 0.08px monospace; fill: #833;">1</text>
  
    
    
    <line x1="0.425" y1="-0.125" x2="0.47500000000000003" y2="-0.07500000000000001" stroke="red" stroke-width="0.004" />
    <line x1="0.425" y1="-0.07500000000000001" x2="0.47500000000000003" y2="-0.125" stroke="red" stroke-width="0.004" />
  
    <text x="0.41000000000000003" y="-0.010000000000000002"
      text-anchor="middle" style="font: 0.08px monospace; fill: #833;">3</text>
  
    
    
    <line x1="-0.025" y1="0.25" x2="0.025" y2="0.30000000000000004" stroke="red" stroke-width="0.004" />
    <line x1="-0.025" y1="0.30000000000000004" x2="0.025" y2="0.25" stroke="red" stroke-width="0.004" />
  
    <text x="-0.04" y="0.365"
      text-anchor="middle" style="font: 0.08px monospace; fill: #833;">2</text>
  
<path d="M 0 -0.025 L 0.025 0 L 0 0.025 L -0.025 0 Z" fill="green" />
<text x="-0.45" y="-0.2778787352499998" style="font: 0.05px monospace; fill: #833;">0.90 x 0.56</text>
<text x="-0.45" y="-0.2778787352499998" style="font: 0.05px monospace; fill: #833;">0.90 x 0.56</text></svg>