<?xml version="1.0" encoding="UTF-8" standalone="no"?>
<!-- Created with Inkscape (http://www.inkscape.org/) -->

<svg
   width="30mm"
   height="30mm"
   viewBox="0 0 30 30"
   version="1.1"
   id="svg1"
   inkscape:version="1.3.2 (091e20e, 2023-11-25)"
   sodipodi:docname="text_paths_sample.svg"
   xmlns:inkscape="http://www.inkscape.org/namespaces/inkscape"
   xmlns:sodipodi="http://sodipodi.sourceforge.net/DTD/sodipodi-0.dtd"
   xmlns="http://www.w3.org/2000/svg"
   xmlns:svg="http://www.w3.org/2000/svg">
  <sodipodi:namedview
     id="namedview1"
     pagecolor="#ffffff"
     bordercolor="#000000"
     borderopacity="0.25"
     inkscape:showpageshadow="2"
     inkscape:pageopacity="0.0"
     inkscape:pagecheckerboard="false"
     inkscape:deskcolor="#d1d1d1"
     inkscape:document-units="mm"
     inkscape:zoom="14.182023"
     inkscape:cx="51.015288"
     inkscape:cy="60.88694"
     inkscape:window-width="1512"
     inkscape:window-height="860"
     inkscape:window-x="185"
     inkscape:window-y="938"
     inkscape:window-maximized="0"
     inkscape:current-layer="root"
     showgrid="true"
     showguides="true">
    <inkscape:grid
       id="grid207"
       units="mm"
       originx="0"
       originy="0"
       spacingx="10"
       spacingy="10"
       empcolor="#0099e5"
       empopacity="0.30196078"
       color="#0099e5"
       opacity="0.14901961"
       empspacing="5"
       dotted="false"
       gridanglex="30"
       gridanglez="30"
       visible="true" />
  </sodipodi:namedview>
  <defs
     id="defs1" />
  <g
     inkscape:label="root"
     inkscape:groupmode="layer"
     id="root">
    <g
       id="potentiometer"
       transform="rotate(90,-19.246732,-62.458284)"
       inkscape:label="dc_voltmeter">
      <path
         style="font-size:0.66904px;opacity:0.926175;fill:none;stroke:#000000;stroke-width:0.1;paint-order:stroke fill markers"
         d="m 101.36351,57.821625 h -0.08 l -0.23064,-0.435138 v 0.435138 h -0.0604 v -0.486426 h 0.10029 l 0.21039,0.397242 v -0.397242 h 0.0604 z"
         id="path59"
         transform="rotate(-90,-0.32392646,0.44171905)" />
      <path
         style="font-size:0.66904px;opacity:0.926175;fill:none;stroke:#000000;stroke-width:0.1;paint-order:stroke fill markers"
         d="m 100.62652,57.821625 h -0.0647 v -0.41913 l -0.13525,0.285191 h -0.0385 l -0.13427,-0.285191 v 0.41913 h -0.0604 v -0.486426 h 0.0882 l 0.12969,0.270817 0.12545,-0.270817 h 0.0898 z"
         id="path58"
         transform="rotate(-90,-0.32392646,0.44171905)" />
      <path
         style="font-size:0.66904px;opacity:0.926175;fill:none;stroke:#000000;stroke-width:0.1;paint-order:stroke fill markers"
         d="M 99.893453,57.821625 H 99.58572 v -0.486426 h 0.06468 v 0.42893 h 0.24305 z"
         id="path57"
         transform="rotate(-90,-0.32392646,0.44171905)" />
      <path
         style="font-size:0.66904px;opacity:0.926175;fill:none;stroke:#000000;stroke-width:0.1;paint-order:stroke fill markers"
         d="m 99.277988,57.821625 h -0.08396 l -0.192415,-0.216589 -0.04835,0.05162 v 0.164973 h -0.06468 v -0.486426 h 0.06468 v 0.25383 l 0.236189,-0.25383 h 0.0784 l -0.217242,0.228675 z"
         id="path56"
         transform="rotate(-90,-0.32392646,0.44171905)" />
      <path
         style="font-size:0.66904px;opacity:0.926175;fill:none;stroke:#000000;stroke-width:0.1;paint-order:stroke fill markers"
         d="m 98.525972,57.6952 q 0,0.06403 -0.0392,0.09866 -0.03888,0.03463 -0.104537,0.03463 -0.01568,0 -0.04181,-0.0029 -0.02613,-0.0026 -0.04378,-0.0065 v -0.06044 h 0.0036 q 0.01339,0.0046 0.03299,0.0095 0.0196,0.0049 0.04018,0.0049 0.03006,0 0.0477,-0.0069 0.01797,-0.0069 0.02646,-0.0196 0.0088,-0.01307 0.01111,-0.03201 0.0026,-0.01895 0.0026,-0.04378 v -0.283885 h -0.102904 v -0.05161 h 0.167587 z"
         id="path55"
         transform="rotate(-90,-0.32392646,0.44171905)" />
      <path
         style="font-size:0.66904px;opacity:0.926175;fill:none;stroke:#000000;stroke-width:0.1;paint-order:stroke fill markers"
         d="m 98.002309,57.821622 h -0.192088 v -0.04966 h 0.0637 v -0.387115 h -0.0637 v -0.04965 h 0.192088 v 0.04965 h -0.0637 v 0.387115 h 0.0637 z"
         id="path54"
         transform="rotate(-90,-0.32392646,0.44171905)" />
      <path
         style="font-size:0.66904px;opacity:0.926175;fill:none;stroke:#000000;stroke-width:0.1;paint-order:stroke fill markers"
         d="m 97.464921,57.821622 h -0.06468 v -0.23815 H 97.15751 v 0.23815 h -0.06468 v -0.486426 h 0.06468 v 0.190781 h 0.242723 v -0.190781 h 0.06468 z"
         id="path53"
         transform="rotate(-90,-0.32392646,0.44171905)" />
      <path
         style="font-size:0.66904px;opacity:0.926175;fill:none;stroke:#000000;stroke-width:0.1;paint-order:stroke fill markers"
         d="m 96.744592,57.785692 q -0.03985,0.01829 -0.08722,0.03201 -0.04704,0.01339 -0.09114,0.01339 -0.05684,0 -0.104211,-0.01568 -0.04737,-0.01568 -0.08069,-0.04704 -0.03365,-0.03169 -0.05194,-0.07906 -0.01829,-0.04769 -0.01829,-0.111397 0,-0.116625 0.06795,-0.183921 0.06828,-0.06762 0.187188,-0.06762 0.04149,0 0.08461,0.01013 0.04345,0.0098 0.09343,0.03365 v 0.07677 h -0.0059 q -0.01013,-0.0078 -0.0294,-0.02058 -0.01927,-0.01274 -0.0379,-0.02123 -0.02254,-0.01013 -0.05129,-0.01666 -0.02842,-0.0069 -0.06468,-0.0069 -0.08167,0 -0.129366,0.0526 -0.04737,0.05227 -0.04737,0.141779 0,0.09441 0.04966,0.147005 0.04966,0.05227 0.135246,0.05227 0.03136,0 0.06239,-0.0062 0.03136,-0.0062 0.05488,-0.01601 V 57.63376 h -0.130346 v -0.05684 h 0.194375 z"
         id="path52"
         transform="rotate(-90,-0.32392646,0.44171905)" />
      <path
         style="font-size:0.66904px;opacity:0.926175;fill:none;stroke:#000000;stroke-width:0.1;paint-order:stroke fill markers"
         d="m 96.029817,57.392696 h -0.24599 V 57.5299 h 0.211362 v 0.0575 h -0.211362 v 0.23423 h -0.06468 v -0.486426 h 0.310672 z"
         id="path51"
         transform="rotate(-90,-0.32392646,0.44171905)" />
      <path
         style="font-size:0.66904px;opacity:0.926175;fill:none;stroke:#000000;stroke-width:0.1;paint-order:stroke fill markers"
         d="M 95.381358,57.821627 H 95.06088 v -0.486426 h 0.320473 v 0.05749 h -0.255791 v 0.133286 h 0.255791 v 0.0575 h -0.255791 v 0.180654 h 0.255791 z"
         id="path50"
         transform="rotate(-90,-0.32392646,0.44171905)" />
      <path
         style="font-size:0.66904px;opacity:0.926175;fill:none;stroke:#000000;stroke-width:0.1;paint-order:stroke fill markers"
         d="m 94.653515,57.577924 q 0,-0.05717 -0.01993,-0.09637 -0.01993,-0.0392 -0.05946,-0.06174 -0.02875,-0.01633 -0.06109,-0.02254 -0.03234,-0.0065 -0.07742,-0.0065 h -0.06076 v 0.375355 h 0.06076 q 0.04672,0 0.08134,-0.0069 0.03495,-0.0069 0.06403,-0.02548 0.03626,-0.02319 0.05423,-0.06109 0.01829,-0.0379 0.01829,-0.09474 z"
         id="path49"
         transform="rotate(-90,-0.32392646,0.44171905)" />
      <path
         style="font-size:0.66904px;opacity:0.926175;fill:none;stroke:#000000;stroke-width:0.1;paint-order:stroke fill markers"
         d="m 94.721135,57.578904 q 0,0.06632 -0.02907,0.120218 -0.02875,0.0539 -0.07677,0.08363 -0.03332,0.02058 -0.07448,0.02973 -0.04084,0.0091 -0.107805,0.0091 h -0.12284 v -0.486426 h 0.121525 q 0.07122,0 0.113031,0.01045 0.04214,0.01013 0.07122,0.0281 0.04966,0.03103 0.07742,0.08265 0.02777,0.05161 0.02777,0.122505 z"
         id="path48"
         transform="rotate(-90,-0.32392646,0.44171905)" />
      <path
         style="font-size:0.66904px;opacity:0.926175;fill:none;stroke:#000000;stroke-width:0.1;paint-order:stroke fill markers"
         d="m 93.983492,57.786345 q -0.01797,0.0078 -0.03267,0.0147 -0.01437,0.0069 -0.0379,0.01437 -0.01993,0.0062 -0.04345,0.01045 -0.02319,0.0046 -0.05129,0.0046 -0.05292,0 -0.09637,-0.0147 -0.04312,-0.01503 -0.07514,-0.04672 -0.03136,-0.03103 -0.049,-0.07873 -0.01764,-0.04802 -0.01764,-0.111398 0,-0.06011 0.01699,-0.107478 0.01699,-0.04737 0.049,-0.08004 0.03104,-0.03169 0.07481,-0.04835 0.0441,-0.01666 0.09768,-0.01666 0.0392,0 0.07808,0.0095 0.0392,0.0095 0.0869,0.03332 v 0.07677 h -0.0049 q -0.04018,-0.03365 -0.07971,-0.049 -0.03953,-0.01535 -0.08461,-0.01535 -0.03691,0 -0.06664,0.01209 -0.0294,0.01176 -0.05259,0.03692 -0.02254,0.0245 -0.03528,0.06207 -0.01241,0.03724 -0.01241,0.08624 0,0.05129 0.01372,0.0882 0.01405,0.03692 0.03593,0.06011 0.02287,0.02418 0.05325,0.03594 0.03071,0.01143 0.06468,0.01143 0.04672,0 0.08755,-0.01601 0.04084,-0.01601 0.07644,-0.04802 h 0.0046 z"
         id="path47"
         transform="rotate(-90,-0.32392646,0.44171905)" />
      <path
         style="font-size:0.66904px;opacity:0.926175;fill:none;stroke:#000000;stroke-width:0.1;paint-order:stroke fill markers"
         d="m 93.213508,57.674621 q 0,-0.0294 -0.0088,-0.04671 -0.0088,-0.01731 -0.03202,-0.0294 -0.01568,-0.0082 -0.03822,-0.01045 -0.02222,-0.0026 -0.05423,-0.0026 H 92.97864 v 0.180981 h 0.08559 q 0.04247,0 0.06958,-0.0042 0.02711,-0.0046 0.04443,-0.01633 0.01829,-0.01274 0.02679,-0.02907 0.0085,-0.01633 0.0085,-0.04214 z"
         id="path46"
         transform="rotate(-90,-0.32392646,0.44171905)" />
      <path
         style="font-size:0.66904px;opacity:0.926175;fill:none;stroke:#000000;stroke-width:0.1;paint-order:stroke fill markers"
         d="m 93.172018,57.452805 q 0,-0.01764 -0.0059,-0.02973 -0.0059,-0.01209 -0.01895,-0.0196 -0.01535,-0.0088 -0.03724,-0.01078 -0.02189,-0.0023 -0.05423,-0.0023 h -0.0771 v 0.140472 h 0.08363 q 0.03038,0 0.04835,-0.0029 0.01797,-0.0033 0.03332,-0.01307 0.01535,-0.0098 0.02156,-0.02515 0.0065,-0.01568 0.0065,-0.03692 z"
         id="path45"
         transform="rotate(-90,-0.32392646,0.44171905)" />
      <path
         style="font-size:0.66904px;opacity:0.926175;fill:none;stroke:#000000;stroke-width:0.1;paint-order:stroke fill markers"
         d="m 93.280802,57.672007 q 0,0.03626 -0.01372,0.06403 -0.01372,0.02777 -0.03692,0.04574 -0.02744,0.02156 -0.06044,0.03071 -0.03267,0.0091 -0.0833,0.0091 h -0.172487 v -0.486426 h 0.144066 q 0.05325,0 0.07971,0.0039 0.02646,0.0039 0.05063,0.01633 0.02679,0.01405 0.03888,0.03626 0.01209,0.02189 0.01209,0.0526 0,0.03463 -0.01764,0.05913 -0.01764,0.02417 -0.04704,0.03887 v 0.0026 q 0.04933,0.01013 0.07775,0.04345 0.02842,0.03299 0.02842,0.08363 z"
         id="path44"
         transform="rotate(-90,-0.32392646,0.44171905)" />
      <path
         style="font-size:0.66904px;opacity:0.926175;fill:none;stroke:#000000;stroke-width:0.1;paint-order:stroke fill markers"
         d="M 92.46835,57.630517 92.38309,57.391714 92.2975,57.630517 Z"
         id="path43"
         transform="rotate(-90,-0.32392646,0.44171905)" />
      <path
         style="font-size:0.66904px;opacity:0.926175;fill:none;stroke:#000000;stroke-width:0.1;paint-order:stroke fill markers"
         d="m 92.604902,57.821625 h -0.06893 l -0.0477,-0.135572 h -0.210381 l -0.0477,0.135572 h -0.06566 l 0.17706,-0.486426 h 0.08624 z"
         id="path39"
         transform="rotate(-90,-0.32392646,0.44171905)" />
      <path
         style="font-size:0.66904px;opacity:0.926175;fill:none;stroke:#000000;stroke-width:0.1;paint-order:stroke fill markers"
         d="m 100.43411,58.657925 h -0.3796 v -0.06011 l 0.29825,-0.368822 h -0.28715 v -0.0575 h 0.36131 v 0.05848 l -0.3012,0.370455 h 0.30839 z"
         id="path74"
         transform="rotate(-90,-0.32392646,0.44171905)" />
      <path
         style="font-size:0.66904px;opacity:0.926175;fill:none;stroke:#000000;stroke-width:0.1;paint-order:stroke fill markers"
         d="m 99.776175,58.171499 -0.17118,0.273104 v 0.213322 h -0.06468 v -0.206462 l -0.171833,-0.279964 h 0.07154 l 0.132959,0.217568 0.134265,-0.217568 z"
         id="path73"
         transform="rotate(-90,-0.32392646,0.44171905)" />
      <path
         style="font-size:0.66904px;opacity:0.926175;fill:none;stroke:#000000;stroke-width:0.1;paint-order:stroke fill markers"
         d="m 99.109422,58.171499 -0.167914,0.240436 0.167587,0.24599 h -0.07481 l -0.132632,-0.200255 -0.135899,0.200255 h -0.07056 l 0.169546,-0.24305 -0.165626,-0.243376 h 0.07448 l 0.130998,0.197641 0.133939,-0.197641 z"
         id="path72"
         transform="rotate(-90,-0.32392646,0.44171905)" />
      <path
         style="font-size:0.66904px;opacity:0.926175;fill:none;stroke:#000000;stroke-width:0.1;paint-order:stroke fill markers"
         d="m 98.407714,58.171499 -0.126425,0.486426 h -0.07285 l -0.102251,-0.403776 -0.09996,0.403776 h -0.07122 l -0.128712,-0.486426 h 0.06632 l 0.102251,0.404429 0.100617,-0.404429 h 0.06566 l 0.101597,0.408349 0.101598,-0.408349 z"
         id="path71"
         transform="rotate(-90,-0.32392646,0.44171905)" />
      <path
         style="font-size:0.66904px;opacity:0.926175;fill:none;stroke:#000000;stroke-width:0.1;paint-order:stroke fill markers"
         d="m 97.532539,58.171499 -0.177061,0.486426 h -0.08624 l -0.177061,-0.486426 h 0.06926 l 0.15256,0.42795 0.152559,-0.42795 z"
         id="path70"
         transform="rotate(-90,-0.32392646,0.44171905)" />
      <path
         style="font-size:0.66904px;opacity:0.926175;fill:none;stroke:#000000;stroke-width:0.1;paint-order:stroke fill markers"
         d="m 96.790322,58.46257 q 0,0.05292 -0.01176,0.09245 -0.01143,0.0392 -0.03789,0.06534 -0.02515,0.02483 -0.0588,0.03626 -0.03365,0.01143 -0.0784,0.01143 -0.04574,0 -0.07971,-0.01209 -0.03397,-0.01209 -0.05717,-0.03561 -0.02646,-0.02679 -0.03822,-0.06468 -0.01143,-0.0379 -0.01143,-0.0931 v -0.291071 h 0.06468 v 0.294338 q 0,0.03953 0.0052,0.0624 0.0056,0.02287 0.01829,0.04149 0.01437,0.02123 0.03887,0.03202 0.02483,0.01078 0.05946,0.01078 0.03495,0 0.05945,-0.01045 0.0245,-0.01078 0.0392,-0.03234 0.01274,-0.01862 0.01797,-0.04247 0.0056,-0.02417 0.0056,-0.05978 v -0.295972 h 0.06468 z"
         id="path69"
         transform="rotate(-90,-0.32392646,0.44171905)" />
      <path
         style="font-size:0.66904px;opacity:0.926175;fill:none;stroke:#000000;stroke-width:0.1;paint-order:stroke fill markers"
         d="m 96.123569,58.228994 h -0.173794 v 0.428931 h -0.06468 v -0.428931 h -0.173794 v -0.0575 h 0.41227 z"
         id="path68"
         transform="rotate(-90,-0.32392646,0.44171905)" />
      <path
         style="font-size:0.66904px;opacity:0.926175;fill:none;stroke:#000000;stroke-width:0.1;paint-order:stroke fill markers"
         d="m 95.437542,58.519086 q 0,0.02842 -0.01339,0.05619 -0.01307,0.02777 -0.03692,0.04704 -0.02613,0.02091 -0.06109,0.03267 -0.03463,0.01176 -0.08363,0.01176 -0.0526,0 -0.09474,-0.0098 -0.04181,-0.0098 -0.08526,-0.02907 v -0.08102 h 0.0046 q 0.03691,0.03071 0.08526,0.04737 0.04835,0.01666 0.09082,0.01666 0.06011,0 0.09343,-0.02254 0.03365,-0.02254 0.03365,-0.06011 0,-0.03234 -0.01601,-0.04769 -0.01568,-0.01535 -0.04802,-0.02385 -0.0245,-0.0065 -0.05325,-0.01078 -0.02842,-0.0042 -0.06044,-0.01078 -0.06468,-0.01372 -0.09604,-0.04672 -0.03103,-0.03332 -0.03103,-0.08657 0,-0.06109 0.05162,-0.09996 0.05161,-0.0392 0.130998,-0.0392 0.05129,0 0.09408,0.0098 0.04279,0.0098 0.07579,0.02417 v 0.07644 h -0.0046 q -0.02777,-0.02352 -0.07318,-0.03888 -0.04508,-0.01568 -0.09245,-0.01568 -0.05194,0 -0.08363,0.02156 -0.03136,0.02156 -0.03136,0.05554 0,0.03038 0.01568,0.04769 0.01568,0.01731 0.05521,0.02646 0.02091,0.0046 0.05946,0.01111 0.03855,0.0065 0.06534,0.01339 0.05423,0.01437 0.08167,0.04345 0.02744,0.02907 0.02744,0.08134 z"
         id="path67"
         transform="rotate(-90,-0.32392646,0.44171905)" />
      <path
         style="font-size:0.66904px;opacity:0.926175;fill:none;stroke:#000000;stroke-width:0.1;paint-order:stroke fill markers"
         d="m 94.63489,58.308378 q 0,-0.02091 -0.0075,-0.03692 -0.0072,-0.01633 -0.02417,-0.02744 -0.01405,-0.0095 -0.03332,-0.01307 -0.01927,-0.0039 -0.04541,-0.0039 h -0.07612 v 0.183594 h 0.06534 q 0.03071,0 0.05358,-0.0052 0.02287,-0.0056 0.03888,-0.02025 0.0147,-0.01372 0.02156,-0.03136 0.0072,-0.01797 0.0072,-0.04541 z"
         id="path66"
         transform="rotate(-90,-0.32392646,0.44171905)" />
      <path
         style="font-size:0.66904px;opacity:0.926175;fill:none;stroke:#000000;stroke-width:0.1;paint-order:stroke fill markers"
         d="m 94.786114,58.657892 h -0.08396 L 94.539499,58.46453 h -0.09114 v 0.193395 h -0.06468 v -0.486426 h 0.136225 q 0.0441,0 0.0735,0.0059 0.0294,0.0056 0.05292,0.02025 0.02646,0.01666 0.04116,0.04214 0.01503,0.02515 0.01503,0.06403 0,0.0526 -0.02646,0.0882 -0.02646,0.03528 -0.07285,0.05325 z"
         id="path65"
         transform="rotate(-90,-0.32392646,0.44171905)" />
      <path
         style="font-size:0.66904px;opacity:0.926175;fill:none;stroke:#000000;stroke-width:0.1;paint-order:stroke fill markers"
         d="m 93.978562,58.414842 q 0,-0.09474 -0.04247,-0.146026 -0.04247,-0.05162 -0.115972,-0.05162 -0.07416,0 -0.116624,0.05162 -0.04214,0.05129 -0.04214,0.146026 0,0.09572 0.04312,0.146679 0.04312,0.05064 0.115644,0.05064 0.07252,0 0.115318,-0.05064 0.04312,-0.05096 0.04312,-0.146679 z"
         id="path64"
         transform="rotate(-90,-0.32392646,0.44171905)" />
      <path
         style="font-size:0.66904px;opacity:0.926175;fill:none;stroke:#000000;stroke-width:0.1;paint-order:stroke fill markers"
         d="m 94.055662,58.77713 q -0.0196,0.0049 -0.03887,0.0069 -0.01895,0.0023 -0.03888,0.0023 -0.05684,0 -0.09147,-0.03136 -0.0343,-0.03104 -0.03724,-0.08918 -0.0078,0.0013 -0.01535,0.0016 -0.0072,6.54e-4 -0.01405,6.54e-4 -0.05129,0 -0.09343,-0.01699 -0.04181,-0.01699 -0.07122,-0.04933 -0.0294,-0.03234 -0.04541,-0.07938 -0.01568,-0.04704 -0.01568,-0.107478 0,-0.05946 0.01568,-0.106497 0.01568,-0.04737 0.04573,-0.08102 0.02875,-0.03202 0.07122,-0.049 0.04279,-0.01699 0.0931,-0.01699 0.05227,0 0.09376,0.01731 0.04181,0.01699 0.07089,0.04868 0.02973,0.03267 0.04541,0.08004 0.01601,0.04737 0.01601,0.107478 0,0.08918 -0.03659,0.150273 -0.03626,0.06109 -0.09768,0.08559 0.0013,0.03724 0.01764,0.05782 0.01633,0.02058 0.05946,0.02058 0.01339,0 0.03169,-0.0042 0.01862,-0.0039 0.02646,-0.0072 h 0.0088 z"
         id="path63"
         transform="rotate(-90,-0.32392646,0.44171905)" />
      <path
         style="font-size:0.66904px;opacity:0.926175;fill:none;stroke:#000000;stroke-width:0.1;paint-order:stroke fill markers"
         d="m 93.234063,58.320105 q 0,-0.02515 -0.0088,-0.04377 -0.0088,-0.01862 -0.02679,-0.03038 -0.01568,-0.01013 -0.03594,-0.01437 -0.01993,-0.0046 -0.05063,-0.0046 h -0.06403 v 0.194375 h 0.05455 q 0.0392,0 0.0637,-0.0069 0.0245,-0.0072 0.03986,-0.02254 0.01535,-0.01568 0.02156,-0.03299 0.0065,-0.01731 0.0065,-0.03887 z"
         id="path62"
         transform="rotate(-90,-0.32392646,0.44171905)" />
      <path
         style="font-size:0.66904px;opacity:0.926175;fill:none;stroke:#000000;stroke-width:0.1;paint-order:stroke fill markers"
         d="m 93.301363,58.318505 q 0,0.03234 -0.01143,0.06011 -0.01111,0.02744 -0.03136,0.0477 -0.02515,0.02515 -0.05946,0.03789 -0.0343,0.01241 -0.08657,0.01241 h -0.06468 v 0.181307 h -0.06468 v -0.486426 h 0.131979 q 0.04377,0 0.07416,0.0075 0.03038,0.0072 0.0539,0.02287 0.02777,0.01862 0.04279,0.04639 0.01535,0.02777 0.01535,0.07024 z"
         id="path61"
         transform="rotate(-90,-0.32392646,0.44171905)" />
      <path
         style="font-size:0.66904px;opacity:0.926175;fill:none;stroke:#000000;stroke-width:0.1;paint-order:stroke fill markers"
         d="m 92.578094,58.414875 q 0,-0.09474 -0.04247,-0.146026 -0.04247,-0.05162 -0.115971,-0.05162 -0.07416,0 -0.116625,0.05162 -0.04214,0.05129 -0.04214,0.146026 0,0.09572 0.04312,0.146679 0.04312,0.05064 0.115645,0.05064 0.07252,0 0.115317,-0.05064 0.04312,-0.05096 0.04312,-0.146679 z"
         id="path60"
         transform="rotate(-90,-0.32392646,0.44171905)" />
      <path
         style="font-size:0.66904px;opacity:0.926175;fill:none;stroke:#000000;stroke-width:0.1;paint-order:stroke fill markers"
         d="m 92.583994,58.227361 q 0.02973,0.03267 0.04541,0.08004 0.01601,0.04737 0.01601,0.107478 0,0.06011 -0.01633,0.107804 -0.01601,0.04737 -0.04508,0.07906 -0.03005,0.03299 -0.07122,0.04965 -0.04084,0.01666 -0.09343,0.01666 -0.05129,0 -0.09343,-0.01699 -0.04181,-0.01699 -0.07122,-0.04933 -0.0294,-0.03234 -0.04541,-0.07938 -0.01568,-0.04704 -0.01568,-0.107478 0,-0.05946 0.01568,-0.106497 0.01568,-0.04737 0.04573,-0.08102 0.02875,-0.03202 0.07122,-0.049 0.04279,-0.01699 0.0931,-0.01699 0.05227,0 0.09376,0.01731 0.04181,0.01699 0.07089,0.04868 z"
         id="path40"
         transform="rotate(-90,-0.32392646,0.44171905)" />
      <path
         style="font-size:0.66904px;opacity:0.926175;fill:none;stroke:#000000;stroke-width:0.1;paint-order:stroke fill markers"
         d="m 101.53403,59.308928 q 0,-0.06599 -0.0225,-0.09866 -0.0225,-0.03267 -0.0693,-0.03267 -0.0265,0 -0.0532,0.01143 -0.0268,0.01143 -0.0513,0.03005 v 0.206788 q 0.0261,0.01176 0.0448,0.01601 0.019,0.0042 0.0428,0.0042 0.0513,0 0.08,-0.03463 0.0288,-0.03463 0.0288,-0.102578 z"
         id="path98"
         transform="rotate(-90,-0.32392646,0.44171905)" />
      <path
         style="font-size:0.66904px;opacity:0.926175;fill:none;stroke:#000000;stroke-width:0.1;paint-order:stroke fill markers"
         d="m 101.59743,59.307328 q 0,0.04443 -0.0127,0.08134 -0.0127,0.03659 -0.0359,0.06207 -0.0216,0.02417 -0.051,0.03757 -0.0291,0.01307 -0.0618,0.01307 -0.0284,0 -0.0516,-0.0062 -0.0229,-0.0062 -0.0467,-0.01927 v 0.152886 h -0.0614 v -0.499493 h 0.0614 v 0.03822 q 0.0245,-0.02058 0.0549,-0.0343 0.0307,-0.01405 0.0653,-0.01405 0.066,0 0.10258,0.04998 0.0369,0.04966 0.0369,0.138185 z"
         id="path97"
         transform="rotate(-90,-0.32392646,0.44171905)" />
      <path
         style="font-size:0.66904px;opacity:0.926175;fill:none;stroke:#000000;stroke-width:0.1;paint-order:stroke fill markers"
         d="m 100.88266,59.311928 q 0,-0.07089 -0.0278,-0.105191 -0.0278,-0.03463 -0.0771,-0.03463 -0.05,0 -0.0777,0.03463 -0.0275,0.0343 -0.0275,0.105191 0,0.0686 0.0278,0.10421 0.0278,0.03528 0.0774,0.03528 0.049,0 0.0768,-0.03496 0.0281,-0.03528 0.0281,-0.104537 z"
         id="path96"
         transform="rotate(-90,-0.32392646,0.44171905)" />
      <path
         style="font-size:0.66904px;opacity:0.926175;fill:none;stroke:#000000;stroke-width:0.1;paint-order:stroke fill markers"
         d="m 100.94606,59.311928 q 0,0.08918 -0.0457,0.140798 -0.0457,0.05162 -0.12251,0.05162 -0.0774,0 -0.12315,-0.05162 -0.0454,-0.05161 -0.0454,-0.140798 0,-0.08918 0.0454,-0.140799 0.0457,-0.05194 0.12315,-0.05194 0.0768,0 0.12251,0.05194 0.0457,0.05162 0.0457,0.140799 z"
         id="path95"
         transform="rotate(-90,-0.32392646,0.44171905)" />
      <path
         style="font-size:0.66904px;opacity:0.926175;fill:none;stroke:#000000;stroke-width:0.1;paint-order:stroke fill markers"
         d="m 100.28159,59.494215 h -0.0614 v -0.207768 q 0,-0.02515 -0.003,-0.04704 -0.003,-0.02222 -0.0108,-0.03463 -0.008,-0.01372 -0.0235,-0.02026 -0.0153,-0.0069 -0.0399,-0.0069 -0.0252,0 -0.0526,0.01241 -0.0274,0.01241 -0.0526,0.03169 v 0.272451 h -0.06142 v -0.364901 h 0.06142 v 0.04051 q 0.0287,-0.02385 0.0594,-0.03724 0.0307,-0.01339 0.063,-0.01339 0.0591,0 0.0902,0.03561 0.031,0.03561 0.031,0.102577 z"
         id="path94"
         transform="rotate(-90,-0.32392646,0.44171905)" />
      <path
         style="font-size:0.66904px;opacity:0.926175;fill:none;stroke:#000000;stroke-width:0.1;paint-order:stroke fill markers"
         d="m 99.623001,59.494215 h -0.06142 v -0.207768 q 0,-0.02352 -0.0023,-0.04541 -0.002,-0.02189 -0.0088,-0.03495 -0.0075,-0.01405 -0.02156,-0.02123 -0.01405,-0.0072 -0.04051,-0.0072 -0.02581,0 -0.05161,0.01307 -0.02581,0.01274 -0.05162,0.03267 9.8e-4,0.0075 0.0016,0.01764 6.53e-4,0.0098 6.53e-4,0.0196 v 0.233576 h -0.06142 v -0.207768 q 0,-0.02417 -0.0023,-0.04574 -0.002,-0.02189 -0.0088,-0.03495 -0.0075,-0.01405 -0.02156,-0.02091 -0.01405,-0.0072 -0.04051,-0.0072 -0.02515,0 -0.05063,0.01241 -0.02515,0.01241 -0.05031,0.03169 v 0.272451 h -0.06142 v -0.364901 h 0.06142 v 0.04051 q 0.02875,-0.02385 0.05717,-0.03724 0.02875,-0.01339 0.06109,-0.01339 0.03724,0 0.06305,0.01568 0.02613,0.01568 0.03888,0.04345 0.03724,-0.03136 0.06795,-0.04508 0.03071,-0.01405 0.06566,-0.01405 0.06011,0 0.08853,0.03659 0.02875,0.03626 0.02875,0.101597 z"
         id="path93"
         transform="rotate(-90,-0.32392646,0.44171905)" />
      <path
         style="font-size:0.66904px;opacity:0.926175;fill:none;stroke:#000000;stroke-width:0.1;paint-order:stroke fill markers"
         d="m 98.733779,59.494215 h -0.06142 v -0.508314 h 0.06142 z"
         id="path92"
         transform="rotate(-90,-0.32392646,0.44171905)" />
      <path
         style="font-size:0.66904px;opacity:0.926175;fill:none;stroke:#000000;stroke-width:0.1;paint-order:stroke fill markers"
         d="m 98.371818,59.494215 h -0.08102 l -0.146352,-0.159747 -0.03985,0.0379 v 0.121852 h -0.06142 v -0.508314 h 0.06142 v 0.326027 l 0.177387,-0.182614 h 0.07742 l -0.169547,0.168566 z"
         id="path91"
         transform="rotate(-90,-0.32392646,0.44171905)" />
      <path
         style="font-size:0.66904px;opacity:0.926175;fill:none;stroke:#000000;stroke-width:0.1;paint-order:stroke fill markers"
         d="m 97.68481,59.503015 q 0,0.06403 -0.03267,0.0967 -0.03267,0.03267 -0.08755,0.03267 -0.01307,0 -0.03463,-0.0026 -0.02123,-0.0026 -0.03561,-0.0065 v -0.05848 h 0.0033 q 0.0091,0.0036 0.0245,0.0082 0.01568,0.0046 0.03038,0.0046 0.02352,0 0.0379,-0.0065 0.01437,-0.0065 0.02156,-0.0196 0.0072,-0.01307 0.0091,-0.03169 0.0023,-0.01829 0.0023,-0.04476 v -0.294012 h -0.07612 v -0.05162 h 0.137532 z"
         id="path90"
         transform="rotate(-90,-0.32392646,0.44171905)" />
      <path
         style="font-size:0.66904px;opacity:0.926175;fill:none;stroke:#000000;stroke-width:0.1;paint-order:stroke fill markers"
         d="m 97.68871,59.068204 h -0.06926 v -0.0637 h 0.06926 z"
         id="path89"
         transform="rotate(-90,-0.32392646,0.44171905)" />
      <path
         style="font-size:0.66904px;opacity:0.926175;fill:none;stroke:#000000;stroke-width:0.1;paint-order:stroke fill markers"
         d="m 97.218292,59.494195 h -0.06142 v -0.364901 h 0.06142 z"
         id="path88"
         transform="rotate(-90,-0.32392646,0.44171905)" />
      <path
         style="font-size:0.66904px;opacity:0.926175;fill:none;stroke:#000000;stroke-width:0.1;paint-order:stroke fill markers"
         d="m 97.222192,59.068204 h -0.06926 v -0.0637 h 0.06926 z"
         id="path87"
         transform="rotate(-90,-0.32392646,0.44171905)" />
      <path
         style="font-size:0.66904px;opacity:0.926175;fill:none;stroke:#000000;stroke-width:0.1;paint-order:stroke fill markers"
         d="m 96.802735,59.494195 h -0.06142 v -0.207768 q 0,-0.02515 -0.0029,-0.04704 -0.0029,-0.02222 -0.01078,-0.03463 -0.0082,-0.01372 -0.02352,-0.02026 -0.01535,-0.0069 -0.03985,-0.0069 -0.02515,0 -0.0526,0.01241 -0.02744,0.01241 -0.05259,0.03169 v 0.272451 h -0.06142 v -0.508314 h 0.06142 v 0.183921 q 0.02875,-0.02385 0.05946,-0.03724 0.03071,-0.01339 0.06305,-0.01339 0.05913,0 0.09016,0.03561 0.03104,0.03561 0.03104,0.102577 z"
         id="path86"
         transform="rotate(-90,-0.32392646,0.44171905)" />
      <path
         style="font-size:0.66904px;opacity:0.926175;fill:none;stroke:#000000;stroke-width:0.1;paint-order:stroke fill markers"
         d="m 96.08012,59.393904 v -0.198948 q -0.0245,-0.01111 -0.04574,-0.01568 -0.02091,-0.0049 -0.04181,-0.0049 -0.05063,0 -0.07971,0.03397 -0.02908,0.03398 -0.02908,0.09866 0,0.06142 0.02156,0.0931 0.02156,0.03169 0.07154,0.03169 0.02679,0 0.05358,-0.01013 0.02711,-0.01045 0.04966,-0.02777 z"
         id="path85"
         transform="rotate(-90,-0.32392646,0.44171905)" />
      <path
         style="font-size:0.66904px;opacity:0.926175;fill:none;stroke:#000000;stroke-width:0.1;paint-order:stroke fill markers"
         d="m 96.14153,59.452704 q 0,0.09278 -0.04214,0.136226 -0.04214,0.04345 -0.129692,0.04345 -0.02907,0 -0.05684,-0.0042 -0.02744,-0.0039 -0.05423,-0.01143 v -0.06272 h 0.0033 q 0.01503,0.0059 0.0477,0.01437 0.03267,0.0088 0.06534,0.0088 0.03136,0 0.05194,-0.0075 0.02058,-0.0075 0.03201,-0.02091 0.01143,-0.01274 0.01633,-0.03071 0.0049,-0.01797 0.0049,-0.04018 v -0.03332 q -0.02777,0.02221 -0.05325,0.03332 -0.02515,0.01078 -0.06436,0.01078 -0.06534,0 -0.103884,-0.04704 -0.03822,-0.04737 -0.03822,-0.133285 0,-0.04704 0.01307,-0.08102 0.01339,-0.0343 0.03626,-0.05913 0.02123,-0.02319 0.05161,-0.03593 0.03038,-0.01307 0.06044,-0.01307 0.03169,0 0.05292,0.0065 0.02156,0.0062 0.04541,0.01927 l 0.0039,-0.01568 h 0.0575 z"
         id="path84"
         transform="rotate(-90,-0.32392646,0.44171905)" />
      <path
         style="font-size:0.66904px;opacity:0.926175;fill:none;stroke:#000000;stroke-width:0.1;paint-order:stroke fill markers"
         d="m 95.571474,59.045335 h -0.0033 q -0.01013,-0.0029 -0.02646,-0.0059 -0.01633,-0.0033 -0.02875,-0.0033 -0.03953,0 -0.0575,0.01764 -0.01764,0.01731 -0.01764,0.06305 v 0.01241 h 0.110745 v 0.05162 h -0.108785 v 0.313286 h -0.06142 v -0.313286 h -0.04149 v -0.05162 h 0.04149 v -0.01209 q 0,-0.06501 0.03234,-0.09964 0.03234,-0.03495 0.09343,-0.03495 0.02058,0 0.03692,0.002 0.01666,0.002 0.03038,0.0046 z"
         id="path83"
         transform="rotate(-90,-0.32392646,0.44171905)" />
      <path
         style="font-size:0.66904px;opacity:0.926175;fill:none;stroke:#000000;stroke-width:0.1;paint-order:stroke fill markers"
         d="m 94.987044,59.271071 q -3.26e-4,-0.04835 -0.0245,-0.07481 -0.02385,-0.02646 -0.07285,-0.02646 -0.04933,0 -0.07873,0.02907 -0.02907,0.02907 -0.03299,0.0722 z"
         id="path82"
         transform="rotate(-90,-0.32392646,0.44171905)" />
      <path
         style="font-size:0.66904px;opacity:0.926175;fill:none;stroke:#000000;stroke-width:0.1;paint-order:stroke fill markers"
         d="m 95.046824,59.318111 h -0.268858 q 0,0.03365 0.01013,0.0588 0.01013,0.02483 0.02777,0.04084 0.01699,0.01568 0.04018,0.02352 0.02352,0.0078 0.05161,0.0078 0.03724,0 0.07481,-0.0147 0.03789,-0.01503 0.0539,-0.0294 h 0.0033 v 0.06697 q -0.03104,0.01307 -0.06338,0.02189 -0.03234,0.0088 -0.06795,0.0088 -0.09082,0 -0.141779,-0.049 -0.05096,-0.04933 -0.05096,-0.139819 0,-0.08951 0.04868,-0.142106 0.049,-0.0526 0.128711,-0.0526 0.07383,0 0.113685,0.04312 0.04018,0.04312 0.04018,0.122505 z"
         id="path81"
         transform="rotate(-90,-0.32392646,0.44171905)" />
      <path
         style="font-size:0.66904px;opacity:0.926175;fill:none;stroke:#000000;stroke-width:0.1;paint-order:stroke fill markers"
         d="m 94.323881,59.404351 v -0.209402 q -0.02483,-0.01111 -0.04443,-0.01535 -0.0196,-0.0042 -0.04279,-0.0042 -0.05161,0 -0.08036,0.03594 -0.02875,0.03594 -0.02875,0.101924 0,0.06501 0.02221,0.09898 0.02221,0.03365 0.07122,0.03365 0.02614,0 0.05292,-0.01143 0.02679,-0.01176 0.04998,-0.03005 z"
         id="path80"
         transform="rotate(-90,-0.32392646,0.44171905)" />
      <path
         style="font-size:0.66904px;opacity:0.926175;fill:none;stroke:#000000;stroke-width:0.1;paint-order:stroke fill markers"
         d="m 94.385301,59.494191 h -0.06142 v -0.03822 q -0.02646,0.02287 -0.05521,0.03561 -0.02875,0.01274 -0.0624,0.01274 -0.06534,0 -0.103884,-0.05031 -0.03822,-0.05031 -0.03822,-0.139492 0,-0.04639 0.01307,-0.08265 0.01339,-0.03626 0.03593,-0.06174 0.02221,-0.02483 0.05161,-0.03789 0.02973,-0.01307 0.06142,-0.01307 0.02875,0 0.05096,0.0062 0.02222,0.0059 0.04672,0.01862 v -0.158113 h 0.06142 z"
         id="path79"
         transform="rotate(-90,-0.32392646,0.44171905)" />
      <path
         style="font-size:0.66904px;opacity:0.926175;fill:none;stroke:#000000;stroke-width:0.1;paint-order:stroke fill markers"
         d="m 93.77539,59.471321 q -0.03071,0.0147 -0.05848,0.02287 -0.02744,0.0082 -0.05848,0.0082 -0.03953,0 -0.07252,-0.01143 -0.03299,-0.01176 -0.05652,-0.03528 -0.02385,-0.02352 -0.03691,-0.05946 -0.01307,-0.03593 -0.01307,-0.08396 0,-0.08951 0.049,-0.140472 0.04933,-0.05096 0.130019,-0.05096 0.03136,0 0.06142,0.0088 0.03038,0.0088 0.05554,0.02156 v 0.06828 h -0.0033 q -0.0281,-0.02189 -0.05815,-0.03365 -0.02973,-0.01176 -0.05815,-0.01176 -0.05227,0 -0.08265,0.03528 -0.03006,0.03496 -0.03006,0.102904 0,0.06599 0.0294,0.101598 0.02973,0.03528 0.0833,0.03528 0.01862,0 0.03789,-0.0049 0.01927,-0.0049 0.03463,-0.01274 0.01339,-0.0069 0.02515,-0.01437 0.01176,-0.0078 0.01862,-0.01339 h 0.0033 z"
         id="path78"
         transform="rotate(-90,-0.32392646,0.44171905)" />
      <path
         style="font-size:0.66904px;opacity:0.926175;fill:none;stroke:#000000;stroke-width:0.1;paint-order:stroke fill markers"
         d="m 93.11125,59.310595 q 0,-0.06534 -0.02156,-0.09898 -0.02156,-0.03397 -0.06958,-0.03397 -0.02679,0 -0.05423,0.01176 -0.02744,0.01143 -0.05096,0.02973 v 0.209075 q 0.02613,0.01176 0.04475,0.01633 0.01895,0.0046 0.04279,0.0046 0.05096,0 0.07971,-0.03332 0.02907,-0.03365 0.02907,-0.105191 z"
         id="path77"
         transform="rotate(-90,-0.32392646,0.44171905)" />
      <path
         style="font-size:0.66904px;opacity:0.926175;fill:none;stroke:#000000;stroke-width:0.1;paint-order:stroke fill markers"
         d="m 93.17463,59.308995 q 0,0.04574 -0.01307,0.08232 -0.01274,0.03659 -0.03463,0.06142 -0.02319,0.02581 -0.05096,0.03887 -0.02777,0.01274 -0.06109,0.01274 -0.03104,0 -0.05423,-0.0075 -0.02319,-0.0072 -0.04573,-0.0196 l -0.0039,0.01699 h -0.0575 v -0.508314 h 0.06142 v 0.181634 q 0.02581,-0.02123 0.05488,-0.03463 0.02908,-0.01372 0.06534,-0.01372 0.06468,0 0.101924,0.04966 0.03757,0.04966 0.03757,0.140145 z"
         id="path76"
         transform="rotate(-90,-0.32392646,0.44171905)" />
      <path
         style="font-size:0.66904px;opacity:0.926175;fill:none;stroke:#000000;stroke-width:0.1;paint-order:stroke fill markers"
         d="m 92.438948,59.404385 v -0.101597 q -0.02809,0.0016 -0.06632,0.0049 -0.03789,0.0033 -0.06011,0.0095 -0.02646,0.0075 -0.04279,0.02352 -0.01633,0.01568 -0.01633,0.04345 0,0.03136 0.01895,0.04737 0.01895,0.01568 0.05782,0.01568 0.03234,0 0.05913,-0.01241 0.02679,-0.01274 0.04966,-0.03038 z"
         id="path75"
         transform="rotate(-90,-0.32392646,0.44171905)" />
      <path
         style="font-size:0.66904px;opacity:0.926175;fill:none;stroke:#000000;stroke-width:0.1;paint-order:stroke fill markers"
         d="m 92.500038,59.494225 h -0.06109 v -0.03887 q -0.0082,0.0056 -0.02221,0.01568 -0.01372,0.0098 -0.02679,0.01568 -0.01535,0.0075 -0.03528,0.01241 -0.01993,0.0052 -0.04671,0.0052 -0.04933,0 -0.08363,-0.03267 -0.0343,-0.03267 -0.0343,-0.0833 0,-0.04149 0.01764,-0.06697 0.01797,-0.02581 0.05096,-0.04051 0.03332,-0.0147 0.08004,-0.01993 0.04672,-0.0052 0.100291,-0.0078 v -0.0095 q 0,-0.02091 -0.0075,-0.03463 -0.0072,-0.01372 -0.02091,-0.02156 -0.01307,-0.0075 -0.03136,-0.01013 -0.01829,-0.0026 -0.03822,-0.0026 -0.02417,0 -0.0539,0.0065 -0.02973,0.0062 -0.06142,0.01829 h -0.0033 v -0.0624 q 0.01797,-0.0049 0.05194,-0.01078 0.03397,-0.0059 0.06697,-0.0059 0.03855,0 0.06697,0.0065 0.02875,0.0062 0.04966,0.02156 0.02058,0.01503 0.03136,0.03887 0.01078,0.02385 0.01078,0.05913 z"
         id="path41"
         transform="rotate(-90,-0.32392646,0.44171905)" />
      <path
         style="font-size:0.66904px;opacity:0.926175;fill:none;stroke:#000000;stroke-width:0.1;paint-order:stroke fill markers"
         d="m 98.07123,60.330558 h -0.294666 v -0.04541 l 0.212669,-0.268204 h -0.208095 v -0.05129 h 0.284538 v 0.04378 l -0.213649,0.269184 h 0.219203 z"
         id="path108"
         transform="rotate(-90,-0.32392646,0.44171905)" />
      <path
         style="font-size:0.66904px;opacity:0.926175;fill:none;stroke:#000000;stroke-width:0.1;paint-order:stroke fill markers"
         d="m 97.491046,59.965657 -0.212995,0.499493 h -0.06566 l 0.06795,-0.152233 -0.145373,-0.34726 h 0.06664 l 0.112051,0.27049 0.113031,-0.27049 z"
         id="path107"
         transform="rotate(-90,-0.32392646,0.44171905)" />
      <path
         style="font-size:0.66904px;opacity:0.926175;fill:none;stroke:#000000;stroke-width:0.1;paint-order:stroke fill markers"
         d="m 96.860228,60.330558 h -0.07742 l -0.103558,-0.140146 -0.104211,0.140146 h -0.07154 l 0.142432,-0.181961 -0.141126,-0.18294 h 0.07742 l 0.102904,0.137858 0.103231,-0.137858 h 0.07187 l -0.143413,0.179673 z"
         id="path106"
         transform="rotate(-90,-0.32392646,0.44171905)" />
      <path
         style="font-size:0.66904px;opacity:0.926175;fill:none;stroke:#000000;stroke-width:0.1;paint-order:stroke fill markers"
         d="m 96.220589,59.965657 -0.09506,0.364901 h -0.05684 l -0.09376,-0.281271 -0.0931,0.281271 h -0.05652 l -0.09604,-0.364901 h 0.06403 l 0.06697,0.282578 0.09114,-0.282578 h 0.05063 l 0.09343,0.282578 0.06338,-0.282578 z"
         id="path105"
         transform="rotate(-90,-0.32392646,0.44171905)" />
      <path
         style="font-size:0.66904px;opacity:0.926175;fill:none;stroke:#000000;stroke-width:0.1;paint-order:stroke fill markers"
         d="m 95.446031,59.965657 -0.147659,0.364901 h -0.06174 l -0.14668,-0.364901 h 0.06664 l 0.113031,0.290418 0.112051,-0.290418 z"
         id="path104"
         transform="rotate(-90,-0.32392646,0.44171905)" />
      <path
         style="font-size:0.66904px;opacity:0.926175;fill:none;stroke:#000000;stroke-width:0.1;paint-order:stroke fill markers"
         d="m 94.774378,60.330558 h -0.06142 v -0.04051 q -0.03103,0.0245 -0.05946,0.03757 -0.02842,0.01307 -0.06272,0.01307 -0.0575,0 -0.08951,-0.03495 -0.03202,-0.03528 -0.03202,-0.103231 v -0.236842 h 0.06142 v 0.207768 q 0,0.02777 0.0026,0.04769 0.0026,0.0196 0.01111,0.03365 0.0088,0.01437 0.02287,0.02091 0.01405,0.0065 0.04084,0.0065 0.02385,0 0.05194,-0.01241 0.02842,-0.01241 0.05292,-0.03169 v -0.27245 h 0.06142 z"
         id="path103"
         transform="rotate(-90,-0.32392646,0.44171905)" />
      <path
         style="font-size:0.66904px;opacity:0.926175;fill:none;stroke:#000000;stroke-width:0.1;paint-order:stroke fill markers"
         d="m 94.162507,60.327258 q -0.01731,0.0046 -0.03789,0.0075 -0.02025,0.0029 -0.03626,0.0029 -0.05586,0 -0.08494,-0.03006 -0.02907,-0.03005 -0.02907,-0.09637 V 60.01718 h -0.04149 v -0.05161 h 0.04149 v -0.104865 h 0.06142 v 0.104865 h 0.126752 v 0.05161 h -0.126752 v 0.16628 q 0,0.02875 0.0013,0.04508 0.0013,0.01601 0.0091,0.03005 0.0072,0.01307 0.0196,0.01927 0.01274,0.0059 0.03855,0.0059 0.01503,0 0.03136,-0.0042 0.01633,-0.0046 0.02352,-0.0075 h 0.0033 z"
         id="path102"
         transform="rotate(-90,-0.32392646,0.44171905)" />
      <path
         style="font-size:0.66904px;opacity:0.926175;fill:none;stroke:#000000;stroke-width:0.1;paint-order:stroke fill markers"
         d="m 93.649946,60.225334 q 0,0.04998 -0.04149,0.082 -0.04116,0.03201 -0.112705,0.03201 -0.04051,0 -0.07448,-0.0095 -0.03365,-0.0098 -0.05652,-0.02123 v -0.06893 h 0.0033 q 0.02907,0.02189 0.06468,0.03495 0.03561,0.01274 0.06828,0.01274 0.04051,0 0.06338,-0.01307 0.02287,-0.01307 0.02287,-0.04116 0,-0.02156 -0.01241,-0.03267 -0.01241,-0.01111 -0.0477,-0.01895 -0.01307,-0.0029 -0.0343,-0.0069 -0.02091,-0.0039 -0.03822,-0.0085 -0.04802,-0.01274 -0.06828,-0.03724 -0.01993,-0.02483 -0.01993,-0.06076 0,-0.02254 0.0091,-0.04247 0.0095,-0.01993 0.02842,-0.03561 0.0183,-0.01535 0.04639,-0.02417 0.02842,-0.0091 0.06338,-0.0091 0.03267,0 0.06599,0.0082 0.03365,0.0078 0.05586,0.01927 v 0.06566 h -0.0033 q -0.02352,-0.01731 -0.05717,-0.02907 -0.03365,-0.01209 -0.06599,-0.01209 -0.03365,0 -0.05684,0.01307 -0.02319,0.01274 -0.02319,0.03822 0,0.02254 0.01405,0.03397 0.01372,0.01143 0.04443,0.01862 0.01699,0.0039 0.0379,0.0078 0.02123,0.0039 0.03528,0.0072 0.04279,0.0098 0.06599,0.03365 0.02319,0.02417 0.02319,0.06403 z"
         id="path101"
         transform="rotate(-90,-0.32392646,0.44171905)" />
      <path
         style="font-size:0.66904px;opacity:0.926175;fill:none;stroke:#000000;stroke-width:0.1;paint-order:stroke fill markers"
         d="m 93.096224,60.032593 h -0.0033 q -0.01372,-0.0033 -0.02679,-0.0046 -0.01274,-0.0016 -0.03038,-0.0016 -0.02842,0 -0.05488,0.01274 -0.02646,0.01241 -0.05096,0.03234 v 0.259057 h -0.06142 v -0.364901 h 0.06142 v 0.0539 q 0.03659,-0.0294 0.06436,-0.04149 0.02809,-0.01241 0.05717,-0.01241 0.01601,0 0.02319,9.8e-4 0.0072,6.53e-4 0.02156,0.0029 z"
         id="path100"
         transform="rotate(-90,-0.32392646,0.44171905)" />
      <path
         style="font-size:0.66904px;opacity:0.926175;fill:none;stroke:#000000;stroke-width:0.1;paint-order:stroke fill markers"
         d="m 92.451032,60.237748 v -0.206462 q -0.02548,-0.01143 -0.04508,-0.01601 -0.0196,-0.0046 -0.04247,-0.0046 -0.05325,0 -0.08102,0.03626 -0.02777,0.03593 -0.02777,0.09931 0,0.06403 0.02221,0.09866 0.02254,0.0343 0.07056,0.0343 0.02679,0 0.05358,-0.01143 0.02679,-0.01176 0.04998,-0.03005 z"
         id="path99"
         transform="rotate(-90,-0.32392646,0.44171905)"
         inkscape:label="text" />
      <path
         style="font-size:0.66904px;opacity:0.926175;fill:none;stroke:#000000;stroke-width:0.1;paint-order:stroke fill markers"
         d="m 92.512452,60.465117 h -0.06142 v -0.175754 q -0.02842,0.0245 -0.05652,0.03659 -0.02809,0.01176 -0.06076,0.01176 -0.06501,0 -0.103884,-0.04998 -0.03855,-0.05031 -0.03855,-0.138512 0,-0.04704 0.01339,-0.08298 0.01372,-0.03626 0.03594,-0.06076 0.02156,-0.02385 0.05063,-0.03692 0.02907,-0.01307 0.06142,-0.01307 0.0294,0 0.05194,0.0065 0.02287,0.0065 0.04639,0.01927 l 0.0039,-0.01568 h 0.0575 z"
         id="text"
         transform="rotate(-90,-0.32392646,0.44171905)"
         inkscape:label="text" />
    </g>
  </g>
</svg>
