<?xml version="1.0" encoding="UTF-8" standalone="no"?>
<!-- Created with Inkscape (http://www.inkscape.org/) -->

<svg width="150" height="150" viewBox="-0.788 -0.7769999999999999 1.176 1.404" xmlns="http://www.w3.org/2000/svg"><path d="M-0.44,-0.34 L-0.45,-0.39 L-0.465,-0.42 L-0.49,-0.44 L-0.52,-0.455 L-0.56,-0.46 L-0.6,-0.455 L-0.63,-0.44 L-0.655,-0.42 L-0.67,-0.39 L-0.68,-0.34 L-0.68,0.34 L-0.67,0.39 L-0.655,0.42 L-0.63,0.44 L-0.6,0.455 L-0.56,0.46 L-0.52,0.455 L-0.49,0.44 L-0.465,0.42 L-0.45,0.39 L-0.44,0.34 L-0.44,-0.34" fill="none" stroke="black" stroke-width="0.02" stroke-linecap="round" stroke-linejoin="round" />
    <path d="M-0.51,-0.275 L-0.52,-0.32 L-0.535,-0.34 L-0.555,-0.35 L-0.57,-0.35 L-0.585,-0.34 L-0.6,-0.32 L-0.61,-0.275 L-0.61,0.275 L-0.6,0.32 L-0.585,0.34 L-0.57,0.35 L-0.555,0.35 L-0.535,0.34 L-0.52,0.32 L-0.51,0.275 L-0.51,-0.275" fill="black" stroke="black" stroke-width="0.02" stroke-linecap="round" stroke-linejoin="round" />
    <path d="M0.1,0.4 L0.1,-0.4" fill="none" stroke="black" stroke-width="0.02" stroke-linecap="round" stroke-linejoin="round" />
    <path d="M0.1,0.1 L-0.03,-0.05 L-0.03,-0.15" fill="none" stroke="black" stroke-width="0.02" stroke-linecap="round" stroke-linejoin="round" />
    <path d="M0.1,0 L0.25,-0.15 L0.25,-0.25" fill="none" stroke="black" stroke-width="0.02" stroke-linecap="round" stroke-linejoin="round" />
    <path d="M0.05,-0.4 L0.1,-0.5 L0.15,-0.4 L0.05,-0.4" fill="black" stroke="black" stroke-width="0.02" stroke-linecap="round" stroke-linejoin="round" />
    <path d="M0.2,-0.25 L0.3,-0.25 L0.3,-0.35 L0.2,-0.35 L0.2,-0.25" fill="black" stroke="black" stroke-width="0.02" stroke-linecap="round" stroke-linejoin="round" />
    <text x="-0.25" y="-0.7" dx="0" dy="0" text-anchor="middle" style="font: 0.1px monospace; fill: black">{REF}</text><rect x="-0.2625" y="-0.7124999999999999" width="0.025" height="0.025" fill="blue" />
    <circle cx="0.1" cy="0.4" r="0.07" fill="black"  />
    <circle cx="-0.03" cy="-0.15" r="0.04" fill="black"  />

<path d="M -0.2 -0.1 L -0.17500000000000002 -0.075 L -0.2 -0.049999999999999996 L -0.225 -0.075 Z" fill="green" />
<text x="-0.69" y="-0.51" style="font: 0.05px monospace; fill: #833;">0.98 x 1.17</text>
<text x="-0.69" y="-0.51" style="font: 0.05px monospace; fill: #833;">0.98 x 1.17</text></svg>